<?xml version="1.0" encoding="utf-8"?>
<!-- Generator: Adobe Illustrator 19.2.1, SVG Export Plug-In . SVG Version: 6.00 Build 0)  -->
<svg version="1.1" id="Layer_1" xmlns="http://www.w3.org/2000/svg" xmlns:xlink="http://www.w3.org/1999/xlink" x="0px" y="0px"
	 viewBox="0 0 26.3 26.3" style="enable-background:new 0 0 26.3 26.3;" xml:space="preserve">
<style type="text/css">
	.st0{fill:#FDFDFD;stroke:#2E3342;stroke-width:1.9;stroke-miterlimit:10;}
	.st1{fill:#2E3342;}
	.st2{fill:#FBFBFC;}
	.st3{fill:#72CEF1;}
	.st4{display:none;}
	.st5{display:inline;}
	.st6{fill:none;}
</style>
<g id="Layer_1_1_">
	<title>Explore</title>
	<circle class="st0" cx="13.2" cy="13.2" r="12.2"/>
	<path class="st1" d="M20.5,6.5c-0.1,0.2-0.1,0.3-0.2,0.4c-1.5,2.8-3,5.6-4.5,8.3c-0.2,0.3-0.4,0.5-0.7,0.7c-2.8,1.5-5.5,3-8.3,4.5
		c-0.4,0.3-0.9,0.2-1.2-0.1c-0.3-0.3-0.2-0.8,0-1.1c1.5-2.8,3-5.6,4.5-8.3c0.2-0.3,0.4-0.5,0.6-0.7c2.8-1.5,5.6-3,8.3-4.5
		c0.3-0.3,0.8-0.2,1.1,0.1C20.5,6.1,20.5,6.3,20.5,6.5z M11.2,12.5l-2.9,5.3l0.1,0.1l5.3-2.9L11.2,12.5z M17.7,8.5l-0.1-0.1
		l-5.2,2.8l2.5,2.5L17.7,8.5z"/>
	<path class="st2" d="M11.2,12.5l2.5,2.6L8.4,18l-0.1-0.1L11.2,12.5z"/>
	<path class="st3" d="M17.7,8.6l-2.8,5.2l-2.6-2.5l5.2-2.8L17.7,8.6z"/>
	<path class="st1" d="M12.8,0.9h0.7c0.4,0,0.7,0.3,0.7,0.7v1.7c0,0.4-0.3,0.7-0.7,0.7h-0.7c-0.4,0-0.7-0.3-0.7-0.7V1.6
		C12.1,1.2,12.4,0.9,12.8,0.9z"/>
	<path class="st1" d="M12.8,22.6h0.7c0.4,0,0.7,0.3,0.7,0.7V25c0,0.4-0.3,0.7-0.7,0.7h-0.7c-0.4,0-0.7-0.3-0.7-0.7v-1.7
		C12.1,22.9,12.4,22.6,12.8,22.6z"/>
	<path class="st1" d="M25.5,12.8v0.7c0,0.4-0.3,0.7-0.7,0.7h-1.7c-0.4,0-0.7-0.3-0.7-0.7v-0.7c0-0.4,0.3-0.7,0.7-0.7h1.7
		C25.2,12.1,25.5,12.4,25.5,12.8z"/>
	<path class="st1" d="M3.8,12.8v0.7c0,0.4-0.3,0.7-0.7,0.7H1.5c-0.4,0-0.7-0.3-0.7-0.7v-0.7c0-0.4,0.3-0.7,0.7-0.7h1.7
		C3.5,12.1,3.8,12.4,3.8,12.8z"/>
</g>
<g id="Layer_2" class="st4">
	<g class="st5">
		<path class="st6" d="M10.6,3.1c-4,0-7.2,3.2-7.2,7.2s3.2,7.2,7.2,7.2s7.2-3.2,7.2-7.2C17.8,6.4,14.6,3.1,10.6,3.1z M7.2,13.1
			c-0.1,0-0.2,0-0.3-0.1c-0.2-0.2-0.2-0.5-0.1-0.7l5.1-6.4c0.2-0.2,0.5-0.2,0.7-0.1c0.2,0.2,0.2,0.5,0.1,0.7l-5.1,6.4
			C7.5,13,7.3,13.1,7.2,13.1z M14.7,8.6l-5,6.4c-0.1,0.1-0.2,0.2-0.4,0.2c-0.1,0-0.2,0-0.3-0.1c-0.2-0.2-0.2-0.5-0.1-0.7L14,8
			c0.2-0.2,0.5-0.2,0.7-0.1C14.9,8.1,14.9,8.4,14.7,8.6z"/>
		<path class="st1" d="M25.3,22.7l-0.1-0.1l-2.6,2.6l0.1,0.1l0.7,0.7c0.4,0.5,1.4,0.2,2.1-0.5s1-1.7,0.5-2.1L25.3,22.7L25.3,22.7z"
			/>
		<polygon class="st3" points="24.5,22 21.9,24.6 22.5,25.2 25.2,22.6 25.1,22.5 25.1,22.5 		"/>
		<path class="st1" d="M10.5,0.1C4.8,0.1,0.2,4.7,0.2,10.4s4.6,10.3,10.3,10.3c2.1,0,4.1-0.6,5.7-1.7l5.7,5.6l2.6-2.6l-5.7-5.6
			c1.2-1.7,1.9-3.7,1.9-6C20.8,4.7,16.1,0.1,10.5,0.1z M10.6,17.6c-4,0-7.2-3.2-7.2-7.2s3.2-7.2,7.2-7.2s7.2,3.2,7.2,7.2
			S14.6,17.6,10.6,17.6z"/>
		<path class="st3" d="M11.8,5.9l-5.1,6.4c-0.2,0.2-0.1,0.5,0.1,0.7c0.2,0,0.3,0.1,0.4,0.1s0.3-0.1,0.4-0.2l5.1-6.4
			c0.2-0.2,0.1-0.5-0.1-0.7C12.3,5.7,12,5.7,11.8,5.9z"/>
		<path class="st3" d="M14,8l-5.1,6.4c-0.2,0.2-0.1,0.5,0.1,0.7c0.1,0.1,0.2,0.1,0.3,0.1s0.3-0.1,0.4-0.2l5.1-6.4
			c0.2-0.2,0.1-0.5-0.1-0.7C14.4,7.8,14.1,7.8,14,8z"/>
	</g>
</g>
</svg>
