<svg id="Layer_2" data-name="Layer 2" xmlns="http://www.w3.org/2000/svg" width="26" height="26.14" viewBox="0 0 26 26.14"><defs><style>.cls-1{fill:none;}.cls-2{fill:#2e3342;}.cls-3{fill:#72cef1;}</style></defs><title>Search</title><path class="cls-1" d="M10.6,3.15a7.24,7.24,0,1,0,7.24,7.24A7.24,7.24,0,0,0,10.6,3.15ZM7.17,13.07a0.49,0.49,0,0,1-.38-0.79l5.06-6.36a0.49,0.49,0,0,1,.77.61L7.55,12.88A0.49,0.49,0,0,1,7.17,13.07Zm7.56-4.43L9.67,15a0.49,0.49,0,1,1-.77-0.61L14,8A0.49,0.49,0,0,1,14.73,8.64Z" transform="translate(-0.16 -0.09)"/><path class="cls-2" d="M25.27,22.7l-0.11-.11-2.64,2.64,0.06,0.06,0.7,0.7c0.45,0.45,1.4.22,2.14-.51s1-1.69.51-2.14l-0.65-.65h0Z" transform="translate(-0.16 -0.09)"/><polygon class="cls-3" points="24.36 21.87 21.71 24.51 22.36 25.14 25 22.5 24.93 22.43 24.93 22.43 24.36 21.87"/><path class="cls-2" d="M10.46,0.09A10.3,10.3,0,1,0,16.16,19l5.72,5.63L24.52,22l-5.68-5.59A10.29,10.29,0,0,0,10.46.09ZM10.6,17.63a7.24,7.24,0,1,1,7.24-7.24A7.24,7.24,0,0,1,10.6,17.63Z" transform="translate(-0.16 -0.09)"/><path class="cls-3" d="M11.84,5.91L6.79,12.27a0.49,0.49,0,0,0,.77.61l5.06-6.36A0.49,0.49,0,0,0,11.84,5.91Z" transform="translate(-0.16 -0.09)"/><path class="cls-3" d="M14,8L8.91,14.39a0.49,0.49,0,0,0,.77.61l5.06-6.36A0.49,0.49,0,0,0,14,8Z" transform="translate(-0.16 -0.09)"/></svg>