<svg id="Layer_2" data-name="Layer 2" xmlns="http://www.w3.org/2000/svg" width="26.32" height="26.32" viewBox="0 0 26.32 26.32"><defs><style>.cls-1{fill:#354146;}.cls-2{fill:#576065;}.cls-3{fill:#4d585d;}.cls-4{fill:#535d62;}.cls-5{fill:#3d484f;}.cls-6{fill:#3a464b;}.cls-7{fill:#434f56;}.cls-8{fill:#49545a;}.cls-9{fill:#455157;}.cls-10{fill:#38444b;}.cls-11{fill:#3f4a4f;}.cls-12{fill:#414c53;}.cls-13{fill:#5b6469;}.cls-14{fill:#72cef1;}.cls-15{fill:#3eb2d6;}.cls-16{fill:#49555b;}.cls-17{fill:#3e4a50;}.cls-18{fill:#4f5a60;}.cls-19{fill:none;stroke:#2e3342;stroke-miterlimit:10;stroke-width:1.9px;}</style></defs><title>User</title><path class="cls-1" d="M25.68,8.39a10.06,10.06,0,0,1,1.12,3.92,13.08,13.08,0,0,1-8.89,13.86c-0.11,0-.23.05-0.35,0.08l0.29-1.19,0.44-.22a11.61,11.61,0,0,0,4.53-3.22l-2.7-1.21,0.33-1,3.05,1.33a11.92,11.92,0,0,0,2.26-6.22,12.61,12.61,0,0,0-.82-5.31c0.1-.14.19-0.28,0.31-0.41S25.53,8.53,25.68,8.39Z" transform="translate(-0.59 -0.59)"/><path class="cls-2" d="M0.77,15.58a13,13,0,0,1,.62-6.15A1.19,1.19,0,0,0,1.86,8.3,12.53,12.53,0,0,1,6,3.16c0.2-.15.43-0.27,0.64-0.41a2,2,0,0,1,0,.47c-0.07.33-.18,0.66-0.28,1A13,13,0,0,0,2.89,8.6a12.42,12.42,0,0,0-1.13,6c-0.17.21-.32,0.43-0.5,0.62A5,5,0,0,1,.77,15.58Z" transform="translate(-0.59 -0.59)"/><path class="cls-3" d="M4.84,23.29A10.91,10.91,0,0,1,2.27,20l0.33-.43L3,19.06l1,1.7,1.87-.85-0.4,1.33-0.71.41,0.49,0.59Z" transform="translate(-0.59 -0.59)"/><path class="cls-4" d="M6.39,4.21c0.09-.33.2-0.66,0.28-1a2,2,0,0,0,0-.47A11.37,11.37,0,0,1,10.52,1c0.36-.09.73-0.14,1.09-0.2L11.31,1.93l-0.49.14A12.38,12.38,0,0,0,6.39,4.21Z" transform="translate(-0.59 -0.59)"/><path class="cls-4" d="M3,19.06l-0.38.5L2.27,20a11.9,11.9,0,0,1-1.4-3.82c0-.19-0.07-0.39-0.1-0.59a5,5,0,0,0,.49-0.4c0.18-.19.34-0.41,0.5-0.62a4.68,4.68,0,0,0,0,.86A15.94,15.94,0,0,0,3,19.06Z" transform="translate(-0.59 -0.59)"/><path class="cls-5" d="M14.89,26.77a10.4,10.4,0,0,1-4.2-.32l0.32-1,1.73,0.24,2.36,0Z" transform="translate(-0.59 -0.59)"/><path class="cls-6" d="M25.68,8.39c-0.14.14-.3,0.27-0.43,0.42s-0.2.27-.31,0.41L23.06,6.15,23,6l0.43-1a0.46,0.46,0,0,1,.18.07A10.45,10.45,0,0,1,25.68,8.39Z" transform="translate(-0.59 -0.59)"/><path class="cls-7" d="M11,25.45l-0.32,1a9.92,9.92,0,0,1-3.38-1.34l0.42-1L8.95,24.7Z" transform="translate(-0.59 -0.59)"/><path class="cls-8" d="M7.73,24.15l-0.42,1L4.84,23.29l0.42-1.06Z" transform="translate(-0.59 -0.59)"/><path class="cls-9" d="M16.64,1a7.71,7.71,0,0,1,3,1L19.19,3l-2.87-1Z" transform="translate(-0.59 -0.59)"/><path class="cls-3" d="M11.31,1.93l0.31-1.11,2.87-.18L14.28,1.7Z" transform="translate(-0.59 -0.59)"/><path class="cls-10" d="M14.89,26.77l0.2-1,2.75-.66-0.29,1.19Z" transform="translate(-0.59 -0.59)"/><path class="cls-11" d="M23.41,5L23,6,22.4,5.42,22.08,5.1l-0.94-.88,0.42-.94c0.53,0.44,1.07.87,1.59,1.32A1.7,1.7,0,0,1,23.41,5Z" transform="translate(-0.59 -0.59)"/><path class="cls-12" d="M21.56,3.27l-0.42.94L19.19,3,19.63,2Z" transform="translate(-0.59 -0.59)"/><path class="cls-8" d="M14.28,1.7l0.2-1.06L16.64,1l-0.31.94Z" transform="translate(-0.59 -0.59)"/><path class="cls-13" d="M1.86,8.3a1.19,1.19,0,0,1-.47,1.13Z" transform="translate(-0.59 -0.59)"/><path class="cls-14" d="M17.85,25.06l-2.75.66-2.36,0a2.33,2.33,0,0,1,.11-0.39c0.38-.81.8-1.61,1.16-2.44s0.53-1.38.79-2.07l0.2,0.1,2.15,2.15a3.38,3.38,0,0,1,.39.45c0.26,0.43.5,0.88,0.75,1.33Z" transform="translate(-0.59 -0.59)"/><path class="cls-15" d="M18.29,24.84c-0.25-.44-0.49-0.89-0.75-1.33a3.38,3.38,0,0,0-.39-0.45,0.66,0.66,0,0,0,.72-0.34c0.3-.47.67-0.9,1-1.35s0.5-.71.75-1.07l0.51,0.12,2.7,1.21A11.61,11.61,0,0,1,18.29,24.84Z" transform="translate(-0.59 -0.59)"/><path class="cls-10" d="M20.11,20.41l-0.51-.12L17,19.54l0.31-1,3.09,0.88Z" transform="translate(-0.59 -0.59)"/><path class="cls-14" d="M7.73,24.15L5.26,22.24l-0.49-.59,0.71-.41,3.88-1.47,1.95-.36a2.45,2.45,0,0,1-.12.49c-0.74,1.6-1.49,3.2-2.24,4.81Z" transform="translate(-0.59 -0.59)"/><path class="cls-16" d="M9.36,19.78L5.47,21.24l0.4-1.33,3.88-1.3Z" transform="translate(-0.59 -0.59)"/><path class="cls-14" d="M8.95,24.7c0.75-1.6,1.5-3.2,2.24-4.81a2.45,2.45,0,0,0,.12-0.49l2-.2c0.11,0.14.21,0.3,0.33,0.43l1.11,1.16c-0.26.69-.49,1.39-0.79,2.07s-0.77,1.62-1.16,2.44a2.33,2.33,0,0,0-.11.39L11,25.45Z" transform="translate(-0.59 -0.59)"/><path class="cls-12" d="M18.28,5.74a6.34,6.34,0,0,1,2,4.77c0,0.26,0,.51,0,0.77A7.21,7.21,0,0,1,18.54,15a6.64,6.64,0,0,1-5.2,2,4,4,0,0,1-.5-0.09l0.41-1,2-.23a10.22,10.22,0,0,0,1.08-.43A5.39,5.39,0,0,0,18.79,8.4L17.59,6.49Z" transform="translate(-0.59 -0.59)"/><path class="cls-17" d="M13.76,18.14l3.38,0.29,0.21,0.1-0.31,1-0.82-.11-2.77-.27Z" transform="translate(-0.59 -0.59)"/><path class="cls-15" d="M16.23,19.43L17,19.54l2.56,0.75c-0.25.36-.49,0.72-0.75,1.07s-0.69.88-1,1.35a0.66,0.66,0,0,1-.72.34L15,20.91A2.64,2.64,0,0,0,16.23,19.43Z" transform="translate(-0.59 -0.59)"/><path class="cls-15" d="M16.23,19.43A2.64,2.64,0,0,1,15,20.91l-0.2-.1-1.11-1.16c-0.12-.13-0.22-0.28-0.33-0.43l0.1,0Z" transform="translate(-0.59 -0.59)"/><path class="cls-18" d="M8.21,13.87A6.24,6.24,0,0,1,8,7.31,6.36,6.36,0,0,1,12.44,4a2.51,2.51,0,0,1,.41,0,2.68,2.68,0,0,0-.19.52,2.49,2.49,0,0,0,0,.54,14.12,14.12,0,0,0-1.5.6A5.36,5.36,0,0,0,8.74,12.5l0.08,0.31Z" transform="translate(-0.59 -0.59)"/><path class="cls-7" d="M13.46,19.17l-0.1,0-2,.2-1.95.37,0.4-1.16a13.63,13.63,0,0,1,4-.47Z" transform="translate(-0.59 -0.59)"/><path class="cls-8" d="M8.21,13.87l0.61-1.06a5.56,5.56,0,0,0,2,2.26,1,1,0,0,0-.42,1A5.34,5.34,0,0,1,8.21,13.87Z" transform="translate(-0.59 -0.59)"/><path class="cls-8" d="M12.69,5.05a2.49,2.49,0,0,1,0-.54A2.68,2.68,0,0,1,12.84,4a5.62,5.62,0,0,1,3,.27l-0.36,1L13.56,5Z" transform="translate(-0.59 -0.59)"/><path class="cls-9" d="M15.5,5.24l0.36-1a5.36,5.36,0,0,1,2.41,1.46l-0.69.76-0.84-.57Z" transform="translate(-0.59 -0.59)"/><path class="cls-9" d="M10.37,16a1,1,0,0,1,.42-1L12,15.59l1.24,0.31-0.41,1A5.1,5.1,0,0,1,10.37,16Z" transform="translate(-0.59 -0.59)"/><path class="cls-15" d="M13.25,15.9L12,15.59l0.23-.5L13.15,13l0.22-.12a5.57,5.57,0,0,0,3.49-3.78,6,6,0,0,0-.11-3.2l0.84,0.57L18.79,8.4a2.22,2.22,0,0,0-.37.44q-1.18,2.48-2.33,5c-0.28.61-.53,1.24-0.79,1.86Z" transform="translate(-0.59 -0.59)"/><path class="cls-15" d="M15.3,15.67c0.26-.62.51-1.25,0.79-1.86q1.15-2.49,2.33-5a2.22,2.22,0,0,1,.37-0.44,5.39,5.39,0,0,1-2.41,6.84A10.22,10.22,0,0,1,15.3,15.67Z" transform="translate(-0.59 -0.59)"/><path class="cls-14" d="M12.69,5.05l0.87,0a6.88,6.88,0,0,1-.26.82q-1.39,3-2.8,6a8.35,8.35,0,0,1-.63,1L8.74,12.5a5.36,5.36,0,0,1,2.44-6.85A14.12,14.12,0,0,1,12.69,5.05Z" transform="translate(-0.59 -0.59)"/><path class="cls-15" d="M8.74,12.5l1.13,0.31a3.85,3.85,0,0,0,.45.21,6.45,6.45,0,0,0,2.83,0l-0.9,2.08-0.23.5-1.23-.52a5.56,5.56,0,0,1-2-2.26Z" transform="translate(-0.59 -0.59)"/><path class="cls-14" d="M13.15,13a6.45,6.45,0,0,1-2.83,0,3.85,3.85,0,0,1-.45-0.21,8.35,8.35,0,0,0,.63-1q1.42-3,2.8-6A6.88,6.88,0,0,0,13.56,5L15.5,5.24l1.25,0.68a6,6,0,0,1,.11,3.2,5.57,5.57,0,0,1-3.49,3.78Z" transform="translate(-0.59 -0.59)"/><circle class="cls-19" cx="13.16" cy="13.16" r="12.21"/></svg>