<svg id="Layer_7" data-name="Layer 7" xmlns="http://www.w3.org/2000/svg" width="38.52" height="50" viewBox="0 0 38.52 50"><defs><style>.cls-1{fill:#343434;}</style></defs><title>Achievement</title><path class="cls-1" d="M9.3,24a8.54,8.54,0,0,0-.89-1.4c-0.56-.62-1.26-1.11-1.86-1.7-1.08-1.06-1.09-1.95,0-3,0.58-.57,1.2-1.09,1.82-1.62a2.22,2.22,0,0,0,.72-2.56c-0.25-.8-0.55-1.59-0.76-2.4-0.37-1.39,0-2,1.39-2.42,0.81-.22,1.64-0.35,2.46-0.53a2.28,2.28,0,0,0,1.89-1.88c0.15-.72.27-1.44,0.43-2.15,0.39-1.75,1.1-2.16,2.8-1.63C17.85,2.85,18.42,3,19,3.25a2.57,2.57,0,0,0,3.19-.86c0.41-.5.83-1,1.28-1.47,1.14-1.2,1.95-1.21,3.09,0C27,1.39,27.52,1.95,28,2.5a2.22,2.22,0,0,0,2.56.74l2.09-.67C34.39,2,35.1,2.43,35.51,4.22c0.13,0.58.23,1.17,0.33,1.76a2.59,2.59,0,0,0,2.34,2.34c0.67,0.11,1.33.24,2,.4,1.51,0.36,1.91,1,1.49,2.56-0.21.76-.48,1.5-0.72,2.25a2.39,2.39,0,0,0,.75,2.78c0.58,0.49,1.15,1,1.7,1.52,1.16,1.13,1.16,2,0,3.12-0.54.53-1.13,1-1.71,1.5a2.3,2.3,0,0,0-.75,2.7c0.25,0.75.52,1.49,0.73,2.24,0.41,1.47,0,2.14-1.45,2.51-0.84.21-1.69,0.37-2.54,0.56A2.12,2.12,0,0,0,36,32.14c-0.21.87-.35,1.75-0.57,2.62-0.36,1.4-1,1.78-2.4,1.39-0.83-.23-1.65-0.54-2.48-0.79a2.12,2.12,0,0,0-2.35.69C27.6,36.7,27,37.37,26.43,38c-1.05,1-1.9,1-2.95,0-0.57-.58-1.09-1.21-1.62-1.83a2.2,2.2,0,0,0-2.56-.7c-0.7.23-1.38,0.49-2.08,0.7-1.59.48-2.28,0.09-2.68-1.51-0.2-.81-0.33-1.65-0.53-2.46a2.12,2.12,0,0,0-1.69-1.67c-0.82-.18-1.65-0.34-2.46-0.54-1.57-.39-2-1.05-1.5-2.61,0.19-.68.45-1.34,0.65-2C9.11,24.94,9.17,24.56,9.3,24ZM25,32.59A13.44,13.44,0,1,0,11.57,19.22,13.46,13.46,0,0,0,25,32.59Z" transform="translate(-5.74)"/><path class="cls-1" d="M10.79,44.78a28,28,0,0,0,4.53-6.39,0.83,0.83,0,0,1,.49-0.34c1.23-.3,2.48-0.52,3.68-0.88a1,1,0,0,1,1.25.35,27.58,27.58,0,0,0,2.46,2.34,6.85,6.85,0,0,0,1.58.7l-4.69,9.26-0.26,0c-0.65-1.32-1.37-2.62-1.93-4A1.11,1.11,0,0,0,16.32,45,9.73,9.73,0,0,1,10.79,44.78Z" transform="translate(-5.74)"/><path class="cls-1" d="M25.31,40.45a6.41,6.41,0,0,0,3.82-2.81,1.2,1.2,0,0,1,1.53-.43c1.18,0.36,2.4.55,3.6,0.85a0.92,0.92,0,0,1,.54.38,28.26,28.26,0,0,0,4.33,6.16,0.6,0.6,0,0,1,0,.22,8.19,8.19,0,0,1-4.12.44,9.36,9.36,0,0,1-1.67-.32,0.72,0.72,0,0,0-1,.49c-0.55,1.21-1.14,2.4-1.72,3.59-0.12.26-.26,0.51-0.49,1Z" transform="translate(-5.74)"/><path class="cls-1" d="M36.45,19.17A11.45,11.45,0,1,1,25.1,7.71,11.43,11.43,0,0,1,36.45,19.17Zm-20-2-0.06.25c1.56,1.12,3.11,2.24,4.68,3.34a0.69,0.69,0,0,1,.31.94c-0.55,1.61-1.06,3.24-1.58,4.87-0.07.23-.12,0.48-0.19,0.78a1.35,1.35,0,0,0,.28-0.08l3.31-2.35c1.8-1.28,1.8-1.28,3.63,0l3.58,2.55c-0.1-.43-0.14-0.66-0.21-0.89-0.5-1.55-1-3.1-1.51-4.63a1,1,0,0,1,.4-1.34c1.37-.93,2.68-1.94,4-2.92,0.15-.11.28-0.26,0.58-0.54-2.08,0-3.94,0-5.81,0a0.9,0.9,0,0,1-1-.74c-0.49-1.63-1-3.25-1.56-4.87-0.06-.18-0.16-0.35-0.31-0.7-0.43,1.34-.8,2.5-1.18,3.65-0.28.85-.35,2-0.94,2.43s-1.76.2-2.67,0.22C18.93,17.2,17.7,17.18,16.46,17.18Z" transform="translate(-5.74)"/></svg>