<svg id="Layer_5" data-name="Layer 5" xmlns="http://www.w3.org/2000/svg" width="50" height="49.91" viewBox="0 0 50 49.91"><defs><style>.cls-1{fill:#343434;}</style></defs><title>bookings</title><path class="cls-1" d="M50,6.12a1.18,1.18,0,0,0-1.18-1.18H40.69V1.22A1.18,1.18,0,0,0,39.51,0h-6a1.18,1.18,0,0,0-1.18,1.18V4.94H17.63V1.22A1.18,1.18,0,0,0,16.45,0h-6A1.18,1.18,0,0,0,9.31,1.22V4.94H1.18A1.18,1.18,0,0,0,0,6.12V48.78A1.18,1.18,0,0,0,1.18,50H48.82A1.18,1.18,0,0,0,50,48.78V6.12ZM34.73,2.4h3.6V9.83h-3.6V2.4Zm-23.06,0h3.6V9.83h-3.6V2.4ZM2.36,7.29h7V11a1.18,1.18,0,0,0,1.18,1.18h6A1.18,1.18,0,0,0,17.63,11V7.29H32.37V11a1.18,1.18,0,0,0,1.18,1.18h6A1.18,1.18,0,0,0,40.69,11V7.29h7v7.2H2.36V7.29ZM47.64,47.6H2.36V16.85H47.64V47.6Z" transform="translate(0 -0.04)"/><path class="cls-1" d="M8.25,42.88h6.21a1.18,1.18,0,0,0,1.18-1.18V35.49a1.18,1.18,0,0,0-1.18-1.18H8.25a1.18,1.18,0,0,0-1.18,1.18V41.7A1.18,1.18,0,0,0,8.25,42.88Zm1.18-6.21h3.86v3.86H9.43V36.67Z" transform="translate(0 -0.04)"/><path class="cls-1" d="M21.89,30.14h6.21A1.18,1.18,0,0,0,29.29,29V22.75a1.18,1.18,0,0,0-1.18-1.18H21.89a1.18,1.18,0,0,0-1.18,1.18V29A1.18,1.18,0,0,0,21.89,30.14Zm1.18-6.21h3.86v3.86H23.07V23.93Z" transform="translate(0 -0.04)"/><path class="cls-1" d="M21.89,42.88h6.21a1.18,1.18,0,0,0,1.18-1.18V35.49a1.18,1.18,0,0,0-1.18-1.18H21.89a1.18,1.18,0,0,0-1.18,1.18V41.7A1.18,1.18,0,0,0,21.89,42.88Zm1.18-6.21h3.86v3.86H23.07V36.67Z" transform="translate(0 -0.04)"/><path class="cls-1" d="M35.53,30.14h6.21A1.18,1.18,0,0,0,42.93,29V22.75a1.18,1.18,0,0,0-1.18-1.18H35.53a1.18,1.18,0,0,0-1.18,1.18V29A1.18,1.18,0,0,0,35.53,30.14Zm1.18-6.21h3.86v3.86H36.71V23.93Z" transform="translate(0 -0.04)"/><path class="cls-1" d="M35.53,42.88h6.21a1.18,1.18,0,0,0,1.18-1.18V35.49a1.18,1.18,0,0,0-1.18-1.18H35.53a1.18,1.18,0,0,0-1.18,1.18V41.7A1.18,1.18,0,0,0,35.53,42.88Zm1.18-6.21h3.86v3.86H36.71V36.67Z" transform="translate(0 -0.04)"/></svg>