<svg id="Layer_6" data-name="Layer 6" xmlns="http://www.w3.org/2000/svg" width="48.27" height="50" viewBox="0 0 48.27 50"><defs><style>.cls-1{fill:#343434;}</style></defs><title>bucket list</title><path class="cls-1" d="M43.2,14.74l-3.76,1.4,0.3,0.49a92.86,92.86,0,0,1,7.49,13.77,20.14,20.14,0,0,1,1.89,7,7.65,7.65,0,0,1-.33,2.88,4.19,4.19,0,0,1-6.11,2.24A25.66,25.66,0,0,1,40.41,41a16.33,16.33,0,0,0-.47,2.23,3.74,3.74,0,0,1-1.88,2.81,20.55,20.55,0,0,1-7.66,3.26,26.09,26.09,0,0,1-15.72-1.26,16,16,0,0,1-4.23-2.46,3.21,3.21,0,0,1-1.18-1.89Q5.89,28.15,2.47,12.59A1.41,1.41,0,0,0,2.16,12c-2-2.32-1.5-4.66.45-6.52A15.74,15.74,0,0,1,8.69,2.14a46.58,46.58,0,0,1,12.07-2A66.63,66.63,0,0,1,32.39.45a32.58,32.58,0,0,1,11,2.91,11.06,11.06,0,0,1,3.71,2.74A4.2,4.2,0,0,1,47,11.92a2.46,2.46,0,0,0-.51,1c-0.45,2-.87,3.93-1.28,5.9a1.54,1.54,0,0,1-1.06,1.34,1.41,1.41,0,0,1-1.77-1.72c0.24-1.15.5-2.29,0.76-3.44C43.17,14.93,43.18,14.84,43.2,14.74Zm-37.33-.1c0,0.22,0,.38.08,0.53Q9,29,12,42.87a1.25,1.25,0,0,0,.4.64,14.14,14.14,0,0,0,4.47,2.34,22.86,22.86,0,0,0,15.34,0,14,14,0,0,0,4.38-2.28,1.49,1.49,0,0,0,.47-0.77c1-4.31,1.88-8.62,2.84-12.93a2.42,2.42,0,0,1,.49-1A1.3,1.3,0,0,1,42,28.6a1.47,1.47,0,0,1,.69,1.74c-0.42,1.93-.77,3.88-1.3,5.78a2.21,2.21,0,0,0,.6,2.33,5.07,5.07,0,0,0,2.43,1.74,1.17,1.17,0,0,0,1.61-.82,6.13,6.13,0,0,0,.17-2.2,22.8,22.8,0,0,0-2-6.47,88.68,88.68,0,0,0-7.46-13.37,0.83,0.83,0,0,0-1-.42,50.16,50.16,0,0,1-8.75.93,66.81,66.81,0,0,1-10.77-.43,37.08,37.08,0,0,1-8.81-2.09C7,15.13,6.44,14.89,5.87,14.65ZM24.67,2.82c-1.33.05-2.67,0.1-4,.17A43,43,0,0,0,9.5,4.92,14.84,14.84,0,0,0,5.13,7c-1.86,1.39-1.86,2.72.08,4a18.16,18.16,0,0,0,3.22,1.64,37.89,37.89,0,0,0,10.19,2.19A58.66,58.66,0,0,0,35.79,14a25.57,25.57,0,0,0,6.59-2.11,7,7,0,0,0,2.69-2.05,1.3,1.3,0,0,0,0-1.68,6.79,6.79,0,0,0-1.38-1.3,17.72,17.72,0,0,0-5.58-2.36A52.69,52.69,0,0,0,24.67,2.82Z" transform="translate(-0.87 0)"/><path class="cls-1" d="M27.38,26.47c-0.83-.06-1.67-0.11-2.5-0.19a1.42,1.42,0,1,1,.32-2.79,16,16,0,0,0,7.65-.89c0.2-.08.4-0.16,0.6-0.22a1.43,1.43,0,0,1,1.83.84A1.4,1.4,0,0,1,34.45,25,18.38,18.38,0,0,1,27.38,26.47Z" transform="translate(-0.87 0)"/><path class="cls-1" d="M27.18,33.73c-0.86-.08-1.68-0.14-2.49-0.25a1.38,1.38,0,0,1-1.23-1.58,1.41,1.41,0,0,1,1.62-1.2,14.16,14.16,0,0,0,7.22-.86,6.17,6.17,0,0,1,.76-0.26,1.41,1.41,0,0,1,1.68.88A1.35,1.35,0,0,1,34,32.24a42.19,42.19,0,0,1-4.08,1.19A21.54,21.54,0,0,1,27.18,33.73Z" transform="translate(-0.87 0)"/><path class="cls-1" d="M15.45,31.71c1.13-1,2.22-2,3.33-2.91a1.42,1.42,0,0,1,2.35.66,1.35,1.35,0,0,1-.46,1.45q-2.25,2-4.54,4a1.35,1.35,0,0,1-2-.17c-0.64-.78-1.25-1.6-1.82-2.43a1.36,1.36,0,0,1,.34-1.86,1.38,1.38,0,0,1,1.84.12C14.83,30.89,15.11,31.28,15.45,31.71Z" transform="translate(-0.87 0)"/><path class="cls-1" d="M14.88,23.78l3.33-2.91a1.37,1.37,0,0,1,2,0,1.39,1.39,0,0,1-.07,2q-2.28,2-4.63,4a1.31,1.31,0,0,1-1.91-.19c-0.65-.8-1.27-1.62-1.86-2.47a1.37,1.37,0,0,1,.36-1.85,1.34,1.34,0,0,1,1.87.19C14.28,23,14.55,23.36,14.88,23.78Z" transform="translate(-0.87 0)"/><path class="cls-1" d="M16.58,39.11c1.1-1,2.17-1.89,3.24-2.83a1.46,1.46,0,0,1,1.47-.41,1.41,1.41,0,0,1,.46,2.5c-1.19,1.07-2.41,2.11-3.61,3.17-0.27.23-.53,0.48-0.81,0.7a1.4,1.4,0,0,1-2.08-.18c-0.61-.76-1.2-1.55-1.76-2.35A1.4,1.4,0,0,1,15.74,38C16,38.37,16.28,38.73,16.58,39.11Z" transform="translate(-0.87 0)"/><path class="cls-1" d="M26.81,41.41c-0.68-.07-1.46-0.13-2.23-0.25a1.38,1.38,0,0,1-1.11-1.58A1.4,1.4,0,0,1,25,38.4a13.28,13.28,0,0,0,7-.93,2.58,2.58,0,0,1,1-.2,1.34,1.34,0,0,1,1.25,1.13,1.4,1.4,0,0,1-.79,1.54,16,16,0,0,1-4.76,1.32C28.09,41.33,27.5,41.36,26.81,41.41Z" transform="translate(-0.87 0)"/></svg>