<svg id="Layer_2" data-name="Layer 2" xmlns="http://www.w3.org/2000/svg" xmlns:xlink="http://www.w3.org/1999/xlink" width="45.88" height="50" viewBox="0 0 45.88 50"><defs><style>.cls-1,.cls-2,.cls-3{fill-rule:evenodd;}.cls-1{fill:url(#linear-gradient);}.cls-2{fill:url(#linear-gradient-2);}.cls-3{fill:url(#linear-gradient-3);}.cls-4{fill:url(#linear-gradient-4);}</style><linearGradient id="linear-gradient" x1="18.32" y1="12.12" x2="27.56" y2="12.12" gradientUnits="userSpaceOnUse"><stop offset="0.28" stop-color="#00b3de"/><stop offset="1" stop-color="#0084a3"/></linearGradient><linearGradient id="linear-gradient-2" x1="21.07" y1="22.31" x2="37.65" y2="22.31" xlink:href="#linear-gradient"/><linearGradient id="linear-gradient-3" x1="12.3" y1="31.14" x2="28.92" y2="31.14" xlink:href="#linear-gradient"/><linearGradient id="linear-gradient-4" x1="2.06" y1="25" x2="47.94" y2="25" xlink:href="#linear-gradient"/></defs><title>Explore</title><g id="_Group_" data-name="&lt;Group&gt;"><polygon id="_Path_" data-name="&lt;Path&gt;" class="cls-1" points="18.32 6.55 22.91 17.7 27.56 6.55 18.32 6.55"/><g id="_Group_2" data-name="&lt;Group&gt;"><path id="_Path_2" data-name="&lt;Path&gt;" class="cls-2" d="M21.07,21.95l1.88,1.89a3.48,3.48,0,0,1,2-.65,3.54,3.54,0,0,1,2.87,5.58l1.9,1.91,7.91-16.74Z" transform="translate(-2.06)"/><path id="_Path_3" data-name="&lt;Path&gt;" class="cls-3" d="M27,29.6a3.48,3.48,0,0,1-2,.66,3.54,3.54,0,0,1-2.85-5.6l-1.87-1.89L12.3,39.51l16.62-8Z" transform="translate(-2.06)"/></g><path id="_Compound_Path_" data-name="&lt;Compound Path&gt;" class="cls-4" d="M47.94,26.92A23.17,23.17,0,0,0,29.83,4.28a5.18,5.18,0,0,0,.49-2.34v0A1.66,1.66,0,0,0,28.91.29,26.6,26.6,0,0,0,21,.3a1.66,1.66,0,0,0-1.41,1.62h0a5.22,5.22,0,0,0,.56,2.34A23.37,23.37,0,0,0,8.75,10.59a23.26,23.26,0,0,0,0,32.66,22.94,22.94,0,0,0,32.49,0A23.35,23.35,0,0,0,47.94,26.92ZM25,46.38A19.52,19.52,0,0,1,11.29,40.7a19.64,19.64,0,0,1,0-27.55,19.19,19.19,0,0,1,12-5.61A7,7,0,0,0,25,7.83a6,6,0,0,0,1.69-.28,18.85,18.85,0,0,1,12,5.61A19.45,19.45,0,0,1,25,46.38Z" transform="translate(-2.06)"/></g></svg>