<svg id="Layer_1" data-name="Layer 1" xmlns="http://www.w3.org/2000/svg" width="26.3" height="26.3" viewBox="0 0 26.3 26.3"><defs><style>.cls-1{fill:none;stroke:#fff;stroke-miterlimit:10;stroke-width:1.9px;}.cls-2{fill:#fff;}</style></defs><title>Explore white</title><g id="Layer_1-2" data-name="Layer 1"><circle class="cls-1" cx="13.15" cy="13.15" r="12.2"/><path class="cls-2" d="M20.5,6.5a1.47,1.47,0,0,1-.2.4c-1.5,2.8-3,5.6-4.5,8.3a2.34,2.34,0,0,1-.7.7c-2.8,1.5-5.5,3-8.3,4.5a0.91,0.91,0,0,1-1.2-.1,0.9,0.9,0,0,1,0-1.1c1.5-2.8,3-5.6,4.5-8.3a4.35,4.35,0,0,1,.6-0.7c2.8-1.5,5.6-3,8.3-4.5a0.79,0.79,0,0,1,1.1.1A0.74,0.74,0,0,1,20.5,6.5Zm-9.3,6L8.3,17.8l0.1,0.1L13.7,15Zm6.5-4-0.1-.1-5.2,2.8,2.5,2.5Z" transform="translate(-0.05 -0.05)"/><path class="cls-2" d="M12.8,0.9h0.7a0.68,0.68,0,0,1,.7.7V3.3a0.68,0.68,0,0,1-.7.7H12.8a0.68,0.68,0,0,1-.7-0.7V1.6A0.68,0.68,0,0,1,12.8.9Z" transform="translate(-0.05 -0.05)"/><path class="cls-2" d="M12.8,22.6h0.7a0.68,0.68,0,0,1,.7.7V25a0.68,0.68,0,0,1-.7.7H12.8a0.68,0.68,0,0,1-.7-0.7V23.3A0.68,0.68,0,0,1,12.8,22.6Z" transform="translate(-0.05 -0.05)"/><path class="cls-2" d="M25.5,12.8v0.7a0.68,0.68,0,0,1-.7.7H23.1a0.68,0.68,0,0,1-.7-0.7V12.8a0.68,0.68,0,0,1,.7-0.7h1.7A0.68,0.68,0,0,1,25.5,12.8Z" transform="translate(-0.05 -0.05)"/><path class="cls-2" d="M3.8,12.8v0.7a0.68,0.68,0,0,1-.7.7H1.5a0.68,0.68,0,0,1-.7-0.7V12.8a0.68,0.68,0,0,1,.7-0.7H3.2A0.67,0.67,0,0,1,3.8,12.8Z" transform="translate(-0.05 -0.05)"/></g></svg>