<svg id="Layer_8" data-name="Layer 8" xmlns="http://www.w3.org/2000/svg" width="50" height="48.68" viewBox="0 0 50 48.68"><defs><style>.cls-1{fill:#343434;}.cls-1,.cls-2{fill-rule:evenodd;}.cls-2{fill:#fff;}</style></defs><title>Reels</title><path class="cls-1" d="M4.5,19.86H47.72A2.28,2.28,0,0,1,50,22.15v5.19H2.22V22.15A2.28,2.28,0,0,1,4.5,19.86h0ZM1.24,12.39L44.83,0.71a1.68,1.68,0,0,1,2,1.18l1,3.63a1.68,1.68,0,0,1-1.18,2L3.08,19.25a1.67,1.67,0,0,1-2-1.18l-1-3.63a1.67,1.67,0,0,1,1.18-2h0Zm4.65,0.32,1.67-.44a0.55,0.55,0,0,1,.65.13l0.91,3.38a0.54,0.54,0,0,1-.51.44l-1.67.46a0.52,0.52,0,0,1-.65-0.15L5.38,13.15a0.53,0.53,0,0,1,.51-0.44h0Zm33.38-9L41,3.31a0.55,0.55,0,0,1,.65.13l0.91,3.38a0.57,0.57,0,0,1-.51.46l-1.67.44a0.52,0.52,0,0,1-.65-0.15L38.79,4.2a0.53,0.53,0,0,1,.49-0.44h0ZM32.6,5.55l1.67-.44a0.55,0.55,0,0,1,.68.13l0.89,3.38a0.51,0.51,0,0,1-.49.44l-1.69.46A0.52,0.52,0,0,1,33,9.37L32.09,6a0.54,0.54,0,0,1,.51-0.44h0ZM25.93,7.34l1.67-.46a0.53,0.53,0,0,1,.65.15l0.91,3.38a0.54,0.54,0,0,1-.51.44L27,11.29a0.53,0.53,0,0,1-.65-0.13L25.42,7.79a0.54,0.54,0,0,1,.51-0.44h0ZM19.23,9.12l1.69-.44a0.52,0.52,0,0,1,.65.15l0.91,3.38a0.56,0.56,0,0,1-.51.44l-1.67.44A0.58,0.58,0,0,1,19.64,13L18.75,9.58a0.54,0.54,0,0,1,.49-0.46h0Zm-6.67,1.79,1.67-.44a0.55,0.55,0,0,1,.65.13L15.79,14a0.53,0.53,0,0,1-.49.44l-1.69.44A0.55,0.55,0,0,1,13,14.75l-0.91-3.4a0.56,0.56,0,0,1,.51-0.44h0ZM50,29.18V47.06a2.28,2.28,0,0,1-2.28,2.28H4.5a2.28,2.28,0,0,1-2.28-2.28V29.18H50ZM8,21.53H9.69a0.53,0.53,0,0,1,.59.3v3.51a0.53,0.53,0,0,1-.59.3H8a0.54,0.54,0,0,1-.61-0.3V21.83A0.55,0.55,0,0,1,8,21.53H8Zm34.57,0h1.73a0.55,0.55,0,0,1,.61.3v3.51a0.55,0.55,0,0,1-.61.3H42.53a0.53,0.53,0,0,1-.59-0.3V21.83a0.53,0.53,0,0,1,.59-0.3h0Zm-6.91,0h1.73a0.51,0.51,0,0,1,.59.3v3.51a0.51,0.51,0,0,1-.59.3H35.62a0.54,0.54,0,0,1-.61-0.3V21.83a0.55,0.55,0,0,1,.61-0.3h0Zm-6.93,0h1.73a0.54,0.54,0,0,1,.61.3v3.51a0.54,0.54,0,0,1-.61.3H28.69a0.53,0.53,0,0,1-.59-0.3V21.83a0.53,0.53,0,0,1,.59-0.3h0Zm-6.9,0h1.73a0.53,0.53,0,0,1,.59.3v3.51a0.53,0.53,0,0,1-.59.3H21.79a0.54,0.54,0,0,1-.61-0.3V21.83a0.55,0.55,0,0,1,.61-0.3h0Zm-6.93,0H16.6a0.55,0.55,0,0,1,.61.3v3.51a0.55,0.55,0,0,1-.61.3H14.86a0.51,0.51,0,0,1-.59-0.3V21.83a0.51,0.51,0,0,1,.59-0.3h0Z" transform="translate(0 -0.66)"/><polygon class="cls-2" points="22 32.68 22 44 33.5 38.47 22 32.68"/></svg>