<svg id="Layer_1" data-name="Layer 1" xmlns="http://www.w3.org/2000/svg" width="26.05" height="26.15" viewBox="0 0 26.05 26.15"><defs><style>.cls-1{fill:none;}.cls-2{fill:#fff;}</style></defs><title>Search white</title><g id="Layer_2" data-name="Layer 2"><path class="cls-1" d="M10.6,3.1a7.2,7.2,0,1,0,7.2,7.2A7.17,7.17,0,0,0,10.6,3.1Zm-3.4,10A0.37,0.37,0,0,1,6.9,13a0.62,0.62,0,0,1-.1-0.7l5.1-6.4a0.62,0.62,0,0,1,.7-0.1,0.62,0.62,0,0,1,.1.7L7.6,12.9A0.76,0.76,0,0,1,7.2,13.1Zm7.5-4.5L9.7,15a0.52,0.52,0,0,1-.4.2A0.37,0.37,0,0,1,9,15.1a0.62,0.62,0,0,1-.1-0.7L14,8a0.62,0.62,0,0,1,.7-0.1A0.48,0.48,0,0,1,14.7,8.6Z" transform="translate(-0.2 -0.1)"/><path class="cls-2" d="M25.3,22.7l-0.1-.1-2.6,2.6,0.1,0.1L23.4,26c0.4,0.5,1.4.2,2.1-.5s1-1.7.5-2.1l-0.7-.7h0Z" transform="translate(-0.2 -0.1)"/><path class="cls-2" d="M10.5,0.1a10.3,10.3,0,0,0,0,20.6A10.07,10.07,0,0,0,16.2,19l5.7,5.6L24.5,22l-5.7-5.6a10.21,10.21,0,0,0,1.9-6A10.2,10.2,0,0,0,10.5.1Zm0.1,17.5a7.2,7.2,0,1,1,7.2-7.2A7.17,7.17,0,0,1,10.6,17.6Z" transform="translate(-0.2 -0.1)"/><path class="cls-2" d="M11.8,5.9L6.7,12.3a0.49,0.49,0,0,0,.1.7,2.27,2.27,0,0,1,.4.1,0.76,0.76,0,0,0,.4-0.2l5.1-6.4a0.49,0.49,0,0,0-.1-0.7A0.75,0.75,0,0,0,11.8,5.9Z" transform="translate(-0.2 -0.1)"/><path class="cls-2" d="M14,8L8.9,14.4a0.49,0.49,0,0,0,.1.7,0.37,0.37,0,0,0,.3.1A0.76,0.76,0,0,0,9.7,15l5.1-6.4a0.49,0.49,0,0,0-.1-0.7A0.56,0.56,0,0,0,14,8Z" transform="translate(-0.2 -0.1)"/></g></svg>