<svg id="Layer_4" data-name="Layer 4" xmlns="http://www.w3.org/2000/svg" width="43.49" height="50" viewBox="0 0 43.49 50"><defs><style>.cls-1{fill:#343434;}</style></defs><title>user profile</title><path class="cls-1" d="M25,21.32A10.66,10.66,0,1,0,14.31,10.66,10.67,10.67,0,0,0,25,21.32ZM25,1.87a8.78,8.78,0,1,1-8.79,8.79A8.79,8.79,0,0,1,25,1.87Z" transform="translate(-3.25)"/><path class="cls-1" d="M39.29,38.77h-6a0.94,0.94,0,0,0-.94.94v2.67a0.94,0.94,0,0,0,.94.94h6a0.94,0.94,0,0,0,.94-0.94V39.71A0.94,0.94,0,0,0,39.29,38.77Zm-0.94,1.87v0.8H34.22v-0.8h4.14Z" transform="translate(-3.25)"/><path class="cls-1" d="M35.89,25.33c-6.75-4.11-13.34-4.42-20.06-1a0.93,0.93,0,0,0-.3.12l-0.1.08c-0.44.24-.88,0.49-1.32,0.76C9.05,28.41,3.25,33.88,3.25,49.06a0.94,0.94,0,1,0,1.87,0c0-14.25,5.32-19.31,10-22.13l0.66-.38,3.4,5.27-1.08.76a0.94,0.94,0,0,0-.37,1l3.21,14.2a0.94,0.94,0,0,0,.91.73l0.21,0a0.94,0.94,0,0,0,.71-1.12L19.66,33.76l1.3-.92a0.94,0.94,0,0,0,.24-1.27l-3.79-5.88a18.07,18.07,0,0,1,6.65-1.76V41.4a0.94,0.94,0,1,0,1.87,0V23.93a18,18,0,0,1,6.61,1.74l-3.81,5.9A0.94,0.94,0,0,0,29,32.84l1.3,0.92L27.21,47.35a0.94,0.94,0,0,0,.71,1.12l0.21,0A0.94,0.94,0,0,0,29,47.76l3.21-14.2a0.94,0.94,0,0,0-.37-1l-1.08-.76,3.42-5.3,0.7,0.4c4.63,2.82,10,7.88,10,22.13a0.94,0.94,0,1,0,1.87,0C46.75,33.88,40.95,28.41,35.89,25.33Z" transform="translate(-3.25)"/></svg>