<svg id="Layer_2" data-name="Layer 2" xmlns="http://www.w3.org/2000/svg" width="26.32" height="26.32" viewBox="0 0 26.32 26.32"><defs><style>.cls-1{fill:#fff;}.cls-2{fill:none;stroke:#fff;stroke-miterlimit:10;stroke-width:1.9px;}</style></defs><title>User white</title><path class="cls-1" d="M25.09,7.8a10.06,10.06,0,0,1,1.12,3.92,13.08,13.08,0,0,1-8.89,13.86,1.59,1.59,0,0,0-.35.08l0.29-1.19,0.44-.22A11.61,11.61,0,0,0,22.23,21l-2.7-1.21,0.33-1,3,1.33a11.92,11.92,0,0,0,2.26-6.22,12.61,12.61,0,0,0-.82-5.31,4,4,0,0,1,.31-0.41C24.78,8.08,24.94,7.94,25.09,7.8Z" transform="translate(0 0)"/><path class="cls-1" d="M0.18,15A13,13,0,0,1,.8,8.84a1.19,1.19,0,0,0,.47-1.13A12.53,12.53,0,0,1,5.41,2.57C5.61,2.42,5.84,2.3,6,2.16a2,2,0,0,1,0,.47C6,3,5.87,3.29,5.77,3.63A13,13,0,0,0,2.3,8a12.42,12.42,0,0,0-1.13,6c-0.17.21-.32,0.43-0.5,0.62A5,5,0,0,1,.18,15Z" transform="translate(0 0)"/><path class="cls-1" d="M4.25,22.7a10.91,10.91,0,0,1-2.57-3.29L2,19l0.4-.51,1,1.7,1.87-.85-0.4,1.33-0.71.41,0.49,0.59Z" transform="translate(0 0)"/><path class="cls-1" d="M5.8,3.62c0.09-.33.2-0.66,0.28-1a2,2,0,0,0,0-.47A11.37,11.37,0,0,1,9.93.41c0.36-.09.73-0.14,1.09-0.2l-0.3,1.13-0.49.14A12.38,12.38,0,0,0,5.8,3.62Z" transform="translate(0 0)"/><path class="cls-1" d="M2.41,18.47L2,19l-0.35.44a11.9,11.9,0,0,1-1.4-3.82A4.28,4.28,0,0,0,.18,15a5,5,0,0,0,.49-0.4A7.52,7.52,0,0,0,1.17,14a4.68,4.68,0,0,0,0,.86A15.94,15.94,0,0,0,2.41,18.47Z" transform="translate(0 0)"/><path class="cls-1" d="M14.3,26.18a10.4,10.4,0,0,1-4.2-.32l0.32-1,1.73,0.24h2.36Z" transform="translate(0 0)"/><path class="cls-1" d="M25.09,7.8c-0.14.14-.3,0.27-0.43,0.42s-0.2.27-.31,0.41L22.47,5.56l-0.06-.15,0.43-1a0.46,0.46,0,0,1,.18.07A10.45,10.45,0,0,1,25.09,7.8Z" transform="translate(0 0)"/><path class="cls-1" d="M10.41,24.86l-0.32,1a9.92,9.92,0,0,1-3.38-1.34l0.42-1,1.23,0.59Z" transform="translate(0 0)"/><path class="cls-1" d="M7.14,23.56l-0.42,1L4.25,22.7l0.42-1.06Z" transform="translate(0 0)"/><path class="cls-1" d="M16,0.41a7.71,7.71,0,0,1,3,1l-0.45,1-2.87-1Z" transform="translate(0 0)"/><path class="cls-1" d="M10.72,1.34L11,0.23,13.9,0,13.69,1.11Z" transform="translate(0 0)"/><path class="cls-1" d="M14.3,26.18l0.2-1,2.75-.66L17,25.71Z" transform="translate(0 0)"/><path class="cls-1" d="M22.82,4.41l-0.41,1-0.6-.58-0.32-.32-0.94-.88L21,2.69C21.5,3.13,22,3.56,22.56,4A1.7,1.7,0,0,1,22.82,4.41Z" transform="translate(0 0)"/><path class="cls-1" d="M21,2.68l-0.42.94L18.6,2.41l0.44-1Z" transform="translate(0 0)"/><path class="cls-1" d="M13.69,1.11l0.2-1.06L16,0.41l-0.31.94Z" transform="translate(0 0)"/><path class="cls-1" d="M1.27,7.71A1.19,1.19,0,0,1,.8,8.84Z" transform="translate(0 0)"/><path class="cls-1" d="M19.52,19.82L19,19.7,16.41,19l0.31-1,3.09,0.88Z" transform="translate(0 0)"/><path class="cls-1" d="M8.77,19.19L4.88,20.65l0.4-1.33L9.16,18Z" transform="translate(0 0)"/><path class="cls-1" d="M17.69,5.15a6.34,6.34,0,0,1,2,4.77v0.77A7.21,7.21,0,0,1,18,14.41a6.64,6.64,0,0,1-5.2,2,4,4,0,0,1-.5-0.09l0.41-1,2-.23a10.22,10.22,0,0,0,1.08-.43A5.39,5.39,0,0,0,18.2,7.81L17,5.9Z" transform="translate(0 0)"/><path class="cls-1" d="M13.17,17.55l3.38,0.29,0.21,0.1-0.31,1-0.82-.11-2.77-.27Z" transform="translate(0 0)"/><path class="cls-1" d="M7.62,13.28a6.24,6.24,0,0,1-.21-6.56,6.36,6.36,0,0,1,4.44-3.31,2.51,2.51,0,0,1,.41,0,2.68,2.68,0,0,0-.19.52,2.49,2.49,0,0,0,0,.54,14.12,14.12,0,0,0-1.5.6,5.36,5.36,0,0,0-2.42,6.84l0.08,0.31Z" transform="translate(0 0)"/><path class="cls-1" d="M12.87,18.58h-0.1l-2,.2-1.95.37L9.22,18a13.63,13.63,0,0,1,4-.47Z" transform="translate(0 0)"/><path class="cls-1" d="M7.62,13.28l0.61-1.06a5.56,5.56,0,0,0,2,2.26,1,1,0,0,0-.42,1A5.34,5.34,0,0,1,7.62,13.28Z" transform="translate(0 0)"/><path class="cls-1" d="M12.1,4.46a2.49,2.49,0,0,1,0-.54,2.68,2.68,0,0,1,.15-0.51,5.62,5.62,0,0,1,3,.27l-0.36,1L13,4.41Z" transform="translate(0 0)"/><path class="cls-1" d="M14.91,4.65l0.36-1a5.36,5.36,0,0,1,2.41,1.46L17,5.87,16.15,5.3Z" transform="translate(0 0)"/><path class="cls-1" d="M9.78,15.41a1,1,0,0,1,.42-1L11.41,15l1.24,0.31-0.41,1A5.1,5.1,0,0,1,9.78,15.41Z" transform="translate(0 0)"/><circle class="cls-2" cx="13.16" cy="13.16" r="12.21"/></svg>