<svg id="Layer_3" data-name="Layer 3" xmlns="http://www.w3.org/2000/svg" width="50" height="47.56" viewBox="0 0 50 47.56"><defs><style>.cls-1{fill:#343434;}</style></defs><title>wallet</title><path class="cls-1" d="M46.1,48.78H3.9A3.9,3.9,0,0,1,0,44.88V16.37a3.9,3.9,0,0,1,3.9-3.9H46.1a3.9,3.9,0,0,1,3.9,3.9V44.88A3.9,3.9,0,0,1,46.1,48.78ZM3.9,14.27a2.1,2.1,0,0,0-2.1,2.1V44.88A2.1,2.1,0,0,0,3.9,47H46.1a2.1,2.1,0,0,0,2.1-2.1V16.37a2.1,2.1,0,0,0-2.1-2.1H3.9Z" transform="translate(0 -1.22)"/><path class="cls-1" d="M49.1,37.78H39.68a7.16,7.16,0,0,1,0-14.32H49.1a0.9,0.9,0,0,1,.9.9V36.88A0.9,0.9,0,0,1,49.1,37.78ZM39.68,25.26a5.36,5.36,0,0,0,0,10.72H48.2V25.26H39.68Z" transform="translate(0 -1.22)"/><path class="cls-1" d="M40.24,34.51a3.88,3.88,0,1,1,3.88-3.88A3.89,3.89,0,0,1,40.24,34.51Zm0-6a2.08,2.08,0,1,0,2.08,2.08A2.09,2.09,0,0,0,40.24,28.54Z" transform="translate(0 -1.22)"/><path class="cls-1" d="M40.44,14.27H6.92a0.9,0.9,0,0,1-.39-1.71L29.1,1.81A6.15,6.15,0,0,1,37.28,4.7l4,8.27A0.9,0.9,0,0,1,40.44,14.27ZM10.9,12.47H39l-3.35-7a4.35,4.35,0,0,0-5.78-2Z" transform="translate(0 -1.22)"/><path class="cls-1" d="M35.24,14.27H16.55a0.9,0.9,0,0,1-.36-1.72L29.26,6.79a3.44,3.44,0,0,1,4.45,1.59L36,13A0.9,0.9,0,0,1,35.24,14.27Zm-14.41-1.8H33.77L32.1,9.19A1.63,1.63,0,0,0,30,8.44Z" transform="translate(0 -1.22)"/></svg>