<svg xmlns="http://www.w3.org/2000/svg" viewBox="0 0 800 203"><defs><style>.cls-1{isolation:isolate;}.cls-2{fill:#fff;}.cls-3{font-size:44px;fill:#111;font-family:Segoe UI;font-weight:700;font-style:italic;}.cls-4{fill:#191919;}.cls-5{fill:#a40000;}.cls-6{fill:#303030;}.cls-7{fill:#b7a994;}.cls-39,.cls-8{fill:#b8d1ff;}.cls-9{fill:#cee0ff;}.cls-10{fill:#d1c6c6;mix-blend-mode:soft-light;}.cls-11{fill:#ffbd95;}.cls-12{fill:#ffa47c;}.cls-13{fill:#8d3b26;}.cls-14{fill:#0b0b0b;}.cls-15{fill:#434343;}.cls-16{fill:#050505;}.cls-17{fill:#d66001;}.cls-18{fill:#ff8101;}.cls-19{fill:#000f22;}.cls-20{fill:#00233f;}.cls-21{fill:#22272c;}.cls-22{fill:#dad0bd;}.cls-23{fill:#35519f;}.cls-24{fill:#274579;}.cls-25{fill:#5e5e5e;}.cls-26{fill:#818181;}.cls-27{fill:#a7a7a5;}.cls-28{fill:#c74a01;}.cls-29{fill:#505050;}.cls-30{fill:#004a8d;}.cls-31{fill:#5a5a5a;}.cls-32{fill:#002456;}.cls-33{fill:#c24f01;}.cls-34{fill:#131313;}.cls-35{fill:#aeaeae;}.cls-36{fill:#575757;}.cls-37{fill:#f47901;}.cls-38{fill:#515151;}.cls-39{opacity:0.5;}.cls-40{fill:#bab9b8;}</style></defs><title>Untitled-3</title><g class="cls-1"><g id="Layer_2" data-name="Layer 2"><rect class="cls-2" width="800" height="203"/></g><g id="Layer_1" data-name="Layer 1"><text class="cls-3" transform="translate(45.58 88.61)">Ad<tspan x="57.02" y="0">v</tspan><tspan x="80.05" y="0">entu</tspan><tspan x="172.07" y="0">r</tspan><tspan x="189" y="0">e</tspan><tspan x="10.03" y="52.8">Activities</tspan></text><polygon class="cls-4" points="719.03 159.83 728.71 159.83 733.41 148.34 714.33 148.34 719.03 159.83"/><path class="cls-4" d="M728.6,160.84h-9.54a0.6,0.6,0,1,0,0,1.19h9.54A0.6,0.6,0,1,0,728.6,160.84Z" transform="translate(0 -1)"/><path class="cls-4" d="M715.92,154.4l-0.22.07a0.48,0.48,0,0,0-.32.63l2.09,4.93a0.58,0.58,0,0,0,.71.29l0.22-.08a0.48,0.48,0,0,0,.32-0.63l-2.09-4.93A0.58,0.58,0,0,0,715.92,154.4Z" transform="translate(0 -1)"/><path class="cls-4" d="M732,154.47l-0.22-.07a0.58,0.58,0,0,0-.71.29L729,159.61a0.48,0.48,0,0,0,.32.63l0.22,0.08a0.58,0.58,0,0,0,.71-0.29l2.09-4.93A0.48,0.48,0,0,0,732,154.47Z" transform="translate(0 -1)"/><polygon class="cls-4" points="716.73 141.02 712.97 147.68 734.69 147.68 730.93 141.02 716.73 141.02"/><path class="cls-5" d="M736,160a2.13,2.13,0,0,0,2.07,1.39h4.23a2.13,2.13,0,0,0,2.07-1.39l3.2-10.09H732.76Z" transform="translate(0 -1)"/><path class="cls-5" d="M703.32,160a2.13,2.13,0,0,0,2.07,1.39h4.23A2.13,2.13,0,0,0,711.7,160L714.9,150H700.12Z" transform="translate(0 -1)"/><path class="cls-6" d="M745.64,145.57H702.1c-5.57,0-10.09,4-10.09,9V160h7v-5.53a2.92,2.92,0,0,1,3.07-2.72h43.54a2.92,2.92,0,0,1,3.07,2.72V160h7v-5.53C755.73,149.58,751.2,145.57,745.64,145.57Z" transform="translate(0 -1)"/><path class="cls-7" d="M728.64,162H719.1a0.6,0.6,0,1,0,0,1.19h9.54A0.6,0.6,0,1,0,728.64,162Z" transform="translate(0 -1)"/><path class="cls-7" d="M728.67,163.23h-9.54a0.6,0.6,0,1,0,0,1.19h9.54A0.6,0.6,0,1,0,728.67,163.23Z" transform="translate(0 -1)"/><path class="cls-7" d="M728.71,164.42h-9.54a0.6,0.6,0,1,0,0,1.19h9.54A0.6,0.6,0,1,0,728.71,164.42Z" transform="translate(0 -1)"/><path class="cls-7" d="M728.75,165.61h-9.54a0.6,0.6,0,1,0,0,1.19h9.54A0.6,0.6,0,1,0,728.75,165.61Z" transform="translate(0 -1)"/><path class="cls-7" d="M728.78,166.81h-9.54a0.6,0.6,0,1,0,0,1.19h9.54A0.6,0.6,0,1,0,728.78,166.81Z" transform="translate(0 -1)"/><path class="cls-7" d="M728.82,168h-9.54a0.6,0.6,0,1,0,0,1.19h9.54A0.6,0.6,0,1,0,728.82,168Z" transform="translate(0 -1)"/><path class="cls-7" d="M728.86,169.2h-9.54a0.6,0.6,0,1,0,0,1.19h9.54A0.6,0.6,0,1,0,728.86,169.2Z" transform="translate(0 -1)"/><path class="cls-7" d="M728.89,170.39h-9.54a0.6,0.6,0,1,0,0,1.19h9.54A0.6,0.6,0,1,0,728.89,170.39Z" transform="translate(0 -1)"/><path class="cls-7" d="M728.93,171.58h-9.54a0.6,0.6,0,1,0,0,1.19h9.54A0.6,0.6,0,1,0,728.93,171.58Z" transform="translate(0 -1)"/><path class="cls-7" d="M729,172.78h-9.54a0.6,0.6,0,1,0,0,1.19H729A0.6,0.6,0,1,0,729,172.78Z" transform="translate(0 -1)"/><path class="cls-7" d="M729,174h-9.54a0.6,0.6,0,1,0,0,1.19H729A0.6,0.6,0,1,0,729,174Z" transform="translate(0 -1)"/><path class="cls-7" d="M729,175.16H719.5a0.6,0.6,0,1,0,0,1.19H729A0.6,0.6,0,1,0,729,175.16Z" transform="translate(0 -1)"/><path class="cls-7" d="M729.08,176.36h-9.54a0.6,0.6,0,1,0,0,1.19h9.54A0.6,0.6,0,1,0,729.08,176.36Z" transform="translate(0 -1)"/><path class="cls-7" d="M729.11,177.55h-9.54a0.6,0.6,0,1,0,0,1.19h9.54A0.6,0.6,0,1,0,729.11,177.55Z" transform="translate(0 -1)"/><path class="cls-7" d="M729.15,178.74h-9.54a0.6,0.6,0,1,0,0,1.19h9.54A0.6,0.6,0,1,0,729.15,178.74Z" transform="translate(0 -1)"/><path class="cls-7" d="M729.19,179.94h-9.54a0.6,0.6,0,1,0,0,1.19h9.54A0.6,0.6,0,1,0,729.19,179.94Z" transform="translate(0 -1)"/><path class="cls-7" d="M729.22,181.13h-9.54a0.6,0.6,0,1,0,0,1.19h9.54A0.6,0.6,0,1,0,729.22,181.13Z" transform="translate(0 -1)"/><path class="cls-7" d="M729.26,182.32h-9.54a0.6,0.6,0,1,0,0,1.19h9.54A0.6,0.6,0,1,0,729.26,182.32Z" transform="translate(0 -1)"/><polygon class="cls-8" points="692 159.05 684.59 182.52 706.68 182.52 699.03 159.05 692 159.05"/><polygon class="cls-8" points="748.55 159.05 741.14 182.52 763.23 182.52 755.58 159.05 748.55 159.05"/><path class="cls-9" d="M685.58,170.72a4,4,0,0,0-4,4.07,4.17,4.17,0,0,0,4.59,3.55,4,4,0,0,0,4-4.07A4.17,4.17,0,0,0,685.58,170.72Z" transform="translate(0 -1)"/><path class="cls-9" d="M684.43,177a4,4,0,0,0-4,4.07,4.17,4.17,0,0,0,4.59,3.55,4,4,0,0,0,4-4.07A4.17,4.17,0,0,0,684.43,177Z" transform="translate(0 -1)"/><path class="cls-9" d="M680,172.91a4,4,0,0,0-4,4.07,4.17,4.17,0,0,0,4.59,3.55,4,4,0,0,0,4-4.07A4.17,4.17,0,0,0,680,172.91Z" transform="translate(0 -1)"/><path class="cls-9" d="M678.48,175.93a4,4,0,0,0-4,4.07,4.17,4.17,0,0,0,4.59,3.55,4,4,0,0,0,4-4.07A4.17,4.17,0,0,0,678.48,175.93Z" transform="translate(0 -1)"/><path class="cls-9" d="M690.68,174.74a3.14,3.14,0,0,0-3.14,3.2,3.27,3.27,0,0,0,3.6,2.79,3.14,3.14,0,0,0,3.14-3.2A3.27,3.27,0,0,0,690.68,174.74Z" transform="translate(0 -1)"/><path class="cls-9" d="M690.29,177.72c-3.84.23-6.86,2.6-6.73,4.25s3.35,2.8,7.19,2.57,6.36-1.85,6.24-3.5S694.13,177.48,690.29,177.72Z" transform="translate(0 -1)"/><path class="cls-8" d="M690.89,183.12a14.09,14.09,0,0,1-4.07-.31,4.73,4.73,0,0,1-1.65.4,4.5,4.5,0,0,1-3.88-1.69,4.66,4.66,0,0,1-2.07.62,4.18,4.18,0,0,1-4.58-3.44,3.38,3.38,0,0,0-.15,1.3,4.17,4.17,0,0,0,4.59,3.55,4.66,4.66,0,0,0,2.07-.62,4.5,4.5,0,0,0,3.88,1.69,4.72,4.72,0,0,0,1.65-.4,14.08,14.08,0,0,0,4.07.31c3.84-.23,6.36-1.85,6.24-3.5a1.79,1.79,0,0,0-.1-0.43C696.19,181.86,694,182.93,690.89,183.12Z" transform="translate(0 -1)"/><ellipse class="cls-10" cx="685.87" cy="171.78" rx="2.56" ry="1.51"/><ellipse class="cls-10" cx="680.78" cy="173.95" rx="3.39" ry="1.51"/><path class="cls-9" d="M705.24,170.72a4.17,4.17,0,0,0-4.59,3.55,4,4,0,0,0,4,4.07,4.17,4.17,0,0,0,4.59-3.55A4,4,0,0,0,705.24,170.72Z" transform="translate(0 -1)"/><path class="cls-9" d="M706.38,177a4.17,4.17,0,0,0-4.59,3.55,4,4,0,0,0,4,4.07,4.17,4.17,0,0,0,4.59-3.55A4,4,0,0,0,706.38,177Z" transform="translate(0 -1)"/><path class="cls-9" d="M710.84,172.91a4.17,4.17,0,0,0-4.59,3.55,4,4,0,0,0,4,4.07,4.17,4.17,0,0,0,4.59-3.55A4,4,0,0,0,710.84,172.91Z" transform="translate(0 -1)"/><path class="cls-9" d="M712.33,175.93a4.17,4.17,0,0,0-4.59,3.55,4,4,0,0,0,4,4.07,4.17,4.17,0,0,0,4.59-3.55A4,4,0,0,0,712.33,175.93Z" transform="translate(0 -1)"/><path class="cls-9" d="M700.13,174.74a3.27,3.27,0,0,0-3.6,2.79,3.14,3.14,0,0,0,3.14,3.2,3.27,3.27,0,0,0,3.6-2.79A3.14,3.14,0,0,0,700.13,174.74Z" transform="translate(0 -1)"/><path class="cls-9" d="M700.52,177.72c-3.84-.23-6.57,1.66-6.69,3.31s2.4,3.27,6.24,3.5,7.06-.92,7.19-2.57S704.36,177.95,700.52,177.72Z" transform="translate(0 -1)"/><path class="cls-8" d="M711.6,182.14a4.66,4.66,0,0,1-2.07-.62,4.5,4.5,0,0,1-3.88,1.69,4.73,4.73,0,0,1-1.65-.4,14.09,14.09,0,0,1-4.07.31c-3.07-.19-5.3-1.26-6-2.52a1.79,1.79,0,0,0-.1.43c-0.13,1.65,2.4,3.27,6.24,3.5a14.08,14.08,0,0,0,4.07-.31,4.72,4.72,0,0,0,1.65.4,4.5,4.5,0,0,0,3.88-1.69,4.66,4.66,0,0,0,2.07.62,4.17,4.17,0,0,0,4.59-3.55,3.38,3.38,0,0,0-.15-1.3A4.18,4.18,0,0,1,711.6,182.14Z" transform="translate(0 -1)"/><ellipse class="cls-10" cx="704.94" cy="171.78" rx="2.56" ry="1.51"/><ellipse class="cls-10" cx="710.04" cy="173.95" rx="3.39" ry="1.51"/><path class="cls-9" d="M742.36,170.78a4,4,0,0,0-4,4.07,4.17,4.17,0,0,0,4.59,3.55,4,4,0,0,0,4-4.07A4.17,4.17,0,0,0,742.36,170.78Z" transform="translate(0 -1)"/><path class="cls-9" d="M741.21,177.05a4,4,0,0,0-4,4.07,4.17,4.17,0,0,0,4.59,3.55,4,4,0,0,0,4-4.07A4.17,4.17,0,0,0,741.21,177.05Z" transform="translate(0 -1)"/><path class="cls-9" d="M736.75,173a4,4,0,0,0-4,4.07,4.17,4.17,0,0,0,4.59,3.55,4,4,0,0,0,4-4.07A4.17,4.17,0,0,0,736.75,173Z" transform="translate(0 -1)"/><path class="cls-9" d="M735.26,176a4,4,0,0,0-4,4.07,4.17,4.17,0,0,0,4.59,3.55,4,4,0,0,0,4-4.07A4.17,4.17,0,0,0,735.26,176Z" transform="translate(0 -1)"/><path class="cls-9" d="M747.46,174.79a3.14,3.14,0,0,0-3.14,3.2,3.27,3.27,0,0,0,3.6,2.79,3.14,3.14,0,0,0,3.14-3.2A3.27,3.27,0,0,0,747.46,174.79Z" transform="translate(0 -1)"/><path class="cls-9" d="M747.07,177.77c-3.84.23-6.86,2.6-6.73,4.25s3.35,2.8,7.19,2.57,6.36-1.85,6.24-3.5S750.91,177.54,747.07,177.77Z" transform="translate(0 -1)"/><path class="cls-8" d="M747.67,183.18a14.08,14.08,0,0,1-4.07-.31,4.73,4.73,0,0,1-1.65.4,4.5,4.5,0,0,1-3.88-1.69,4.65,4.65,0,0,1-2.07.62,4.18,4.18,0,0,1-4.58-3.44,3.38,3.38,0,0,0-.15,1.3,4.17,4.17,0,0,0,4.59,3.55,4.66,4.66,0,0,0,2.07-.62,4.5,4.5,0,0,0,3.88,1.69,4.73,4.73,0,0,0,1.65-.4,14.08,14.08,0,0,0,4.07.31c3.84-.23,6.36-1.85,6.24-3.5a1.79,1.79,0,0,0-.1-0.43C753,181.92,750.74,183,747.67,183.18Z" transform="translate(0 -1)"/><ellipse class="cls-10" cx="742.65" cy="171.83" rx="2.56" ry="1.51"/><ellipse class="cls-10" cx="737.56" cy="174" rx="3.39" ry="1.51"/><path class="cls-9" d="M762,170.78a4.17,4.17,0,0,0-4.59,3.55,4,4,0,0,0,4,4.07,4.17,4.17,0,0,0,4.59-3.55A4,4,0,0,0,762,170.78Z" transform="translate(0 -1)"/><path class="cls-9" d="M763.16,177.05a4.17,4.17,0,0,0-4.59,3.55,4,4,0,0,0,4,4.07,4.17,4.17,0,0,0,4.59-3.55A4,4,0,0,0,763.16,177.05Z" transform="translate(0 -1)"/><path class="cls-9" d="M767.62,173a4.17,4.17,0,0,0-4.59,3.55,4,4,0,0,0,4,4.07,4.17,4.17,0,0,0,4.59-3.55A4,4,0,0,0,767.62,173Z" transform="translate(0 -1)"/><path class="cls-9" d="M769.11,176a4.17,4.17,0,0,0-4.59,3.55,4,4,0,0,0,4,4.07,4.17,4.17,0,0,0,4.59-3.55A4,4,0,0,0,769.11,176Z" transform="translate(0 -1)"/><path class="cls-9" d="M756.91,174.79a3.27,3.27,0,0,0-3.6,2.79,3.14,3.14,0,0,0,3.14,3.2,3.27,3.27,0,0,0,3.6-2.79A3.14,3.14,0,0,0,756.91,174.79Z" transform="translate(0 -1)"/><path class="cls-9" d="M757.3,177.77c-3.84-.23-6.57,1.66-6.69,3.31s2.4,3.27,6.24,3.5,7.06-.92,7.19-2.57S761.14,178,757.3,177.77Z" transform="translate(0 -1)"/><path class="cls-8" d="M768.38,182.19a4.65,4.65,0,0,1-2.07-.62,4.5,4.5,0,0,1-3.88,1.69,4.73,4.73,0,0,1-1.65-.4,14.08,14.08,0,0,1-4.07.31c-3.07-.19-5.3-1.26-6-2.52a1.77,1.77,0,0,0-.1.43c-0.13,1.65,2.4,3.27,6.24,3.5a14.08,14.08,0,0,0,4.07-.31,4.72,4.72,0,0,0,1.65.4,4.5,4.5,0,0,0,3.88-1.69,4.66,4.66,0,0,0,2.07.62,4.17,4.17,0,0,0,4.59-3.55,3.38,3.38,0,0,0-.15-1.3A4.18,4.18,0,0,1,768.38,182.19Z" transform="translate(0 -1)"/><ellipse class="cls-10" cx="761.72" cy="171.83" rx="2.56" ry="1.51"/><ellipse class="cls-10" cx="766.81" cy="174" rx="3.39" ry="1.51"/><path class="cls-11" d="M752.71,44.43c-1.71.41-7.67,2.8-8.73,3.15s-3.86.88-7.76,2.25-5.62,3.73-4.76,5.57c2.31,5,19.09-3,21.66-4.41s4.38-3.83,3.84-5.06C756.29,44.45,754.42,44,752.71,44.43Z" transform="translate(0 -1)"/><path class="cls-11" d="M737.6,51.09c-4-1.7-12.91-.28-16.72-0.57s-11.21-1.09-14.78,1.3c-2.74,1.84,3.75,11.74,5.78,17,0.49,1.26.54,6.95,0.45,12,0,1.24-1.06,7-.82,9.34,0.07,0.7,9.15,5,11.67,5,3.34,0,11.44-4.81,11.49-5.51,0.15-2.37-1.09-8.07-1.15-9.31-0.27-5-.42-10.72,0-12C735.39,63,740.71,52.39,737.6,51.09Z" transform="translate(0 -1)"/><path class="cls-12" d="M707.17,50.9c-4.16.53-6.92,1.3-8,1.46s-7.63.71-9.34,1.1-3.1,1.59-2.84,3.16c0.21,1.31,3.12,2.58,6.16,2.71s22-.36,21.27-5.69C714.14,51.67,711.33,50.37,707.17,50.9Z" transform="translate(0 -1)"/><path class="cls-11" d="M725.84,48.93c-0.27-1-1-6-1-6l-3.72.06v0.17l-3.72.06s-0.53,5-.76,6-3.26,2.58-3.26,2.58l7.92-.13,7.91-.3S726.12,49.93,725.84,48.93Z" transform="translate(0 -1)"/><path class="cls-12" d="M724.62,43l-3.51.06v0.17l-3.72.06s-0.53,5-.76,6,1.75,2.5,4.65,1.3c3.95-1.63,4.27-3,4.27-3h0c-0.27-1.52-.6-3.69-0.7-4.36Z" transform="translate(0 -1)"/><path class="cls-12" d="M717.52,84.46c-4.52-.38-6.57,2.27-7.33,10.86s-1.83,17.88-1.34,19.27,6.89,1.94,7.6,1.21,5.67-18.27,6-21.06S722.44,84.88,717.52,84.46Z" transform="translate(0 -1)"/><path class="cls-12" d="M713.66,112.47l-1.19-.12a3.23,3.23,0,0,0-3.64,2.55l-0.47,3.56a3,3,0,0,0,2.88,3.22l1.19,0.12a3.22,3.22,0,0,0,3.64-2.55l0.47-3.56A3,3,0,0,0,713.66,112.47Z" transform="translate(0 -1)"/><path class="cls-12" d="M712.33,116.5c-1.38-.11-4.82,0-5.46,8s0.51,19.15.51,19.15l3.27,0.27s4.67-14.55,5-17.39C716.31,120.1,716.69,116.86,712.33,116.5Z" transform="translate(0 -1)"/><path class="cls-11" d="M728.67,85.74c-4.88.7-4.61,7.78-4.12,10.55s5.2,20.19,6,20.88,7.11-.24,7.5-1.65,0.17-10.84-1.23-19.36S733.15,85.1,728.67,85.74Z" transform="translate(0 -1)"/><path class="cls-11" d="M738.05,115.83a3.28,3.28,0,0,0-3.82-2.34l-1.18.19a3,3,0,0,0-2.64,3.38l0.73,3.52a3.28,3.28,0,0,0,3.82,2.34l1.18-.19a3,3,0,0,0,2.64-3.38Z" transform="translate(0 -1)"/><path class="cls-11" d="M734.69,117.63c-4.33.61-3.71,3.82-2.55,10.23,0.51,2.82,4.72,17.28,4.72,17.28l3.24-.46s1.86-11.4.63-19.35S736.06,117.43,734.69,117.63Z" transform="translate(0 -1)"/><path class="cls-12" d="M683.11,51.53c-2.74-.45-13.2-0.44-13.2-0.44l-0.82,2.53s11.25,3.72,16.25,4.75,6.35,0,6.85-1.58C693.51,52.7,685.85,52,683.11,51.53Z" transform="translate(0 -1)"/><path class="cls-11" d="M720.84,31.4a6.73,6.73,0,0,0-6.54,6.95c0.08,3.78,3.91,7.47,6.84,7.42s6.61-3.87,6.53-7.65A6.8,6.8,0,0,0,720.84,31.4Z" transform="translate(0 -1)"/><path class="cls-13" d="M726,31.84c-0.45-.68-2.74-1.26-3.83-1.38a20.28,20.28,0,0,0-3.06-.05,17.75,17.75,0,0,0-4.44,2.46,16,16,0,0,0-1.45,3.31c-0.2.79,0.83,2.52,1.14,2.93,0,0,1.27-4.64,1.83-4.89s9.68-.3,9.73,0,1.73,4.91,1.73,4.91a3.19,3.19,0,0,0,.34-0.53c0-.14.48-1.86,0.56-2.06a6.42,6.42,0,0,0-.92-2.14C727.23,33.89,726.4,32.52,726,31.84Z" transform="translate(0 -1)"/><path class="cls-11" d="M757.42,40.15c-2.21,1.51-8.67,5.23-5.39,8.34,1.25,1.19,3,1.58,6.92-1.35s12-10.78,12-10.78l-2-1.92S759.63,38.64,757.42,40.15Z" transform="translate(0 -1)"/><path class="cls-11" d="M775.23,33.84c-0.17-.23,4.6-2.46,4-3s-4.58,2.15-4.86,1.61c-0.13-.25,4.05-2.54,3.45-3-0.4-.3-6.32,3.18-6.55,2.88s1.58-1.91,1.6-2.57-0.58-1.07-.73-0.75a8.34,8.34,0,0,1-2.27,2.61A6.8,6.8,0,0,0,767.75,35a6.67,6.67,0,0,1-1.48,2l1.54,1.19s1.86-.66,2.36-0.43,4.43-1.31,4.94-1.41,3.66-.4,3.67-0.68c0-.47-2.9-0.3-3-0.52s4.56-1.28,4.25-1.94S775.4,34.07,775.23,33.84Z" transform="translate(0 -1)"/><path class="cls-14" d="M711.42,143.45l-4.78-.16a6.27,6.27,0,0,1-1.25,2.64c-0.8,1.14-2,2.33-2,3.23a1.22,1.22,0,0,0,1,1.25c1.59,0.16,4.62.32,5.45-.2a7.59,7.59,0,0,0,1.75-2.08,3.6,3.6,0,0,0,.23-2.32C711.76,145.16,711.42,143.45,711.42,143.45Z" transform="translate(0 -1)"/><path class="cls-6" d="M711.42,143l-4.78-.16a6.27,6.27,0,0,1-1.25,2.64c-0.8,1.14-2,2.33-2,3.23a1.05,1.05,0,0,0,.93,1.11c1.59,0.16,4.62.31,5.45-.21a6.56,6.56,0,0,0,1.66-1.9,3.84,3.84,0,0,0,.36-2.36C711.76,144.69,711.42,143,711.42,143Z" transform="translate(0 -1)"/><path class="cls-4" d="M711.47,143.25c0,0.29.09,0.57,0.1,0.75a3.83,3.83,0,0,1-.36,2.36,6.56,6.56,0,0,1-1.66,1.9c-0.83.52-3.86,0.37-5.45,0.21a0.94,0.94,0,0,1-.6-0.29,1.32,1.32,0,0,0-.09.5,1.05,1.05,0,0,0,.93,1.11c1.59,0.16,4.62.31,5.45-.21a6.56,6.56,0,0,0,1.66-1.9,3.84,3.84,0,0,0,.36-2.36C711.77,144.84,711.56,143.75,711.47,143.25Z" transform="translate(0 -1)"/><path class="cls-14" d="M740.51,143.55l-4.7.79s0,1.73,0,2.37a3.67,3.67,0,0,0,.62,2.27,8,8,0,0,0,2.08,1.83c0.91,0.4,3.87-.15,5.42-0.52a1.17,1.17,0,0,0,.76-1.36c-0.1-.9-1.52-1.9-2.51-2.93A6.55,6.55,0,0,1,740.51,143.55Z" transform="translate(0 -1)"/><path class="cls-6" d="M740.44,143.09l-4.7.79s0,1.73,0,2.37a3.93,3.93,0,0,0,.76,2.29,6.92,6.92,0,0,0,2,1.66c0.91,0.4,3.88-.14,5.42-0.51a1,1,0,0,0,.73-1.23c-0.1-.9-1.52-1.9-2.51-2.93A6.55,6.55,0,0,1,740.44,143.09Z" transform="translate(0 -1)"/><path class="cls-4" d="M743.9,148.34c-1.55.37-4.51,0.92-5.42,0.51a6.92,6.92,0,0,1-2-1.66,3.93,3.93,0,0,1-.76-2.29c0-.18,0-0.46,0-0.76,0,0.51,0,1.62,0,2.1a3.93,3.93,0,0,0,.76,2.29,6.92,6.92,0,0,0,2,1.66c0.91,0.4,3.88-.14,5.42-0.51a1,1,0,0,0,.73-1.23,1.35,1.35,0,0,0-.18-0.49A0.9,0.9,0,0,1,743.9,148.34Z" transform="translate(0 -1)"/><path class="cls-12" d="M664.25,50.33c-1.24-.39-3.25-0.06-6.15-0.66-0.52-.11-0.88.54,0.33,1.16s4.24,0.37,6,1.64c0.42,0.31,1.72,1.94,3.69,2.28s3.67-1.69,3.67-1.69l-1.25-1.9A58.51,58.51,0,0,1,664.25,50.33Z" transform="translate(0 -1)"/><path class="cls-12" d="M665.05,52.51a6.26,6.26,0,0,0-1.81.18c-0.18,0-1.91.93,0.49,0.9,1.11,0,2,1.34,3.34,1.45a8.47,8.47,0,0,0,3.25-.78C668.92,52.44,665.68,52.56,665.05,52.51Z" transform="translate(0 -1)"/><path class="cls-6" d="M706.2,131.35l0.43,11.47,4.79,0.63,3.48-11.66s-3.34-2.75-4.76-2.74C709,129.05,706.2,131.35,706.2,131.35Z" transform="translate(0 -1)"/><path class="cls-6" d="M732.76,131.7l3,12.18,4.7-.79,1.19-11.73s-2.89-2.31-4.11-2.31C736.11,129,732.76,131.7,732.76,131.7Z" transform="translate(0 -1)"/><path class="cls-4" d="M709.6,135.13c-1.07,0-3.83-1-4.11-.81a1.38,1.38,0,0,0-.25,1.6c0.36,0.56,2.55.95,4.15,1.18a13.73,13.73,0,0,0,4-.35,0.54,0.54,0,0,0,.42-0.38,7.86,7.86,0,0,0,.53-1.93C714.12,134.26,713,135.13,709.6,135.13Z" transform="translate(0 -1)"/><path class="cls-15" d="M706.68,133.69a0.45,0.45,0,0,0-.48.42v2.62a0.48,0.48,0,0,0,1,0v-2.62A0.45,0.45,0,0,0,706.68,133.69Z" transform="translate(0 -1)"/><path class="cls-4" d="M737.9,135.13c-3.37,0-4.53-.87-4.71-0.7a7.87,7.87,0,0,0,.53,1.93,0.54,0.54,0,0,0,.42.38,13.73,13.73,0,0,0,4,.35c1.61-.23,3.8-0.61,4.15-1.18a1.38,1.38,0,0,0-.25-1.6C741.72,134.16,739,135.13,737.9,135.13Z" transform="translate(0 -1)"/><path class="cls-15" d="M740.81,133.69a0.45,0.45,0,0,0-.48.42v2.62a0.48,0.48,0,0,0,1,0v-2.62A0.45,0.45,0,0,0,740.81,133.69Z" transform="translate(0 -1)"/><path class="cls-4" d="M709.7,93.55c-0.37,3-1,13.65-1,13.65a39.52,39.52,0,0,1,6.18.93,22.25,22.25,0,0,1,3.63,1.57l4-13.86h0.71V85.65H711.76A51.76,51.76,0,0,0,709.7,93.55Z" transform="translate(0 -1)"/><path class="cls-16" d="M709.7,93.55c-0.37,3-1,13.65-1,13.65s1.88,0.15,3.69.42c-0.1-3.12-.36-12.58,0-15.07,0.48-3,2.91-6.9,2.91-6.9h-3.61A51.77,51.77,0,0,0,709.7,93.55Z" transform="translate(0 -1)"/><path class="cls-4" d="M734.34,85.65H723.13V95.84h0.71l4,13.86a22,22,0,0,1,3.62-1.57c1.9-.6,6.76-0.57,6.76-0.57s-1.19-11-1.56-14A43.69,43.69,0,0,0,734.34,85.65Z" transform="translate(0 -1)"/><path class="cls-8" d="M738.18,50.65c-2.21-.93-10.52-0.49-10.52-0.49s-0.46,5.6-5.72,5.6c-4.53,0-6.26-5.75-6.26-5.75s-7.43-.29-9.71,1.23c-2.74,1.84,3.19,12.65,5.22,17.9,0.49,1.26.8,6.43,0.71,11.47,0,0.62-.4,4.61-0.63,6.5,7.88,2.47,16.16.83,23.61,0-0.32-2.52-.81-6.14-0.86-7-0.27-5-.14-10.84.31-12.11C736.19,62.74,741.29,51.95,738.18,50.65Z" transform="translate(0 -1)"/><path class="cls-17" d="M721.06,59.09L714.26,50a1.43,1.43,0,0,0-1.28-.53l-4.05.38a0.77,0.77,0,0,0-.73,1c0.73,2,2.31,6.74,1.67,9.4C709,63.81,707.51,68,707.51,68l1,12.83a2.87,2.87,0,0,0,3,2.46l9.09-.05a2.44,2.44,0,0,0,2.56-2.37l-0.66-17.67A7.37,7.37,0,0,0,721.06,59.09Z" transform="translate(0 -1)"/><path class="cls-18" d="M734.05,58.89c-0.14-2.28.14-7.35,0.25-9.08a0.6,0.6,0,0,0-.64-0.59h-4.14a1.16,1.16,0,0,0-1,.58L723.56,59a8.27,8.27,0,0,0-1,4.23l0.65,17.56a2.64,2.64,0,0,0,2.92,2.35l8.66-.47a2.78,2.78,0,0,0,2.8-2.85l-1.08-12.62A25.17,25.17,0,0,1,734.05,58.89Z" transform="translate(0 -1)"/><polygon class="cls-15" points="708.35 77.15 708.46 79.1 737.55 78.22 737.39 76.27 708.35 77.15"/><polygon class="cls-15" points="707.86 70.91 707.96 72.87 737.05 71.99 736.9 70.04 707.86 70.91"/><path class="cls-9" d="M746,46.81s-5.32,1.23-6.88,1.72-4.49,1.6-4.49,1.6c-0.34,8,2.67,10,2.67,10l13.1-5.57a13.26,13.26,0,0,0-1-3.9A15,15,0,0,0,746,46.81Z" transform="translate(0 -1)"/><path class="cls-8" d="M693.31,53a5.42,5.42,0,0,0-.36,3.14,20.41,20.41,0,0,0,2.11,5.24l12.65-1.24s2.73-.6-0.3-9.47Z" transform="translate(0 -1)"/><path class="cls-16" d="M723.84,93.82a6.1,6.1,0,0,0-1.35,2h1.35l4,13.86a22.8,22.8,0,0,1,3.18-1.42s-1.17-12-4.3-14.46A3.82,3.82,0,0,0,723.84,93.82Z" transform="translate(0 -1)"/><path class="cls-6" d="M569.15,76.44a11.53,11.53,0,0,1-1.24,3.82A4,4,0,0,1,566.07,82a3.22,3.22,0,0,1-1.4.23,1.86,1.86,0,0,1-1.24-.35,2.21,2.21,0,0,1-.36-1.41,10.77,10.77,0,0,1,.22-2,44.3,44.3,0,0,1,1.14-4.36c0.91-3,2.06-6.32,2.83-10a17.37,17.37,0,0,0,.41-5.78,5.52,5.52,0,0,0-1.25-2.92,4.87,4.87,0,0,0-2.86-1.5,11.56,11.56,0,0,0-6.18,1.23c-1.91.83-3.74,1.83-5.62,2.7A18.91,18.91,0,0,1,548.89,59a5.6,5.6,0,0,1-2.9.14,3.77,3.77,0,0,1-2.2-1.73,2.86,2.86,0,0,1-.35-2.69c0.72-1.83,2.51-3.18,4.18-4.38s3.54-2.25,5.36-3.29,3.63-2.05,5.37-3.18A20.93,20.93,0,0,0,560.82,42a4.56,4.56,0,0,0,1.71-2.62,2.55,2.55,0,0,0-.42-1.54A2.87,2.87,0,0,0,561,36.76a4.85,4.85,0,0,0-3-.35c-1.94.28-3.71,0.91-5.49,1.29s-3.61.62-5.08-.22A2.64,2.64,0,0,1,546,35.69a2.62,2.62,0,0,1,1.28-1.83c2.61-1.79,5.45-2.7,7.72-4a8.59,8.59,0,0,0,1.58-1,5.86,5.86,0,0,0,1.05-1.41,4.67,4.67,0,0,0,.64-3A5.6,5.6,0,0,0,555.87,21a7.42,7.42,0,0,0-1.31-.79,7.42,7.42,0,0,1,1.3.8,5.56,5.56,0,0,1,2.35,3.47,4.58,4.58,0,0,1-.66,2.92,5.74,5.74,0,0,1-1,1.37,8.48,8.48,0,0,1-1.57,1c-2.28,1.22-5.11,2.08-7.81,3.87a2.85,2.85,0,0,0-1.41,2,1.87,1.87,0,0,0,.54,1.21,3.85,3.85,0,0,0,1,.85c1.59,0.92,3.55.67,5.31,0.31s3.59-1,5.47-1.23a4.44,4.44,0,0,1,2.7.32,2.42,2.42,0,0,1,.93.94,2.08,2.08,0,0,1,.35,1.27,4.13,4.13,0,0,1-1.57,2.28A20.41,20.41,0,0,1,558,43.41c-1.72,1.09-3.55,2.07-5.38,3.1s-3.68,2.06-5.45,3.26a21.15,21.15,0,0,0-2.55,2,7.44,7.44,0,0,0-2,2.7,3.69,3.69,0,0,0,.39,3.4A4.61,4.61,0,0,0,545.76,60a6.43,6.43,0,0,0,3.35-.11,19.76,19.76,0,0,0,3-1.11c1.93-.86,3.76-1.85,5.62-2.63A10.83,10.83,0,0,1,563.33,55a3.81,3.81,0,0,1,2.29,1.2,4.45,4.45,0,0,1,1,2.37,16.34,16.34,0,0,1-.47,5.38c-0.8,3.51-2,6.76-2.93,9.81a45.4,45.4,0,0,0-1.23,4.48,12.06,12.06,0,0,0-.27,2.24,3.5,3.5,0,0,0,.69,2.36,3.08,3.08,0,0,0,2.22.85,4.68,4.68,0,0,0,2-.31A5.46,5.46,0,0,0,569.21,81a13,13,0,0,0,1.47-4.33,14,14,0,0,0,.2-1.6L569.31,75A12.32,12.32,0,0,1,569.15,76.44Z" transform="translate(0 -1)"/><path class="cls-19" d="M567.18,97.39c-2.38,2.18-3.57,3.86-2.25,5.21s4-.52,6-2.5,3.56-3.84,2.2-5.34C572.31,93.9,569.57,95.2,567.18,97.39Z" transform="translate(0 -1)"/><path class="cls-19" d="M593.38,85.11c-3.35.51-6.55,2.59-5.68,3.94s8.14,0.44,9.55-.35,3.1-1.33,2.89-2.44S596.72,84.6,593.38,85.11Z" transform="translate(0 -1)"/><path class="cls-11" d="M580.81,161.26c-1.86,2.22-2.74,5.17-1.84,6.28,1.07,1.32,2.91,1.23,4.32.32s6.05-5.06,6.9-5.71,3.21-2,6.31-4.52,3.9-5.42,2.52-7.06C595.32,146.15,582.66,159,580.81,161.26Z" transform="translate(0 -1)"/><path class="cls-11" d="M611.12,129.52c-1-1.06-3.38-6.66-5.41-11.67-0.5-1.24-2-7.28-3.19-9.52-0.36-.67-10.08-1.48-12.32-0.62l0.07,0.16c-2.14,1.08-8.07,8.83-7.82,9.54,0.86,2.39,4.33,7.56,4.91,8.76,2.34,4.87,4.86,10.43,5,11.85,0.61,5.93.58,18.86,3.85,19,4.25,0.17,11.25-5,14.7-6.09s10.62-2.56,12.75-6.25C625.29,141.85,615.1,134,611.12,129.52Z" transform="translate(0 -1)"/><path class="cls-11" d="M635.63,135.79c-2.89.17-20.79,2.64-19.45,8.24,0.5,2.08,3.3,3.18,7.17,2.19s6.4-2.09,7.39-2.37,7.13-1.54,8.7-2.13,2.74-2,2.32-3.66C641.41,136.67,638.52,135.62,635.63,135.79Z" transform="translate(0 -1)"/><path class="cls-11" d="M615.56,150.29c-0.31-1.06,1.45-3.89,1.45-3.89L610.42,150l0.09,0.16-6.59,3.64s3.34,0,4.07.85,3.84,5.21,3.84,5.21l3.1-1.71-0.09-.16,3.1-1.71S615.87,151.35,615.56,150.29Z" transform="translate(0 -1)"/><path class="cls-12" d="M615.56,150.29c-0.31-1.06-3.86,1.08-4.19,1.41a30.79,30.79,0,0,0-2.45,4.18h0c1,1.32,2.35,3.23,2.77,3.82l0.31,0.09,2.92-1.61-0.09-.16,3.1-1.71S615.87,151.35,615.56,150.29Z" transform="translate(0 -1)"/><path class="cls-11" d="M597.4,82.68c-0.89-1.28-6.88,0-7.29.92s0.7,20.3,1.32,23.23,3.12,10.11,7.72,9.14c4.22-.89,5.24-4.19,3.18-13.19S598.29,84,597.4,82.68Z" transform="translate(0 -1)"/><rect class="cls-11" x="589.65" y="76.12" width="7.37" height="10.07" rx="3.12" ry="3.12" transform="translate(-4.75 110.71) rotate(-10.71)"/><path class="cls-11" d="M589.43,52.5l-3,.65s0.41,16.21,1,19.2c1.44,6.8,2.13,10.23,6.2,9.36,1.29-.28,4.36-1.38,2.39-9.76A156.19,156.19,0,0,0,589.43,52.5Z" transform="translate(0 -1)"/><path class="cls-11" d="M586.59,107.2c-2.22-2-17.42-13.78-18.44-13.9s-5.11,4.43-4.45,5.84,7.15,9.16,13.91,15.45,10.12,7.07,13,3.87C593.77,115,588.81,109.21,586.59,107.2Z" transform="translate(0 -1)"/><rect class="cls-11" x="560.74" y="89.83" width="7.37" height="10.07" rx="3.12" ry="3.12" transform="translate(123.58 458.88) rotate(-49.16)"/><path class="cls-11" d="M559.78,85.34c-2.27-2-15.1-11.63-15.1-11.63L542.59,76s6.27,10.63,12.53,16.55,8.75,3.81,9.64,2.84C567.56,92.32,564.94,90,559.78,85.34Z" transform="translate(0 -1)"/><path class="cls-11" d="M636.84,138.41c-0.79,4.49,6.54,4.47,9.19,4.68s12.53-.88,12.53-0.88l0.49-2.78S648,136.61,643.13,136,637.14,136.69,636.84,138.41Z" transform="translate(0 -1)"/><path class="cls-11" d="M613.18,154c-2.56,1.41-3.62,6.6-1.66,10.15s6,5,9.11,3.34,4-5.94,2-9.49S615.62,152.7,613.18,154Z" transform="translate(0 -1)"/><path class="cls-13" d="M622.26,157.34s1.25,5,.91,5.45-8,4.58-8.2,4.27-3.91-3.89-3.91-3.89a3.51,3.51,0,0,0,0,.66c0,0.15.52,2,.56,2.21a7.39,7.39,0,0,0,1.84,1.62c0.58,0.35,2,1.29,2.67,1.73s2.94,0,3.91-.39a17.07,17.07,0,0,0,2.6-1.31,16.43,16.43,0,0,0,2.5-4.3,18.3,18.3,0,0,0-.43-3.78C624.45,158.77,622.72,157.59,622.26,157.34Z" transform="translate(0 -1)"/><path class="cls-11" d="M582.6,163.51c-1.52-.85-3.22-0.76-5.83,3.36s-7.44,14.47-7.44,14.47l2.46,1.38s7.1-7,8.62-9.14S586.58,165.75,582.6,163.51Z" transform="translate(0 -1)"/><path class="cls-11" d="M663.38,141.41c0.09-.28,4.53,0,4.6-0.63s-4.48-.44-4.47-0.84c0-.25,2.73-0.87,2.56-1.34-0.1-.28-3.05.26-3.55,0.29s-4.56-.5-4.94-0.12-2.28.2-2.28,0.2l-1,1.64a7.13,7.13,0,0,1,2,1.65,7.47,7.47,0,0,0,3,2.87,8.75,8.75,0,0,1,2.87,2.07c0.23,0.29.66-.3,0.43-1s-2.37-1.85-2.25-2.21,6.58,1.61,6.85,1.2c0.41-.63-4.1-1.85-4.05-2.15,0.09-.63,4.66.9,4.92,0.34C668.32,142.7,663.29,141.7,663.38,141.41Z" transform="translate(0 -1)"/><path class="cls-11" d="M571.62,178.58s-1.47,1.21-2,1.11-3.59,2.61-4,2.86-3.18,1.46-3.11,1.74c0.13,0.48,2.72-.52,2.87-0.32s-3.72,2.62-3.23,3.2,3.93-2.23,4.17-2-3.38,3.83-2.7,4.23c0.53,0.31,3.46-3.51,3.89-3,0.2,0.22-2.85,3.75-2.16,4,0.46,0.2,4.7-5.06,5-4.82s-0.82,2.41-.62,3.09,0.87,0.93.9,0.56a8.75,8.75,0,0,1,1.22-3.32,7.47,7.47,0,0,0,.87-4.05,7.13,7.13,0,0,1,.7-2.46Z" transform="translate(0 -1)"/><path class="cls-20" d="M600.14,86.26c-3,1.47-9.4,1.36-12.44,2.79,2.37,7.13,2.21,18.6,2.21,18.6l5.52,12.53,9.57-3.89s0.25-8.11-1.21-12C602.75,101.53,602.81,91.9,600.14,86.26Z" transform="translate(0 -1)"/><path class="cls-20" d="M573.09,94.76a12.1,12.1,0,0,1-8.16,7.84c4,4.08,11.07,11.39,13.42,13.79,2.9,3,8,8.45,8,8.45l9.11-4.65-5.52-12.53S578.67,99,573.09,94.76Z" transform="translate(0 -1)"/><path class="cls-21" d="M590,44.76c-1.5.29-4.29,1-4.88,1.75a8,8,0,0,0-.92,2.63,4.32,4.32,0,0,0,.53,2.44c0.25,0.64,1.1,2.29,1.1,2.29l4.39-1.19a7.2,7.2,0,0,1,.29-3.05c0.36-1.4,1.11-3,.77-3.87A1.29,1.29,0,0,0,590,44.76Z" transform="translate(0 -1)"/><path class="cls-22" d="M590.25,45.37c-1.5.29-4.29,1-4.88,1.76a6.86,6.86,0,0,0-.9,2.42,4.58,4.58,0,0,0,.42,2.52c0.25,0.64,1.1,2.29,1.1,2.29l4.39-1.19a7.19,7.19,0,0,1,.29-3.05c0.36-1.4,1.11-3,.77-3.87A1.09,1.09,0,0,0,590.25,45.37Z" transform="translate(0 -1)"/><path class="cls-22" d="M588,50.81c-1.26.67-1,3.11-.52,3.68,0.37,0.41,1.77.06,2.12-.35s-0.27-3.37-.33-3.54A2,2,0,0,0,588,50.81Z" transform="translate(0 -1)"/><path class="cls-7" d="M590.25,45.37c-1.5.29-4.29,1-4.88,1.76a6.85,6.85,0,0,0-.9,2.42,4.58,4.58,0,0,0,.42,2.52c0.19,0.48.72,1.54,1,2-0.14-.29-0.26-0.56-0.33-0.74a4.58,4.58,0,0,1-.42-2.52,6.85,6.85,0,0,1,.9-2.42c0.59-.77,3.38-1.47,4.88-1.76a0.86,0.86,0,0,1,.64.13,1.57,1.57,0,0,0-.08-0.54A1.09,1.09,0,0,0,590.25,45.37Z" transform="translate(0 -1)"/><path class="cls-21" d="M542.4,70.24a8,8,0,0,0-2.77-.29c-0.94.2-2.77,2.44-3.67,3.67a1.29,1.29,0,0,0,.36,1.59c0.67,0.69,2.41.68,3.83,1a7.2,7.2,0,0,1,2.89,1l3-3.46s-1.13-1.48-1.6-2A4.32,4.32,0,0,0,542.4,70.24Z" transform="translate(0 -1)"/><path class="cls-22" d="M542.65,70.66a6.85,6.85,0,0,0-2.57-.22c-0.94.2-2.78,2.43-3.68,3.66a1.1,1.1,0,0,0,.28,1.46c0.67,0.69,2.41.69,3.83,1a7.2,7.2,0,0,1,2.89,1l3-3.46s-1.13-1.48-1.6-2A4.58,4.58,0,0,0,542.65,70.66Z" transform="translate(0 -1)"/><path class="cls-22" d="M542.29,74.37a2,2,0,0,0-.73,1.07c0.13,0.12,2.47,2,3.06,1.81s1.43-1.25,1.22-1.77C545.54,74.76,543.43,73.52,542.29,74.37Z" transform="translate(0 -1)"/><path class="cls-19" d="M567.76,101.36a12.56,12.56,0,0,1-2.82,1.24c4,4.08,11.07,11.39,13.42,13.79,2.9,3,8,8.45,8,8.45l1.85-.94,1.85-3.71-22.27-18.82h0Z" transform="translate(0 -1)"/><path class="cls-7" d="M542.65,70.66a6.85,6.85,0,0,0-2.57-.22c-0.94.2-2.78,2.43-3.68,3.66a1.09,1.09,0,0,0,.28,1.46,1.57,1.57,0,0,0,.46.3,0.86,0.86,0,0,1,.16-0.63C538.2,74,540,71.77,541,71.57a6.85,6.85,0,0,1,2.57.22,4.58,4.58,0,0,1,2.1,1.46c0.14,0.14.33,0.37,0.53,0.62-0.34-.43-1.07-1.37-1.43-1.74A4.58,4.58,0,0,0,542.65,70.66Z" transform="translate(0 -1)"/><path class="cls-23" d="M614.11,131.91s-1.84-1.82-2.3-2.31c-1-1.06-4.55-13.45-6.8-15.59,0,0-8,2.22-10.82,3.34a60,60,0,0,0-10,5.19c2.15,2.42,7.15,13.12,7.27,14.56,0.05,0.62,1.18,6.76,1.18,6.76s1.43-.68,4.86,1.69,4.32,9.91,4.32,9.91a29.11,29.11,0,0,0,3.15-1.59s-3.13-9.4,1.81-11.46c4.5-1.87,9.46,6.9,9.46,6.9a13.5,13.5,0,0,0,3.45-1.38s-3.8-4.93-4.76-8.69A21.29,21.29,0,0,1,614.11,131.91Z" transform="translate(0 -1)"/><path class="cls-5" d="M591.23,54.62c-0.43-1.11-4.78.75-5.71,1.42s1.05,3,.49,4,0.87,12.81,1.42,12.34,1.38-1.92,2.62-2.15c1.76-.32,5.65.76,5.9,0.55s-1.13-8.16-2.59-10.28C592.13,58.68,591.23,54.62,591.23,54.62Z" transform="translate(0 -1)"/><path class="cls-5" d="M550.72,77.61c-1.24-1-3-3.19-4.1-2.78s-4,3.27-3.26,4.23c0,0,2.91,3,3.75,5,1,2.37,6.58,7.7,6.89,7.61s-0.13-2.59,3.09-5.1a6.7,6.7,0,0,1,3.09-1C560.89,85.36,551.62,78.34,550.72,77.61Z" transform="translate(0 -1)"/><path class="cls-24" d="M604.31,145.48a50.57,50.57,0,0,1-5.24-2.38c-2.85-1.57-8.68-15.91-8.14-18.28,0.29-1.24,5.24-5.68,9.87-9.61-2.38.7-5.17,1.56-6.62,2.13a60,60,0,0,0-10,5.19c2.15,2.42,7.15,13.12,7.27,14.56,0.05,0.62,1.18,6.76,1.18,6.76s1.43-.68,4.86,1.69,4.32,9.91,4.32,9.91a29.13,29.13,0,0,0,3.15-1.59S603.36,149,604.31,145.48Z" transform="translate(0 -1)"/><path class="cls-25" d="M593.29,114.87a92,92,0,0,0-10.18,7l2.4,3.07s6.74-4.95,9.89-6.47S606.69,116,606.69,116l-1.44-4.09S597.5,112.57,593.29,114.87Z" transform="translate(0 -1)"/><path class="cls-25" d="M601.34,130.93c-3.27,1.41-10.41,5.29-10.41,5.29l0.5,2.33s7.85-4.12,10.68-5.38,10.31-3.32,10.31-3.32l-1.18-2.12S603.56,130,601.34,130.93Z" transform="translate(0 -1)"/><path class="cls-26" d="M597.36,107.58c-1.35.15-7.61-4.45-7.61-4.45l0.06,3.07s6.88,3.63,7.76,3.53,6.43-5.26,6.43-5.26l-0.56-2.82S598.52,107.46,597.36,107.58Z" transform="translate(0 -1)"/><path class="cls-26" d="M586,113.21c-1,1-9.44,1.52-9.44,1.52l2.42,2.46s7.91-1.82,8.54-2.45,1.6-7.86,1.6-7.86l-2.5-2S586.78,112.38,586,113.21Z" transform="translate(0 -1)"/><path class="cls-27" d="M602.18,130a1.62,1.62,0,1,0-3,1.31l0.67,1.53a1.62,1.62,0,0,0,3-1.31Zm-0.51,2.88a0.76,0.76,0,0,1-1-.39L600,130.93a0.76,0.76,0,1,1,1.39-.61l0.67,1.53A0.76,0.76,0,0,1,601.67,132.85Z" transform="translate(0 -1)"/><path class="cls-26" d="M593.62,115a52.6,52.6,0,0,1-5.72-1.38l-1.31,1.5s7,0.51,7.28.38,4.11-6,4.11-6l-1.21-.36S594,114.9,593.62,115Z" transform="translate(0 -1)"/><polygon class="cls-26" points="600.93 131.67 616.25 148.32 618.38 147.77 601.8 131.31 600.93 131.67"/><polygon class="cls-26" points="600.93 131.67 602.77 154.01 604.98 152.87 601.8 131.31 600.93 131.67"/><path class="cls-6" d="M581.82,89.73l-0.23-.18c-4.07-3.06-9.14-6.88-8.68-8.24,0.77-2.31-1.93-5.89-2.48-6.58l-1.36,1.07c1.12,1.42,2.54,3.9,2.19,5-0.84,2.55,3.4,5.75,9.29,10.17l0.23,0.17c5.06,3.81,12.19,24.5,12.26,24.71l1.64-.56C594.38,114.4,587.3,93.86,581.82,89.73Z" transform="translate(0 -1)"/><path class="cls-5" d="M569.87,74.49c-0.93.64-20.27,2.8-20.27,2.8l2.77,2.36s16.56-3.62,17.88-4S586.77,64,586.77,64l-0.61-3.18S570.8,73.85,569.87,74.49Z" transform="translate(0 -1)"/><path class="cls-27" d="M595.34,115a1.62,1.62,0,0,0-3,1.31L593,117.8a1.62,1.62,0,1,0,3-1.31Zm-0.51,2.88a0.76,0.76,0,0,1-1-.39l-0.67-1.53a0.76,0.76,0,1,1,1.39-.61l0.67,1.53A0.76,0.76,0,0,1,594.83,117.84Z" transform="translate(0 -1)"/><path class="cls-26" d="M594.11,117.77c-0.07.26,5.71,12.36,5.88,12.58a0.9,0.9,0,0,0,1-.4c-0.06-.25-5.46-12.63-5.74-12.72A1.46,1.46,0,0,0,594.11,117.77Z" transform="translate(0 -1)"/><path class="cls-26" d="M569.58,73A2,2,0,0,0,568,75.26l0.1,0.53a2,2,0,1,0,3.84-.7l-0.1-.53A2,2,0,0,0,569.58,73Z" transform="translate(0 -1)"/><path class="cls-28" d="M439.26,155.81a8.85,8.85,0,0,0-.36,12.58l0.45,0.45a9.13,9.13,0,0,0,12.74-.33l30.67-30.21a8.85,8.85,0,0,0,.36-12.58l-0.45-.45a9.13,9.13,0,0,0-12.74.33Z" transform="translate(0 -1)"/><path class="cls-17" d="M481,80.26S486.64,74,493.69,71c5.69-2.39,16.59-6.53,18.56-7.18s5-5.71,3.34-5.73S501.12,63.82,496.88,66A120.82,120.82,0,0,0,483.7,75a35.43,35.43,0,0,0-4.46,4.7Z" transform="translate(0 -1)"/><path class="cls-4" d="M475.43,83.54c-3.09,2.06-4.81,3.74-4,5.24a3.49,3.49,0,0,0,2.67,2,17.66,17.66,0,0,1,3.28,1.72s4.41-3.15,3.82-3.43,0.21-4.27,1.23-6.17,2.7-6.16,4.37-7.58,1-2.53.66-2.73-3.84,2.3-5.1,3.4S477.79,82,475.43,83.54Z" transform="translate(0 -1)"/><path class="cls-6" d="M472.27,89.9c-0.16.42,1.64,1.28,1.85,0.88a110.69,110.69,0,0,1,10.63-15.64c3.48-3.8,17.7-11.78,17.7-11.78s-1.09.5-5.56,2.68-13.71,8.81-13.71,8.81S478,80.15,477,82.2,473.11,87.64,472.27,89.9Z" transform="translate(0 -1)"/><path class="cls-18" d="M480.11,39.84c-0.77,11.41,1.67,24.49,1.87,25.49a25.38,25.38,0,0,0,1.63,4.44l5,0A14.1,14.1,0,0,0,492.91,62c0.41-2.6,1.84-12.87,3-22.3,1-8.25,5.41-14.33,5.05-15.59-0.77-2.69-16.47-2.4-18.74.24C481.2,25.47,480.75,30.28,480.11,39.84Z" transform="translate(0 -1)"/><path class="cls-4" d="M453.66,176.27c0.29,2.72,3.73,4.4,8.89,3.51s8.61-2.05,10-2.32,9.47-1.28,11.6-1.88,3.88-2.31,3.62-4.47c-0.22-1.8-3.78-3.43-7.54-3.5S452.88,169,453.66,176.27Z" transform="translate(0 -1)"/><path class="cls-4" d="M492.37,178c3.38,0.52,16.33.09,16.33,0.09l1.1-3.51s-13.81-4.69-20-5.92-7.86.27-8.54,2.45C479.52,176.78,489,177.47,492.37,178Z" transform="translate(0 -1)"/><path class="cls-4" d="M505.68,177.92c0.29,0.86,2,3.4,3.37,4a10.47,10.47,0,0,1,3.36,2.93c0.25,0.39.9-.32,0.72-1.2s-2.75-2.6-2.53-3.05,8.23,2.71,8.65,2.2c0.64-.77-5-2.78-4.87-3.15,0.23-.8,5.87,1.61,6.3.92,0.56-.88-5.77-2.66-5.6-3s5.86,0.41,6-.36c0.24-1-5.71-1-5.62-1.52,0.05-.31,3.67-0.85,3.53-1.47-0.08-.37-4,0-4.64,0s-5.8-1.08-6.36-.63-3,0-3,0l-1.62,2S505.39,177.06,505.68,177.92Z" transform="translate(0 -1)"/><path class="cls-4" d="M484.75,145.43c4.89,2.48,9.18-.72,15-11.43s12.18-22.09,12.42-24.09-6.58-5.64-7.79-5-22.26,26.71-24.17,30.17S479.42,142.73,484.75,145.43Z" transform="translate(0 -1)"/><path class="cls-4" d="M495.16,109.37c8.17,5,13.47,6.21,16.49,1.61,1-1.46,1.79-4.63-8.47-10.58s-24.72-12.68-24.72-12.68l-2.26,3.45S491.57,107.17,495.16,109.37Z" transform="translate(0 -1)"/><path class="cls-6" d="M444.68,134c-0.6,1.23-2.6,4.28-4.77,9s-1.43,8.53,1.13,9.5c6.86,2.61,14.21-19.82,15.1-23.48s0.22-7.52-1.46-8.2c-2-.81-4.1.46-5.23,2.37S445.3,132.71,444.68,134Z" transform="translate(0 -1)"/><path class="cls-6" d="M438.72,149.36c0.91,5.34,5,11.33,7.36,15.25s4.63,13.48,9.9,14.91c4,1.1,10.3-6,14.9-12.43,1.1-1.54,5.91-5.36,9.31-10.71,0.95-1.49,8.15-8.77,10.7-11,0.76-.66-1.44-8.76-3-16.25-1.67-7.94-16.24-7.21-17.08-6.66-2.83,1.85-4.62,13.14-6,14.22-3.36,2.56-7.48,3.72-12.91,5.6C444.41,144.88,438,145.26,438.72,149.36Z" transform="translate(0 -1)"/><path class="cls-6" d="M473.57,136.33c5.92,1.22,10.45-4.2,11.11-6.67s1.26-19.17.69-20-8.28-2.43-9.35-1.4a45.1,45.1,0,0,0-8.29,15.43C465.55,131.24,468.13,135.21,473.57,136.33Z" transform="translate(0 -1)"/><path class="cls-6" d="M476.08,108.57a4.1,4.1,0,0,0,4,4.47l0.81,0a4.68,4.68,0,0,0,4.75-4.21l0.55-6.49a4.1,4.1,0,0,0-4-4.47l-0.81,0a4.68,4.68,0,0,0-4.75,4.21Z" transform="translate(0 -1)"/><path class="cls-6" d="M480.83,106.2c5.4,0.29,5.83-4.2,6.78-13.14,0.42-3.93.68-24.5,0.68-24.5l-4-.21s-6.39,14.89-7.83,25.93S479.12,106.11,480.83,106.2Z" transform="translate(0 -1)"/><path class="cls-6" d="M453.32,128.3c2.27,0,4.2-1.18,4.88-7.45s0.35-20.91.35-20.91h-3.67s-4.28,12.28-4.79,15.68S447.38,128.3,453.32,128.3Z" transform="translate(0 -1)"/><path class="cls-6" d="M447.51,88.24c2.07,2.92,2.53,5.36,3.58,6.53a59.5,59.5,0,0,1,3.86,6.57l3,0.33s1.92-3,.59-5.07-4-2.56-4.62-2.86c-2.44-1.23-3.45-4.77-4.8-5.78S447.14,87.72,447.51,88.24Z" transform="translate(0 -1)"/><path class="cls-6" d="M453.74,92.32a6.5,6.5,0,0,0,.56,2.13c0.34,0.67,1.62,4.38,4.62,4.94a9.22,9.22,0,0,0-.41-4.09c-0.72-1.41-2.9-1.68-3.37-2.93C454.11,89.66,453.71,92.1,453.74,92.32Z" transform="translate(0 -1)"/><path class="cls-6" d="M483.41,63.19a10.26,10.26,0,0,0-.29,3.91,8.06,8.06,0,0,1,.16,3.79c-0.29,1.21,4.86,1.69,4.94.45,0.13-1.79,1.61-3.75,1.75-4.86s0.34-2.25.39-3.32,0.8-6.61.81-7.3c0.09-3.07-1-6-2.47-6.09-1.93-.15-4.59,3.37-5.15,5.17S483.77,61.6,483.41,63.19Z" transform="translate(0 -1)"/><path class="cls-4" d="M435.16,165.4c0.34,3.76,3.81,11.4,6.16,9.29,2.86-2.57,8.8-3.2,9.19-7,0.61-5.89-4.64-9.45-7.46-8.06S434.83,161.64,435.16,165.4Z" transform="translate(0 -1)"/><path class="cls-11" d="M434.83,178.67c5.84-.75,11.57-3.88,11.6-7.59,0-3.54-5.46-9.52-11.32-9.25s-10.63,3.93-10.83,9.24C424.13,175.54,428.81,179.44,434.83,178.67Z" transform="translate(0 -1)"/><path class="cls-4" d="M423.72,173.5c0.81,3.55,4.52,6,9.88,5.89a87,87,0,0,1-.46-11.34c0-1.47,3.65-.43,4-0.76s-2.43-1.63-2-1.9c3.28-1.94,7.16-1.12,7.13-1.56-0.09-1.34-7.48-5.13-14-1.6C422.5,165.43,423.29,171.62,423.72,173.5Z" transform="translate(0 -1)"/><path class="cls-29" d="M434.21,163.56a7.14,7.14,0,0,1,.94,3.42l2,0.32a15.31,15.31,0,0,0-.79-3.71,21.71,21.71,0,0,0-2.39-2.77l-2,.15A10.72,10.72,0,0,1,434.21,163.56Z" transform="translate(0 -1)"/><path class="cls-4" d="M441.79,173.47a3,3,0,0,0,3.51,2.71,3.41,3.41,0,0,0,2.94-3.61,3,3,0,0,0-3.51-2.71A3.41,3.41,0,0,0,441.79,173.47Z" transform="translate(0 -1)"/><path class="cls-30" d="M423.66,173.21a11.53,11.53,0,0,0,3.59,3,10.59,10.59,0,0,0,6.16,1.13c-0.07-.84-0.14-1.92-0.19-3.2a8.94,8.94,0,0,1-4.85-.74,8.12,8.12,0,0,1-4.62-5.31A12.15,12.15,0,0,0,423.66,173.21Z" transform="translate(0 -1)"/><path class="cls-29" d="M433.76,180.49c0.92,0.4,6.67-1.24,7-1.65a6.5,6.5,0,0,0,.08-2.38c0-.38.72-0.66,0.64-1.53s-1.38-2.26-1.32-2.59a36.94,36.94,0,0,0-.42-4.77c-0.14-.3-5.36-1.14-6.37-0.39S433.32,180.3,433.76,180.49Z" transform="translate(0 -1)"/><path class="cls-9" d="M434.28,180.66c0.29,0.26,5.25-1.09,5.55-1.34s0.08-2.24-.11-2.62-3.94-.71-4-0.88,3.62-2.24,3.68-2.58a29.69,29.69,0,0,0-.35-4.28c-0.14-.3-4.17-1.19-5.17-0.44S433.93,180.34,434.28,180.66Z" transform="translate(0 -1)"/><path class="cls-15" d="M482.91,138.42c4.53,3.77,4.91,9.87,4.91,9.87l3.07-2.89s-0.46-4.72-5.08-10.66S467,127.06,467,127.06l-0.45,5S478.38,134.65,482.91,138.42Z" transform="translate(0 -1)"/><path class="cls-31" d="M487.23,147.66l1.28,1.17a2.14,2.14,0,0,0,3-.18l2.77-2.92a2.06,2.06,0,0,0,0-2.93L493,141.63a2.14,2.14,0,0,0-3,.18l-2.77,2.92A2.06,2.06,0,0,0,487.23,147.66Z" transform="translate(0 -1)"/><path class="cls-31" d="M472.23,132.7a2,2,0,0,0,1.13,2.65l1.66,0.59a2.22,2.22,0,0,0,2.75-1.26l1.52-3.68a2,2,0,0,0-1.13-2.65l-1.66-.59a2.22,2.22,0,0,0-2.75,1.26Z" transform="translate(0 -1)"/><path class="cls-6" d="M483.48,61.88s-0.78-3.32-1.06-5.11c-0.11-.72-1.64-8.82-2.28-17.41l0,0.5c-0.77,11.41,1.67,24.49,1.87,25.49a25.38,25.38,0,0,0,1.63,4.44l5,0A14.1,14.1,0,0,0,492.91,62c0.41-2.6,1.84-12.87,3-22.3,0-.21.06-0.41,0.09-0.62-2,7.46-3.2,12.92-3.47,14.86-0.91,6.67-1.92,7.22-1.92,7.22Z" transform="translate(0 -1)"/><path class="cls-31" d="M441.84,157.41c-0.52-.89-0.87-1.72-1.32-2.58-1.8-1.66-4-4-3.34-7.46,0.39-1.94,1.53-3.18,3.12-3.39,2.19-.29,5.19,1.42,6.67,5.26,3.41,8.72-1.88,22.21-1.94,22.35l1.14,0.39c0.22-.54,5-12.75,2.4-21.85q-0.2-.7-0.46-1.37c-1.78-4.6-5.35-6.32-7.92-6-2.15.29-3.74,1.94-4.23,4.42C435,152,439.06,155.6,441.84,157.41Z" transform="translate(0 -1)"/><path class="cls-29" d="M441.84,174a3,3,0,0,0,3.51,2.71,3.41,3.41,0,0,0,2.94-3.61,3,3,0,0,0-3.51-2.71A3.41,3.41,0,0,0,441.84,174Z" transform="translate(0 -1)"/><path class="cls-30" d="M476.6,102.4l-0.49,5.77-0.1.06a42.24,42.24,0,0,0-5.88,9.24c0.06-.07,8.37-10.12,10.66-11.94a19.35,19.35,0,0,1,5.37-2.56l0.05-.62c0-.05,0-0.1,0-0.15a53.83,53.83,0,0,0,1.41-9.15c0.07-.67.14-1.83,0.2-3.28a25.74,25.74,0,0,0-5,2.38,49.63,49.63,0,0,0-6.63,5.42A16.3,16.3,0,0,0,476.6,102.4Z" transform="translate(0 -1)"/><path class="cls-32" d="M498.7,111.3s6.41-2.48,8.37-1.44,2,6.78,2,6.84a39.71,39.71,0,0,0,3.07-6.69l0-.08v0h0c0.33-1.52-.45-4-6-7.69a16,16,0,0,0-5.16.56c-3.94,1.35-5.77,6.61-5.77,6.61Z" transform="translate(0 -1)"/><path class="cls-33" d="M337,38.78c-0.7,1.09.31,10.77,0.31,10.77s8.18-10.16,6.19-13.48C343.23,35.62,337.69,37.68,337,38.78Z" transform="translate(0 -1)"/><path class="cls-34" d="M296.66,70.35s1,1.47.78,2.35-1.07,3.09-1.07,3.09a22.37,22.37,0,0,0,4.77,1.42,15.9,15.9,0,0,0,3.19-.15L307,73.34a50.53,50.53,0,0,0-5.41-3A31.45,31.45,0,0,0,296.66,70.35Z" transform="translate(0 -1)"/><path class="cls-34" d="M403.25,114.22c-2.13-.66-6.62,4-8.53,5.11-3.94,2.26-115,44.64-117.79,44.8s-8.86-.66-9.52,0,3.61,6.1,9.52,6.26,121.73-47.46,122.39-48S405.38,114.88,403.25,114.22Z" transform="translate(0 -1)"/><path class="cls-6" d="M409.91,103.7c-2.22-.21-5.67,5.28-7.32,6.74-3.4,3-97.17,74.73-99.87,75.46s-8.81,1.16-9.32,1.94,4.77,5.23,10.58,4.19,103.19-78.86,103.72-79.55S412.13,103.91,409.91,103.7Z" transform="translate(0 -1)"/><path class="cls-34" d="M345.48,86.61S319,101.52,318.23,104.82s8.86,20.28,10.26,21.6,3,0.45,4.87,2.3c0.36,0.36,4.17-1,5.26-1.41s1.2-3.25,2-5.58c0.62-1.89-6.94-10.26-6.94-10.26s22.85-9,27.12-10.26,11.48-8.41,11.16-13.35S348.25,84.61,345.48,86.61Z" transform="translate(0 -1)"/><path class="cls-33" d="M335.84,54.22c-2.69-.7-6,3.17-7.46,5.71s-8,14.24-7.27,18.65c0.27,1.61,2.85,1.87,4,1.83,3.69-.13,9.62-9.39,12.23-16.11C338.6,61,337.91,54.76,335.84,54.22Z" transform="translate(0 -1)"/><path class="cls-33" d="M320.67,72.8c-1.1-.16-15.9-1.55-15.9-1.55l-1.48,6.45s9.06,2.74,12.9,3.5,10.17-.33,11.36-2.08C329.59,76.11,321.77,73,320.67,72.8Z" transform="translate(0 -1)"/><path class="cls-6" d="M333.84,38.59l-5.38,7.16s6.41,4.66,6.68,5.25a0.4,0.4,0,0,1,0,.2c-0.72,2.54,2.89,11.68,4.1,10.9,2.65-1.7,3-14.26,1.66-17.29C339.74,43.75,333.84,38.59,333.84,38.59Z" transform="translate(0 -1)"/><path class="cls-26" d="M331.17,127.47l2,3.55,4.54-2.64s-3.14-1.85-4-1.63Z" transform="translate(0 -1)"/><path class="cls-35" d="M338.45,123.71c-1,.38-2.48,4.07-3.11,4.72s-3,1.22-2.9,1.49,1.78,3.11,1.78,3.11l7.59-3.9L340.34,123S339.45,123.33,338.45,123.71Z" transform="translate(0 -1)"/><path class="cls-6" d="M343,133.39c-0.61-2.09-1.66-7.51-1.66-7.51s-1.61.56-1.89,1.37-0.38,1.92-1,2.27-5,2-5,2,1.1,4.05,1.11,4.33-2,4.88-2.58,5.4-7.31,4.61-7.88,5.41a1.93,1.93,0,0,0-.23,1.87,2,2,0,0,0,2.33,1.45c0.31-.09,20.3-7.38,20.66-7.9s-0.22-2.93-1.1-3.95A13.19,13.19,0,0,1,343,133.39Z" transform="translate(0 -1)"/><path class="cls-36" d="M333.35,131.58s1.22,4,1.24,4.32-2,4.88-2.58,5.4c-0.35.3-2.68,1.76-4.72,3.1,0.29,0.46,8.82-1.47,10.16-5.3,1.2-3.44-.73-7.79-1.14-8.66C334.94,131,333.35,131.58,333.35,131.58Z" transform="translate(0 -1)"/><path class="cls-35" d="M339.71,132.22a0.76,0.76,0,0,0-.93-0.53l-5.42,1.52,0.48,1.74,5.42-1.52a0.76,0.76,0,0,0,.53-0.94Z" transform="translate(0 -1)"/><path class="cls-35" d="M338.25,140.58l-5-2.59-0.82,1.61,5,2.59a0.76,0.76,0,0,0,1-.33l0.13-.25A0.76,0.76,0,0,0,338.25,140.58Z" transform="translate(0 -1)"/><path class="cls-35" d="M330.82,141.3l-1.44,1.08,2.15,3.08a0.76,0.76,0,0,0,1.06.15l0.23-.17a0.76,0.76,0,0,0,.15-1.06Z" transform="translate(0 -1)"/><path class="cls-6" d="M352.87,87.28c-0.76,1.35-22.41,16.72-22.41,23.29,0,2.32,11.88,21,13.52,22.33a4.53,4.53,0,0,0,2.8,1.12c0.5,0.22,2.95-1.55,3.85-1.83s2.6-2.08,2.53-5.33-6.69-15.44-6.48-15.44c1.92,0,16.53-8.38,21.77-14,4.85-5.22,4.39-12,3.08-13.66S354,85.21,352.87,87.28Z" transform="translate(0 -1)"/><path class="cls-37" d="M351.38,45c-2.51-1.58-7.87.2-10.26-.1a0.47,0.47,0,0,1-.21-0.13c0.77,4-.73,6.77-2.28,8-0.91.74-3.51,0-3.49-1.64-0.14,1.1-3.33,4-3.56,5.47-0.38,2.48,2.2,9.43,3.78,11.89,1.09,1.69,5.07,6.11,5.56,11.74,0.12,1.35-1.06,4.94-.32,8.08,4.27,3.55,25.47,4.83,32.15,2.54,0.43-11.2-5-23-6.3-26.27C361.55,52.76,354.43,47,351.38,45Z" transform="translate(0 -1)"/><path class="cls-33" d="M346.24,87.94c-1.27-2.1,22.45-15,21.31-20.66s-26.46,6-28.79,3-4.08-10.55,1.51-13.7,16.06,0.93,16.06.93l2.45-5.69A33.31,33.31,0,0,0,351.38,45c-2.51-1.58-7.87.2-10.26-.1a0.47,0.47,0,0,1-.21-0.13c0.77,4-.73,6.77-2.28,8-0.91.74-3.51,0-3.49-1.64-0.14,1.1-3.33,4-3.56,5.47-0.38,2.48,2.2,9.43,3.78,11.89,1.09,1.69,5.07,6.11,5.56,11.74,0.12,1.35-1.06,4.94-.32,8.08,4.27,3.54,25.44,4.83,32.13,2.54-2.37.15-7.77,0.48-11.36,0.58C356.66,91.62,347.51,90,346.24,87.94Z" transform="translate(0 -1)"/><path class="cls-18" d="M358,46c-3-1.87-9.23-2.37-10.15-.44-1.19,2.52,2,6.51,4.18,8.43s12.42,10.6,16.87,10.69c1.63,0,2.37-2.46,2.54-3.58C372.05,57.4,364.12,49.81,358,46Z" transform="translate(0 -1)"/><path class="cls-26" d="M347.94,132.39l-2.24,1.45,2.93,2.8,3.56-3.88S348.64,131.94,347.94,132.39Z" transform="translate(0 -1)"/><path class="cls-35" d="M351.54,128.09c-0.85.66-1.17,4.62-1.58,5.43s-2.47,2-2.33,2.28,2.62,2.45,2.62,2.45l6.1-6-3.19-5.4S352.39,127.43,351.54,128.09Z" transform="translate(0 -1)"/><path class="cls-38" d="M362.81,139.74a13.14,13.14,0,0,1-4-3.76c-1.2-1.81-3.8-6.68-3.8-6.68s-1.37,1-1.4,1.87,0.2,1.95-.33,2.48-4.16,3.43-4.16,3.43,2.24,3.54,2.34,3.81-0.44,5.25-.87,5.93-5.62,6.58-5.93,7.51a1.93,1.93,0,0,0,.33,1.86,2,2,0,0,0,2.65.69c0.27-.18,17.21-13.08,17.4-13.69S364,140.44,362.81,139.74Z" transform="translate(0 -1)"/><path class="cls-26" d="M349,137.12s2.36,3.49,2.45,3.76-0.44,5.25-.87,5.93c-0.25.39-2,2.47-3.59,4.37,0.42,0.36,8-4,8.14-8.09,0.13-3.64-3-7.22-3.64-7.93C350.34,136.08,349,137.12,349,137.12Z" transform="translate(0 -1)"/><path class="cls-35" d="M355.26,135.85a0.76,0.76,0,0,0-1-.23l-4.73,3.07,1,1.52,4.73-3.07a0.76,0.76,0,0,0,.23-1.05Z" transform="translate(0 -1)"/><path class="cls-35" d="M356.33,144.26l-5.55-1-0.31,1.78,5.55,1a0.76,0.76,0,0,0,.88-0.62l0-.28A0.76,0.76,0,0,0,356.33,144.26Z" transform="translate(0 -1)"/><path class="cls-35" d="M349.44,147.16l-1.06,1.46,3,2.3a0.76,0.76,0,0,0,1.06-.17l0.17-.23a0.76,0.76,0,0,0-.17-1.06Z" transform="translate(0 -1)"/><path class="cls-11" d="M335.27,31.72c-4.81-3.17-10.81.28-11.49,3.51-0.85,4,.46,4.49.59,5.31,0.47,3.08.12,4.44,0.62,5.15,0.19,0.26,1.27-.15,1.27-0.15s0.77,2.1,1.36,3.77c0.31,0.9,2.69.16,4.94-.26a9.5,9.5,0,0,0,5.06-3.29,12,12,0,0,0,1.05-6.54C338.17,34.45,336.19,32.31,335.27,31.72Z" transform="translate(0 -1)"/><path class="cls-6" d="M337,29.5c-7.8-3.6-14.77,3.11-15.65,4.75s-2.94,6.51-2.39,6.56,9.17-3.74,10.25-2.25c4.2,5.74-5.49,8.45-5,9.39,0.67,1.36,1.23,1.8,3.13,2.84a5.4,5.4,0,0,0,3.44.88c2.3-.53,10.8-7.59,10.8-7.59S344,32.76,337,29.5Z" transform="translate(0 -1)"/><path class="cls-15" d="M318.34,39.4a1.29,1.29,0,0,0,.59,1.41c0.3,0,4.92-1.85,7.06-2.22a2.42,2.42,0,0,0-.15-0.38C325.33,37.36,320.41,39,318.34,39.4Z" transform="translate(0 -1)"/><path class="cls-34" d="M337,29.5a11,11,0,0,0-4.73-1c0.27,0.1.54,0.19,0.81,0.31,7.06,3.26,4.56,14.58,4.56,14.58s-7.49,6.23-10.31,7.42a5.41,5.41,0,0,0,3.43.89c2.3-.53,10.8-7.59,10.8-7.59S344,32.76,337,29.5Z" transform="translate(0 -1)"/><path class="cls-39" d="M328.9,37.61c-0.36,0-7.06,2.22-7.06,2.22s2.9,7.31,3.09,7.31a42.72,42.72,0,0,0,4.56-3c1.08-.85,1.18-4,1.18-4.56A3.64,3.64,0,0,0,328.9,37.61Z" transform="translate(0 -1)"/><polygon class="cls-7" points="287.5 156.45 289.42 152.35 286.59 152.02 287.5 156.45"/><ellipse class="cls-6" cx="287.96" cy="153.37" rx="1.92" ry="3.83" transform="translate(106.11 423.24) rotate(-84.16)"/><path class="cls-40" d="M299,66.21a0.68,0.68,0,0,0-.76.59l-10.9,85.79a0.68,0.68,0,1,0,1.36.17L299.59,67A0.69,0.69,0,0,0,299,66.21Z" transform="translate(0 -1)"/><polygon class="cls-7" points="383.65 157.68 387.12 160.56 386.06 156.16 383.65 157.68"/><path class="cls-6" d="M384.18,156.38c-1.92.89-3.11,2.39-2.67,3.36s2.36,1,4.28.13,3.11-2.39,2.67-3.36S386.09,155.49,384.18,156.38Z" transform="translate(0 -1)"/><path class="cls-40" d="M342.83,70.16a0.68,0.68,0,1,0-1.23.6l42.49,87.16a0.68,0.68,0,1,0,1.23-.6Z" transform="translate(0 -1)"/><path class="cls-6" d="M345.22,71.11a31.63,31.63,0,0,0-3.59,3.39s1.74,0.37,2.17,1.17,1.33,3,1.33,3a22.4,22.4,0,0,0,4.44-2.25,16,16,0,0,0,2.22-2.31l-0.61-4.55A50.42,50.42,0,0,0,345.22,71.11Z" transform="translate(0 -1)"/><path class="cls-6" d="M347.83,75.78a0.73,0.73,0,0,0-1-.17l-2.54,1.84a0.74,0.74,0,0,0-.17,1h0a0.73,0.73,0,0,0,1,.17l2.54-1.85a0.74,0.74,0,0,0,.17-1h0Z" transform="translate(0 -1)"/><path class="cls-6" d="M346.92,74.74a0.73,0.73,0,0,0-1-.17l-2.54,1.85a0.74,0.74,0,0,0-.17,1h0a0.73,0.73,0,0,0,1,.17l2.54-1.85a0.74,0.74,0,0,0,.17-1h0Z" transform="translate(0 -1)"/><path class="cls-6" d="M346.1,73.67a0.73,0.73,0,0,0-1-.17l-2.54,1.85a0.74,0.74,0,0,0-.17,1h0a0.73,0.73,0,0,0,1,.17l2.54-1.85a0.74,0.74,0,0,0,.17-1h0Z" transform="translate(0 -1)"/><path class="cls-6" d="M345.4,72.57a0.73,0.73,0,0,0-1-.17l-2.54,1.85a0.74,0.74,0,0,0-.17,1h0a0.73,0.73,0,0,0,1,.17l2.54-1.84a0.74,0.74,0,0,0,.17-1h0Z" transform="translate(0 -1)"/><path class="cls-18" d="M361.8,61.54c-1,.52-13.72,8.22-13.72,8.22l2.62,6.08s8.91-3.19,12.45-4.87,8-6.33,7.91-8.44C370.93,58.89,362.78,61,361.8,61.54Z" transform="translate(0 -1)"/><path class="cls-18" d="M348.08,40.35a1.79,1.79,0,0,1-1.14-1.76c0-.8-3.44-2.53-3.44-2.53a51.24,51.24,0,0,1-2.18,5.69c-0.6.92-4,11.91-4,11.91s8.89-2,9.94-3.29,0.09-2.49.49-4.39,2.24-1.57,2.48-2.43S348.73,40.48,348.08,40.35Z" transform="translate(0 -1)"/><path class="cls-33" d="M334.51,50.37a5.19,5.19,0,0,0-.91,2.2c-0.09,1.08,3.71,1.09,3.71,1.09a12.81,12.81,0,0,0-1-1.94A13.16,13.16,0,0,0,334.51,50.37Z" transform="translate(0 -1)"/><path class="cls-6" d="M299.66,74.73l-3.11-.41a0.74,0.74,0,0,0-.82.63h0a0.74,0.74,0,0,0,.63.83l3.11,0.41a0.74,0.74,0,0,0,.82-0.63h0A0.74,0.74,0,0,0,299.66,74.73Z" transform="translate(0 -1)"/><path class="cls-6" d="M299.71,73.35l-3.11-.41a0.74,0.74,0,0,0-.82.63h0a0.74,0.74,0,0,0,.63.83l3.11,0.41a0.74,0.74,0,0,0,.82-0.63h0A0.74,0.74,0,0,0,299.71,73.35Z" transform="translate(0 -1)"/><path class="cls-6" d="M299.84,72l-3.11-.41a0.74,0.74,0,0,0-.82.63h0a0.74,0.74,0,0,0,.63.83l3.11,0.41a0.74,0.74,0,0,0,.82-0.63h0A0.74,0.74,0,0,0,299.84,72Z" transform="translate(0 -1)"/><path class="cls-6" d="M300.09,70.73L297,70.32a0.74,0.74,0,0,0-.82.63h0a0.74,0.74,0,0,0,.63.83l3.11,0.41a0.74,0.74,0,0,0,.82-0.63h0A0.74,0.74,0,0,0,300.09,70.73Z" transform="translate(0 -1)"/></g></g></svg>