<svg xmlns="http://www.w3.org/2000/svg" viewBox="0 0 46.71 49.18"><defs><style>.cls-1,.cls-3,.cls-4{fill:#fff;}.cls-1,.cls-3{stroke:#231f20;stroke-miterlimit:10;}.cls-2{fill:#231f20;}.cls-3{stroke-width:1.5px;}</style></defs><title>Asset 21</title><g id="Layer_2" data-name="Layer 2"><g id="Layer_1-2" data-name="Layer 1"><path class="cls-1" d="M22.24,25.12,11,44.53H34.6L23.39,25.12A.66.66,0,0,0,22.24,25.12Z"/><path class="cls-2" d="M21.73,29.56l-4.16,6.89c.12.43.3.58.44.63.57.23,1.56-.64,2.41-1.39a7.41,7.41,0,0,1,.6-.44c.4-.27.53-.32.67-.31s.31.15.53.34.77.64,1.16.6c.64-.08.64-1.59,1.26-1.67.4-.06.58.53,1.47.86a3.17,3.17,0,0,0,.87.16L23.7,29.56A1.14,1.14,0,0,0,21.73,29.56Z"/><path class="cls-1" d="M33.48,29.27,22.27,48.68H45.84L34.64,29.27A.67.67,0,0,0,33.48,29.27Z"/><path class="cls-1" d="M12.07,29.27.87,48.68H24.44L13.23,29.27A.67.67,0,0,0,12.07,29.27Z"/><path class="cls-2" d="M12,33.44,8.69,38.86c.09.34.23.46.34.5.45.18,1.24-.51,1.9-1.09a4.37,4.37,0,0,1,.47-.35c.32-.21.42-.26.53-.25s.25.12.42.27.6.51.91.47c.51-.06.51-1.25,1-1.31.31-.05.45.42,1.16.67a2,2,0,0,0,.68.13l-2.58-4.46A.89.89,0,0,0,12,33.44Z"/><path class="cls-2" d="M33.62,35.16l-3.4,5.62c.09.36.24.48.35.52.47.18,1.28-.53,2-1.13a4.86,4.86,0,0,1,.49-.36c.33-.23.43-.27.55-.26s.26.13.44.28.62.52.94.48c.53-.06.52-1.29,1-1.36.33,0,.48.44,1.2.7a2.3,2.3,0,0,0,.71.14l-2.67-4.63A.93.93,0,0,0,33.62,35.16Z"/><path class="cls-3" d="M20.63,15.51v1.17H9a1.4,1.4,0,0,1-.32-.91,1.53,1.53,0,0,1,1.52-1.52c.25,0,.43-.48.43-.83a2.1,2.1,0,0,1,.73-1.6,2.09,2.09,0,0,1,2.78,0,2.1,2.1,0,0,1,.73,1.6c0,.31.59.47,1,.47A2.13,2.13,0,0,1,17.72,15a2.14,2.14,0,0,1,1.18-.36A2.09,2.09,0,0,1,20.63,15.51Z"/><path class="cls-3" d="M25.46,6.34V7.51H13.77a1.47,1.47,0,0,1-.31-.91A1.52,1.52,0,0,1,15,5.08c.24,0,.42-.48.42-.83a2.13,2.13,0,0,1,4.25,0c0,.3.59.47,1,.47A2.11,2.11,0,0,1,22.54,5.8a2.13,2.13,0,0,1,2.92.54Z"/><path class="cls-1" d="M39,11.59A12.15,12.15,0,0,1,36.37,18c-.91,1.24-1.92,2.4-2.85,3.63A5.83,5.83,0,0,0,32,25.36a1,1,0,0,1,0,.35c-.13.41-.86.19-1.17.19H27.16c-.32,0-1,.22-1.18-.19a1.36,1.36,0,0,1,0-.35,6,6,0,0,0-1.59-3.7c-.92-1.23-1.93-2.39-2.84-3.63a12.07,12.07,0,0,1-2.63-6.44,10.79,10.79,0,0,1,1.55-5.94A10.33,10.33,0,0,1,29,.51s0,0,0,0a10.33,10.33,0,0,1,8.49,5.14A10.71,10.71,0,0,1,39,11.59Z"/><path class="cls-2" d="M26.44.86A8.19,8.19,0,0,0,24.31,3.4a9.46,9.46,0,0,0-1.15,3,16.34,16.34,0,0,0-.27,3.2c0,.54.08,1.09.15,1.62s.18,1.07.29,1.62a24.41,24.41,0,0,0,1.88,6.31,16.5,16.5,0,0,1,1.43,3.23,12.23,12.23,0,0,1,.15,3.51h-.1a14.13,14.13,0,0,0-.55-3.36,16.42,16.42,0,0,0-1.6-3A22.47,22.47,0,0,1,22.35,13a14.87,14.87,0,0,1,.06-6.83,8.9,8.9,0,0,1,4-5.43Z"/><path class="cls-2" d="M31.59.77a7.27,7.27,0,0,1,2.84,2.09A10.21,10.21,0,0,1,36.17,6a14.61,14.61,0,0,1,.24,7.16c-.27,1.14-.55,2.27-.93,3.39A13.33,13.33,0,0,1,34,19.84a16.4,16.4,0,0,0-1.77,2.83,17.06,17.06,0,0,0-.94,3.23h-.09a14.43,14.43,0,0,1,.53-3.39,16.28,16.28,0,0,1,1.59-3A22.45,22.45,0,0,0,35.43,13a14.66,14.66,0,0,0,0-6.75A8.8,8.8,0,0,0,31.54.86Z"/><path class="cls-2" d="M28.1.71a13.81,13.81,0,0,0-.79,3.08A20.37,20.37,0,0,0,27,6.91a36.76,36.76,0,0,0,.26,6.28c.13,2.12.47,4.2.75,6.32.13,1.07.29,2.14.39,3.23A10.08,10.08,0,0,1,28.11,26H28c.25-2.14-.37-4.25-.77-6.36a61.76,61.76,0,0,1-1-6.38,31.6,31.6,0,0,1-.05-6.45A15.84,15.84,0,0,1,28,.66Z"/><path class="cls-2" d="M30.16.66a10.06,10.06,0,0,1,1.61,2.88,21.11,21.11,0,0,1,.82,3.22,28.6,28.6,0,0,1,.13,6.6,48.15,48.15,0,0,1-1.17,6.43c-.29,1-.59,2.07-.84,3.1A12.67,12.67,0,0,0,30.17,26h-.1c-.27-2.17.34-4.3.72-6.4a59.24,59.24,0,0,0,.93-6.37,32,32,0,0,0,.1-6.42A16,16,0,0,0,30.08.71Z"/><path class="cls-2" d="M32.25,30H26.16a.73.73,0,0,1-.54-.25v2.72a1.09,1.09,0,0,0,1.1,1.09h5a1.09,1.09,0,0,0,1.09-1.09V29.77A.72.72,0,0,1,32.25,30Zm.08,2.47a.64.64,0,0,1-.64.64h-5a.64.64,0,0,1-.65-.64v-2.3h6.26Z"/><path class="cls-4" d="M32.33,30.19v2.3a.64.64,0,0,1-.64.64h-5a.64.64,0,0,1-.65-.64v-2.3Z"/><path class="cls-2" d="M32.38,28.2a.3.3,0,0,0-.13,0H26.09A1.14,1.14,0,0,0,25,29.33a1.1,1.1,0,0,0,.61,1,1,1,0,0,0,.45.13v-.27h6.26v.27a1,1,0,0,0,.45-.13,1.1,1.1,0,0,0,.61-1A1.13,1.13,0,0,0,32.38,28.2Zm.4,1.57a.72.72,0,0,1-.53.25H26.16a.73.73,0,0,1-.54-.25.66.66,0,0,1-.16-.44.7.7,0,0,1,.7-.69h6.09a.69.69,0,0,1,.69.69A.66.66,0,0,1,32.78,29.77Z"/><rect class="cls-4" x="28.75" y="28.64" width="0.9" height="0.01"/><path class="cls-4" d="M32.94,29.33a.66.66,0,0,1-.16.44.72.72,0,0,1-.53.25H26.16a.73.73,0,0,1-.54-.25.66.66,0,0,1-.16-.44.7.7,0,0,1,.7-.69h6.09A.69.69,0,0,1,32.94,29.33Z"/><polygon class="cls-2" points="27.59 26.02 27.02 28.18 26.91 28.64 26.43 28.64 26 28.53 26.09 28.19 26.73 25.78 27.59 26.02"/><rect class="cls-2" x="28.75" y="25.9" width="0.9" height="2.75"/><polygon class="cls-2" points="32.46 28.53 32.05 28.64 31.57 28.64 31.45 28.18 30.9 26.07 31.78 25.84 32.38 28.2 32.46 28.53"/></g></g></svg>