<svg xmlns="http://www.w3.org/2000/svg" viewBox="0 0 47.34 36.9"><defs><style>.cls-1,.cls-4,.cls-6{fill:#fff;}.cls-2,.cls-3{fill:#231f20;}.cls-3,.cls-4,.cls-5,.cls-6{stroke:#231f20;stroke-miterlimit:10;}.cls-5{fill:none;}.cls-6{stroke-width:0.5px;}</style></defs><title>Asset 17</title><g id="Layer_2" data-name="Layer 2"><g id="Layer_1-2" data-name="Layer 1"><path class="cls-1" d="M42,13.53c-.23,3.34-3.8,6-8.15,6a9.54,9.54,0,0,1-5.63-1.75,5.86,5.86,0,0,1-2.53-4.25V12.6L27.16,1.51A1.73,1.73,0,0,1,28.87,0h10.2a1.72,1.72,0,0,1,1.71,1.49Z"/><path class="cls-2" d="M40.78,1.49A1.72,1.72,0,0,0,39.07,0H28.87a1.73,1.73,0,0,0-1.71,1.51L25.72,12.6v.93a5.86,5.86,0,0,0,2.53,4.25,9.54,9.54,0,0,0,5.63,1.75c4.35,0,7.92-2.66,8.15-6Zm-11.91.17,10.26.05L40.3,11.87H27.49Zm5,16.21c-3.42,0-6.23-1.91-6.48-4.34h13C40.11,16,37.31,17.87,33.89,17.87Z"/><line class="cls-3" x1="34.16" y1="18.45" x2="34.16" y2="36.4"/><path class="cls-4" d="M1.25,14H4.92a.43.43,0,0,1,.43.43V36.17a0,0,0,0,1,0,0H.82a0,0,0,0,1,0,0V14.45A.43.43,0,0,1,1.25,14Z"/><line class="cls-5" x1="10.56" y1="21.4" x2="10.56" y2="18.45"/><line class="cls-5" x1="3.08" y1="14.22" x2="3.08" y2="11.26"/><line class="cls-4" x1="5.35" y1="31.71" x2="47.34" y2="31.69"/><polygon class="cls-4" points="44.27 31.7 39.34 36.4 13.05 36.4 8.28 31.7 44.27 31.7"/><path class="cls-4" d="M21.1,31.3c0,.13,0,.27,0,.4H13.38c0-.13,0-.27,0-.4a3.87,3.87,0,1,1,7.73,0Z"/><path class="cls-4" d="M21.41,28.79h7.07a.39.39,0,0,1,.39.39V31.7a0,0,0,0,1,0,0H21.41a0,0,0,0,1,0,0V28.79A0,0,0,0,1,21.41,28.79Z"/><path class="cls-4" d="M5.35,7.72c1.08,1.84-1,3.86-2.28,3.86S-.28,9.56.8,7.72c2.27-3.85,2-3.39,2.27-3.85C3.63,2.92,3.07,3.87,5.35,7.72Z"/><path class="cls-4" d="M12.74,15.12C13.83,17,11.73,19,10.47,19s-3.36-2-2.28-3.85l2.28-3.86C11,10.31,10.47,11.26,12.74,15.12Z"/><path class="cls-6" d="M16.39,17.3a3.43,3.43,0,0,1-.14.42,2.2,2.2,0,0,1-.3.43,9.49,9.49,0,0,0-.85.94,1.93,1.93,0,0,0-.38,1.15,1.63,1.63,0,0,0,.61,1,6.1,6.1,0,0,1,1,.95c.24.37,0,.88-.19,1.22-.35.6-1.12,1.51-.36,2.14a1,1,0,0,0,1.07,0c.17-.08.71-.44.41-.69s-.09-.7.12-1a3.69,3.69,0,0,0,.59-1.17,1.33,1.33,0,0,0-.15-1.18,11.57,11.57,0,0,0-1.06-1,.88.88,0,0,1-.27-1.09,3.83,3.83,0,0,1,.76-.94c.42-.45,1.26-1.55.46-2a1.19,1.19,0,0,0-1.14.13c-.25.16-.46.49-.13.68Z"/><path class="cls-6" d="M21,16.73a4.11,4.11,0,0,1-.14.42,1.87,1.87,0,0,1-.3.42c-.28.32-.6.6-.85.95a1.82,1.82,0,0,0-.37,1.15,1.57,1.57,0,0,0,.6,1,6.1,6.1,0,0,1,.95.95c.24.36,0,.88-.19,1.22-.35.6-1.12,1.51-.36,2.14a1.07,1.07,0,0,0,1.07,0c.17-.08.71-.45.41-.69s-.09-.7.12-1a3.79,3.79,0,0,0,.59-1.17A1.33,1.33,0,0,0,22.37,21a10.43,10.43,0,0,0-1.06-1A.88.88,0,0,1,21,18.88a3.65,3.65,0,0,1,.76-.94c.42-.45,1.26-1.55.46-2a1.19,1.19,0,0,0-1.14.13c-.24.16-.46.48-.13.68Z"/><path class="cls-6" d="M25.37,16.73a4.11,4.11,0,0,1-.14.42,1.87,1.87,0,0,1-.3.42,10.88,10.88,0,0,0-.85.95,1.89,1.89,0,0,0-.38,1.15,1.63,1.63,0,0,0,.61,1,6.1,6.1,0,0,1,1,.95c.24.36,0,.88-.19,1.22-.35.6-1.12,1.51-.36,2.14a1.07,1.07,0,0,0,1.07,0c.17-.08.71-.45.41-.69s-.09-.7.12-1a3.79,3.79,0,0,0,.59-1.17A1.33,1.33,0,0,0,26.75,21a11.57,11.57,0,0,0-1.06-1,.89.89,0,0,1-.28-1.09,3.91,3.91,0,0,1,.77-.94c.42-.45,1.26-1.55.46-2a1.19,1.19,0,0,0-1.14.13c-.25.16-.46.48-.13.68Z"/><path class="cls-4" d="M8.72,21.4h3.68a.43.43,0,0,1,.43.43V36.17a0,0,0,0,1,0,0H8.29a0,0,0,0,1,0,0V21.83A.43.43,0,0,1,8.72,21.4Z"/></g></g></svg>