<svg xmlns="http://www.w3.org/2000/svg" viewBox="0 0 45.17 45.38"><defs><style>.cls-1,.cls-2{fill:#fff;stroke:#231f20;stroke-miterlimit:10;}.cls-2{stroke-width:2px;}.cls-3{fill:#231f20;}</style></defs><title>Asset 27</title><g id="Layer_2" data-name="Layer 2"><g id="Layer_1-2" data-name="Layer 1"><path class="cls-1" d="M41.13,14h-1.5a11.94,11.94,0,0,0-23.87-.57c0,.2,0,.39,0,.57h-1.5c0-.22,0-.45,0-.66A13.44,13.44,0,0,1,41.13,14Z"/><path class="cls-2" d="M43.75,23.89,33.86,35.66a10.75,10.75,0,0,1-2.89.12h0c-.49,0-.89-.06-1.33-.06,0,0-8.48,0-8.5,0a8.65,8.65,0,0,0-4,1.3l-2.7-.37L9.08,31.34a2.32,2.32,0,0,1-.66-1.4,8.81,8.81,0,0,1,7.8-4.71,3.44,3.44,0,0,1,.64,0,8.66,8.66,0,0,1,3.25.87,1.93,1.93,0,0,0,.85.2H31.24a2,2,0,1,1,0,3.92H24.17c.07.22.44,1.54.74,1.54H28.7c1.1,0,2.55.25,3.59-.18s1.63-1.72,2.31-2.55c.85-1,1.75-2,2.61-3,1.06-1.26,2-2.6,3-3.94.78-1.09,2-2,3.22-1A2,2,0,0,1,43.75,23.89Z"/><path class="cls-2" d="M13.42,41.94l-.63.64h0l-1.1,1.09a2.38,2.38,0,0,1-3.38,0L1.71,37.09a2.4,2.4,0,0,1,0-3.41L3.43,32a2.39,2.39,0,0,1,3.08-.26,1.26,1.26,0,0,1,.31.26l6.6,6.58a2.3,2.3,0,0,1,.34.43A2.44,2.44,0,0,1,13.42,41.94Z"/><circle class="cls-3" cx="40.42" cy="15.75" r="0.86"/><circle class="cls-3" cx="40.42" cy="18.39" r="0.86"/><circle class="cls-2" cx="27.69" cy="15.52" r="8.3"/><path class="cls-1" d="M11.09,14.58l3.54,6.14a.53.53,0,0,0,.92,0l3.55-6.14a.53.53,0,0,0-.47-.79H11.55A.52.52,0,0,0,11.09,14.58Z"/><path class="cls-3" d="M25.75,11.83h-1v0H25A4.26,4.26,0,0,1,25.75,11.83Z"/><path class="cls-3" d="M31.25,10.61H25.86a3,3,0,0,0-.52,0v1.22a1.84,1.84,0,0,1,.41,0,3.94,3.94,0,0,1,2.33,1H24.73V14h3.65a3.51,3.51,0,0,1-3,1.42V17l3.94,4.51.92-.79L26.52,16.5c1.68-.35,2.91-1.3,3.13-2.5h1.6V12.79H29.53a2.48,2.48,0,0,0-.7-1h2.42Z"/><rect class="cls-3" x="24.73" y="12.79" width="0.61" height="1.22"/><rect class="cls-3" x="24.73" y="10.57" width="0.61" height="1.22"/><rect class="cls-3" x="24.73" y="15.43" width="0.61" height="1.6"/></g></g></svg>