<svg xmlns="http://www.w3.org/2000/svg" viewBox="0 0 50.18 47.26"><defs><style>.cls-1,.cls-2{fill:#fff;stroke:#231f20;stroke-miterlimit:10;}.cls-1{stroke-width:0.75px;}.cls-2{stroke-width:2px;}</style></defs><title>Asset 16</title><g id="Layer_2" data-name="Layer 2"><g id="Layer_1-2" data-name="Layer 1"><path class="cls-1" d="M33.79,15.48a6.81,6.81,0,0,1-.87,2.71c-.29.56-.68,1.26-1.31,1.45a1.42,1.42,0,0,1-.5.05,6.11,6.11,0,0,1-3.68-1.31,2.22,2.22,0,0,1-.78-2.63,2.38,2.38,0,0,1,2-1.36c.09,0,.77,0,.79,0,.84-1.58,3.2-2,4.1-.27A2.68,2.68,0,0,1,33.79,15.48Z"/><path class="cls-1" d="M24.1,12.82a7,7,0,0,1-2.67.78,2.54,2.54,0,0,1-1.86-.26,1.28,1.28,0,0,1-.3-.36,5.78,5.78,0,0,1-.84-3.63,2.24,2.24,0,0,1,1.75-2,2.26,2.26,0,0,1,2.13.83,6,6,0,0,1,.38.65C24.42,8.59,26,10.2,25,11.88A2.73,2.73,0,0,1,24.1,12.82Z"/><path class="cls-1" d="M29.22,1.8a3.66,3.66,0,0,1-.56,1.45c-.17.28-.4.65-.74.73a.82.82,0,0,1-.27,0,3.2,3.2,0,0,1-1.88-.86,1.24,1.24,0,0,1-.31-1.47A1.27,1.27,0,0,1,26.55,1l.41.05a1.2,1.2,0,0,1,2.17,0A1.42,1.42,0,0,1,29.22,1.8Z"/><path class="cls-2" d="M26.81,36.29c-2.41,2.67-6,4.47-9.17,5.77-2.19.91-5.05,2-7.38,1A5.83,5.83,0,0,1,8.68,42a23.49,23.49,0,0,1-7.5-12.85c-.69-3.9.53-7.69,4.2-9.58,3-1.52,6.36-.83,9.08.88.29.19,2.18,2,2.22,2.05C23,19.93,31,24.38,29.27,31.75A10.19,10.19,0,0,1,26.81,36.29Z"/><path class="cls-2" d="M49.1,32.25c-.42,3.31-2.22,6.6-3.9,9.25-1.18,1.85-2.77,4.2-5.07,4.68a5.53,5.53,0,0,1-1.77,0,21.76,21.76,0,0,1-12.51-5.77c-2.6-2.6-3.69-6.12-1.9-9.5,1.44-2.73,4.38-4,7.36-4.15.31,0,2.7.35,2.76.37,3.46-5.29,11.87-6.15,14.48.35A9.42,9.42,0,0,1,49.1,32.25Z"/></g></g></svg>