<svg xmlns="http://www.w3.org/2000/svg" viewBox="0 0 49.02 49.02"><defs><style>.cls-1,.cls-2,.cls-4{fill:#fff;}.cls-1,.cls-2,.cls-3{stroke:#000;stroke-miterlimit:10;}.cls-1{stroke-width:2.29px;}.cls-2,.cls-3{stroke-width:0.29px;}</style></defs><title>Asset 18</title><g id="Layer_2" data-name="Layer 2"><g id="Layer_1-2" data-name="Layer 1"><circle class="cls-1" cx="24.51" cy="24.51" r="23.36"/><path class="cls-2" d="M32.54,25.66a3.14,3.14,0,0,0-.37,3,15.88,15.88,0,0,1,1.17,6.21,20.31,20.31,0,0,1-.25,3.48,10.85,10.85,0,0,1-.43,1.7,8.54,8.54,0,0,1-.46,1.08c-.2.42-.37,1-.93,1a2.07,2.07,0,0,1-1.21-.63,2.37,2.37,0,0,1-.79-1.75V6.85h.31c3.1,0,5.6,4.56,5.6,10.19C35.18,20.67,34.13,23.87,32.54,25.66Z"/><path class="cls-3" d="M31.28,42.62h0a2.49,2.49,0,0,1-1.5-.73,2.85,2.85,0,0,1-.94-2.09V6.45l.4,0a2.17,2.17,0,0,1,.36,0c3.39,0,6.05,4.67,6.05,10.64,0,3.64-1,7-2.75,8.93h0a2.67,2.67,0,0,0-.29,2.53,16.54,16.54,0,0,1,1.2,6.39,20,20,0,0,1-.26,3.55,12.19,12.19,0,0,1-.44,1.78,10.14,10.14,0,0,1-.46,1.07l-.11.24C32.34,41.93,32,42.62,31.28,42.62ZM29.72,7.29V39.8a1.91,1.91,0,0,0,.64,1.42,1.84,1.84,0,0,0,.92.51c.15,0,.25-.17.42-.57l.1-.21c.17-.38.33-.7.44-1a10.34,10.34,0,0,0,.41-1.64,19.4,19.4,0,0,0,.24-3.4,15.52,15.52,0,0,0-1.13-6,3.53,3.53,0,0,1,.45-3.47c1.58-1.79,2.52-4.91,2.52-8.34C34.73,11.74,32.5,7.43,29.72,7.29Z"/><path class="cls-4" d="M25.27,12.4l0,.81c0,.44-.05.87-.08,1.31-.16,2.34-.53,5-2,6.66-.29.33-.62.65-.95,1-1,.93-2,1.9-1.87,3.21a5.25,5.25,0,0,0,.32,1.5c.08.18.15.36.22.53s.26.61.37.92a17.47,17.47,0,0,1,.76,3c.25,1.54.91,6.81-1.53,9.93-.16.22-.16.22-.57.32l-.14,0c-.49-.09-.5-.11-.68-.36-2.44-3.13-1.79-8.38-1.54-9.92a19.09,19.09,0,0,1,.77-3c.09-.26.21-.52.31-.79a6.5,6.5,0,0,0,.27-.66,6.11,6.11,0,0,0,.35-1.53c.11-1.21-.85-2.05-1.87-2.94a13.37,13.37,0,0,1-1.51-1.5c-1-1.25-1.13-3-1.4-6.36-.22-2.65-.45-5.39.74-6.14a4.75,4.75,0,0,1,1.89-.57v8.74c0,.63.32,1.14.72,1.14s.72-.51.72-1.14v-9a13.57,13.57,0,0,1,1.6-.1h.46l.34,0v9c0,.63.32,1.14.72,1.14s.72-.51.72-1.14V7.77A4.34,4.34,0,0,1,24.51,9,4.71,4.71,0,0,1,25.27,12.4Z"/><path d="M25.37,8.23a6.65,6.65,0,0,0-4.75-1.86,15.69,15.69,0,0,0-3.23.23l-.26,0a6.18,6.18,0,0,0-2.56.78c-1.76,1.12-1.52,4.07-1.26,7.19.29,3.63.44,5.46,1.64,7a13.58,13.58,0,0,0,1.66,1.65c.82.72,1.53,1.35,1.47,2a4.48,4.48,0,0,1-.27,1.25l-.25.61c-.12.3-.24.58-.33.86a18,18,0,0,0-.82,3.21c-.27,1.64-1,7.3,1.74,10.8.46.6.68.65,1.52.8l.13,0,.36-.09a1.64,1.64,0,0,0,1.2-.73c2.73-3.47,2-9.16,1.75-10.8a16.25,16.25,0,0,0-.81-3.21c-.1-.32-.24-.66-.38-1l-.21-.5a4.05,4.05,0,0,1-.25-1.25c-.07-.7.7-1.45,1.52-2.23.35-.33.7-.67,1-1,1.72-2,2.13-4.82,2.3-7.34,0-.45.06-.89.08-1.32l.05-.81A5.73,5.73,0,0,0,25.37,8.23Zm-.1,4.17,0,.81c0,.44-.05.87-.08,1.31-.16,2.34-.53,5-2,6.66-.29.33-.62.65-.95,1-1,.93-2,1.9-1.87,3.21a5.25,5.25,0,0,0,.32,1.5c.08.18.15.36.22.53s.26.61.37.92a17.47,17.47,0,0,1,.76,3c.25,1.54.91,6.81-1.53,9.93-.16.22-.16.22-.57.32l-.14,0c-.49-.09-.5-.11-.68-.36-2.44-3.13-1.79-8.38-1.54-9.92a19.09,19.09,0,0,1,.77-3c.09-.26.21-.52.31-.79a6.5,6.5,0,0,0,.27-.66,6.11,6.11,0,0,0,.35-1.53c.11-1.21-.85-2.05-1.87-2.94a13.37,13.37,0,0,1-1.51-1.5c-1-1.25-1.13-3-1.4-6.36-.22-2.65-.45-5.39.74-6.14a4.75,4.75,0,0,1,1.89-.57v8.74c0,.63.32,1.14.72,1.14s.72-.51.72-1.14v-9a13.57,13.57,0,0,1,1.6-.1h.46l.34,0v9c0,.63.32,1.14.72,1.14s.72-.51.72-1.14V7.77A4.34,4.34,0,0,1,24.51,9,4.71,4.71,0,0,1,25.27,12.4Z"/></g></g></svg>