<svg xmlns="http://www.w3.org/2000/svg" viewBox="0 0 46.09 35.59"><defs><style>.cls-1,.cls-3{fill:#fff;}.cls-1,.cls-2,.cls-3{stroke:#231f20;stroke-miterlimit:10;}.cls-1{stroke-width:2px;}.cls-2,.cls-5{fill:#231f20;}.cls-4{fill:none;}</style></defs><title>Asset 24</title><g id="Layer_2" data-name="Layer 2"><g id="Layer_1-2" data-name="Layer 1"><rect class="cls-1" x="1" y="5.17" width="44.09" height="29.42" rx="3.12"/><path class="cls-1" d="M20.23,1h5.29A3.44,3.44,0,0,1,29,4.44v.73a0,0,0,0,1,0,0H16.79a0,0,0,0,1,0,0V4.44A3.44,3.44,0,0,1,20.23,1Z"/><rect class="cls-1" x="6.8" y="3.09" width="4.78" height="2.09"/><rect class="cls-1" x="36.12" y="2.48" width="1.67" height="2.69"/><circle class="cls-2" cx="23.04" cy="20.2" r="11.47"/><circle class="cls-3" cx="23.04" cy="20.2" r="8.97"/><rect class="cls-4" x="1" y="2.96" width="14.7" height="18.19"/><rect class="cls-5" x="11.88" y="11.41" width="2.73" height="1.82"/><rect class="cls-5" x="6.99" y="11.41" width="2.73" height="1.82"/><rect class="cls-5" x="2.11" y="11.41" width="2.73" height="1.82"/><rect class="cls-4" x="30.39" y="2.96" width="14.7" height="18.19"/><rect class="cls-5" x="41.28" y="11.41" width="2.73" height="1.82"/><rect class="cls-5" x="36.38" y="11.41" width="2.73" height="1.82"/><rect class="cls-5" x="31.51" y="11.41" width="2.73" height="1.82"/></g></g></svg>