<svg xmlns="http://www.w3.org/2000/svg" viewBox="0 0 50.78 33.37"><defs><style>.cls-1,.cls-2{fill:#fff;}.cls-2,.cls-3{stroke:#000;stroke-miterlimit:10;}.cls-2{stroke-width:0.5px;}.cls-3{fill:none;}</style></defs><title>Asset 20</title><g id="Layer_2" data-name="Layer 2"><g id="Layer_1-2" data-name="Layer 1"><path class="cls-1" d="M47.16,14.38v7.76a6.53,6.53,0,0,1-4,5.8,1.06,1.06,0,0,1-.25,0H8.06a1,1,0,0,1-.24,0,6.54,6.54,0,0,1-4-5.8V14.38a5.93,5.93,0,0,1,.41-2.13l0,0a2.91,2.91,0,0,1,.55-.56A4.54,4.54,0,0,1,7.88,10.5h0V6.44h-.3A7.24,7.24,0,0,1,8,5.5a3.65,3.65,0,0,1,.34-.6A5.83,5.83,0,0,1,9.45,3.45,3.76,3.76,0,0,1,9.9,3,9.29,9.29,0,0,1,16.06.78H34.69A9.37,9.37,0,0,1,40.86,3a7.52,7.52,0,0,1,.64.62.36.36,0,0,1,0,.09,3,3,0,0,1,.34.39,4.6,4.6,0,0,1,.43.6,7.38,7.38,0,0,1,.81,1.73l0,4.06a4.57,4.57,0,0,1,3.62,1.67A5.53,5.53,0,0,1,47.16,14.38Z"/><path d="M46.71,12.17A6.67,6.67,0,0,0,43.82,9a8.45,8.45,0,0,0-1.5-4.26,4.6,4.6,0,0,0-.43-.6,3,3,0,0,0-.34-.39.36.36,0,0,0,0-.09A7.52,7.52,0,0,0,40.86,3,11.5,11.5,0,0,0,33,0H17.82a11.7,11.7,0,0,0-7.69,2.79A2.34,2.34,0,0,0,9.9,3a3.76,3.76,0,0,0-.45.44A8.94,8.94,0,0,0,8.33,4.9,3.65,3.65,0,0,0,8,5.5,8.16,8.16,0,0,0,7,9.1a7.3,7.3,0,0,0-1,.71,6.38,6.38,0,0,0-1.73,2.41l0,0a5.93,5.93,0,0,0-.41,2.13v7.76a6.54,6.54,0,0,0,4,5.8,8.16,8.16,0,0,0,3.49.77H39.7a8.16,8.16,0,0,0,3.49-.77,6.53,6.53,0,0,0,4-5.8V14.38A5.53,5.53,0,0,0,46.71,12.17Zm-1.42,10c0,2.73-2.5,4.92-5.59,4.92H11.31c-3.1,0-5.59-2.19-5.59-4.92V14.38A4.53,4.53,0,0,1,7.33,11l.55-.48,0-.05c.25-.23.25-.25.9-.89A7.43,7.43,0,0,1,11.46,4a9.69,9.69,0,0,1,6.36-2.31H33c5,0,9,3.53,9,7.91a14.63,14.63,0,0,1,2,2.1,10.91,10.91,0,0,1,1.32,2.72Z"/><ellipse class="cls-2" cx="3.16" cy="6.96" rx="1.81" ry="2.97" transform="matrix(0.25, -0.97, 0.97, 0.25, -4.37, 8.27)"/><line class="cls-3" x1="5.66" y1="8.06" x2="8.17" y2="9.07"/><ellipse class="cls-2" cx="47.62" cy="6.96" rx="2.97" ry="1.81" transform="translate(-0.22 12.17) rotate(-14.53)"/><line class="cls-3" x1="45.12" y1="8.06" x2="42.61" y2="9.07"/><path class="cls-3" d="M12.77,9.64H37.7A1.32,1.32,0,0,0,39,7.76a19.08,19.08,0,0,0-3.31-4.58,1.53,1.53,0,0,0-1-.3H15.93a1.64,1.64,0,0,0-1.07.39,22.69,22.69,0,0,0-3.4,4.43A1.32,1.32,0,0,0,12.77,9.64Z"/><path class="cls-3" d="M18,15.78H33.29s-.21,3-2,3.41H20.17S18.45,18.65,18,15.78Z"/><path class="cls-3" d="M8.05,16.76s-.72.86,2.3,1.78a8.46,8.46,0,0,1,2,.92c.25.32,2.65,1.2,2.94-1.23,0,0-2.15-4.06-6.13-3A2.35,2.35,0,0,0,8.05,16.76Z"/><path class="cls-3" d="M43.79,16.76s.72.86-2.29,1.78a8.69,8.69,0,0,0-2,.92c-.25.32-2.65,1.2-2.94-1.23,0,0,2.16-4.06,6.14-3A2.35,2.35,0,0,1,43.79,16.76Z"/><path d="M6.84,31.08V28.32s.67,1,1.43,1,5.23,0,5.23,0v3.16a1.23,1.23,0,0,1-1.28.84c-1,0-4.47,0-4.47,0s-.85.12-.88-1.09l0-1.2"/><path d="M44.26,31.08V28.32s-.67,1-1.43,1-5.23,0-5.23,0v3.16a1.23,1.23,0,0,0,1.28.84c1,0,4.47,0,4.47,0s.85.12.88-1.09l0-1.2"/></g></g></svg>