<svg xmlns="http://www.w3.org/2000/svg" viewBox="0 0 52 29.99"><defs><style>.cls-1,.cls-2,.cls-3,.cls-4{fill:#fff;}.cls-2,.cls-3,.cls-4{stroke:#231f20;}.cls-2,.cls-3,.cls-4,.cls-6{stroke-miterlimit:10;}.cls-3{stroke-width:2px;}.cls-4{stroke-width:0.5px;}.cls-5{fill:#231f20;}.cls-6{fill:none;stroke:#fff;stroke-width:0.25px;}</style></defs><title>Asset 14</title><g id="Layer_2" data-name="Layer 2"><g id="Layer_1-2" data-name="Layer 1"><path class="cls-1" d="M43.46,5.81h0l-.36-.87,0,0h0Z"/><path class="cls-2" d="M5.07,5.57c-.3-.06-.77-.66-1-.85L2.52,3.39c-.82-.69,3.15-.75,3.53-.76,1.57,0,5.33-.92,6.24.85.29.56,0,1.46.43,1.87a1.74,1.74,0,0,0,.69.35,26,26,0,0,0,5.16,1.56,4.29,4.29,0,0,0,2.62-.45A9.12,9.12,0,0,0,22.82,5.4a5.72,5.72,0,0,1,3.54-1.27c1.1-.08,3-.28,4,.3A3.28,3.28,0,0,1,31,5a6.9,6.9,0,0,1,.82,1,2.87,2.87,0,0,0,.42.61,1.16,1.16,0,0,0,.5.27,3.14,3.14,0,0,0,1.62-.27c.06,0,.13-.06.15-.12s0-.17,0-.24L32,2.06a1,1,0,0,0-.18-.23.83.83,0,0,0-.38-.1,7.32,7.32,0,0,1-2.24-.21A.6.6,0,0,1,29,1.36C28,.14,31.49.57,31.91.59a1.13,1.13,0,0,1,.51.09,1.24,1.24,0,0,1,.44.44c.87,1.26,1.49,2.71,2.29,4,.78-1,.38-2.34,0-3.38C34.46,0,37.2,1,37.93,1.3a10.77,10.77,0,0,1,4.29,3.36c.94,1.18,2.45,3.15,2.29,4.75a1.29,1.29,0,0,1-1,1.31,4.81,4.81,0,0,1-1,.07,9.85,9.85,0,0,0-6.15,2,8.61,8.61,0,0,0-2.52,4.3A24.17,24.17,0,0,0,32.89,21c-.08.68.31,1.56-.41,2a2.52,2.52,0,0,1-1.28.23l-7.66,0c-.75,0-2.7.52-3.23-.16-.16-.2-.1-.89-.14-1.14-.08-.57-.18-1.13-.31-1.7A18.75,18.75,0,0,0,9.69,7.1,21.41,21.41,0,0,0,5.07,5.57Z"/><circle class="cls-3" cx="8.93" cy="20.13" r="7.93"/><circle class="cls-3" cx="8.93" cy="20.13" r="4.71"/><path class="cls-4" d="M13.74,12s2.77,3.39,2.74,3.79-5.82,4.68-5.82,4.68a1.59,1.59,0,0,1-2-1.66Z"/><circle class="cls-3" cx="43.07" cy="21.06" r="7.93"/><circle class="cls-3" cx="43.07" cy="21.06" r="4.71"/><path class="cls-4" d="M38.26,12.89s-2.77,3.39-2.74,3.79,5.82,4.68,5.82,4.68a1.59,1.59,0,0,0,2-1.66Z"/><polygon class="cls-5" points="22.47 12.95 31.92 12.95 30.36 21.01 25.3 21.01 22.47 12.95"/><line class="cls-6" x1="28.16" y1="13.98" x2="31.04" y2="13.98"/><line class="cls-6" x1="27.75" y1="14.99" x2="31.04" y2="14.99"/><line class="cls-6" x1="26.76" y1="15.99" x2="31.04" y2="15.99"/><line class="cls-6" x1="25.53" y1="16.98" x2="30.83" y2="16.98"/></g></g></svg>