<svg xmlns="http://www.w3.org/2000/svg" viewBox="0 0 46.5 39.98"><defs><style>.cls-1,.cls-2{fill:#fff;}.cls-1,.cls-2,.cls-3{stroke:#231f20;stroke-miterlimit:10;}.cls-1,.cls-3{stroke-width:3px;}.cls-3{fill:none;}</style></defs><title>Asset 23</title><g id="Layer_2" data-name="Layer 2"><g id="Layer_1-2" data-name="Layer 1"><circle class="cls-1" cx="23.29" cy="19.99" r="18.49"/><path class="cls-2" d="M7,11.28S1.78,14.92.52,17c0,0,1,8.88,1.55,9.79s-.78,6.42-.78,6.42L6.43,34.5,7,31.83l1.15-4.58s1.55-.82,2-4.36.56-10,.56-10-2.39-2.67-3.24.57l-.21,4.58s.63,1.51-2.33.19S7,11.28,7,11.28Z"/><path class="cls-2" d="M39.52,11.28S44.71,14.92,46,17c0,0-1,8.88-1.55,9.79s.78,6.42.78,6.42L40.06,34.5l-.54-2.67-1.15-4.58s-1.55-.82-2-4.36-.57-10-.57-10,2.4-2.67,3.25.57l.21,4.58s-.63,1.51,2.33.19S39.52,11.28,39.52,11.28Z"/><circle class="cls-1" cx="23.29" cy="19.99" r="4.28"/><line class="cls-3" x1="23.29" y1="24.27" x2="23.29" y2="38.48"/><line class="cls-3" x1="19.01" y1="19.99" x2="10.35" y2="19.99"/><line class="cls-3" x1="27.57" y1="19.99" x2="36.16" y2="19.99"/></g></g></svg>