<svg xmlns="http://www.w3.org/2000/svg" viewBox="0 0 35.78 44.95"><defs><style>.cls-1{fill:#fff;stroke-width:2px;}.cls-1,.cls-3{stroke:#000;stroke-miterlimit:10;}.cls-2{fill:#231f20;}.cls-3{fill:none;stroke-width:0.64px;}</style></defs><title>Asset 19</title><g id="Layer_2" data-name="Layer 2"><g id="Layer_1-2" data-name="Layer 1"><path class="cls-1" d="M34.78,41.93a2,2,0,0,1-2,2H3a2,2,0,0,1-.38-4V14.81a3.17,3.17,0,0,1,.07-.71,3.38,3.38,0,0,1,1.75-2.32V9.09A2.86,2.86,0,0,1,7.35,6.23H27.27a2.86,2.86,0,0,1,2.86,2.86v2.44a3.36,3.36,0,0,1,2.35,2.59,2.84,2.84,0,0,1,.08.69V39.9h.18A2,2,0,0,1,34.78,41.93Z"/><path class="cls-2" d="M.37,15a2.78,2.78,0,0,0-.06.64V15Z"/><rect class="cls-2" x="5.97" y="21.31" width="4.77" height="4.77"/><rect class="cls-2" x="5.97" y="29.15" width="4.77" height="4.77"/><rect class="cls-2" x="5.97" y="36.31" width="4.77" height="4.79"/><rect class="cls-2" x="16.06" y="21.31" width="4.77" height="4.77"/><rect class="cls-2" x="16.06" y="29.15" width="4.77" height="4.77"/><rect class="cls-2" x="14.19" y="36.09" width="8.25" height="4.77"/><rect class="cls-2" x="25.03" y="21.31" width="4.77" height="4.77"/><rect class="cls-2" x="25.03" y="29.15" width="4.77" height="4.77"/><rect class="cls-2" x="25.03" y="36.09" width="4.77" height="4.77"/><rect class="cls-2" x="5.97" y="13.48" width="4.77" height="4.77"/><rect class="cls-2" x="16.06" y="13.48" width="4.77" height="4.77"/><rect class="cls-2" x="25.03" y="13.48" width="4.77" height="4.77"/><path class="cls-2" d="M34.78,15v.64a2.79,2.79,0,0,0-.07-.64Z"/><polygon class="cls-2" points="11.03 7.97 11.6 7.97 11.6 11.81 11.03 11.81 11.03 10 8.93 10 8.93 11.81 8.35 11.81 8.35 7.97 8.93 7.97 8.93 9.58 11.03 9.58 11.03 7.97"/><polygon class="cls-2" points="17.23 7.97 20.46 7.97 20.46 8.39 19.13 8.39 19.13 11.81 18.57 11.81 18.57 8.39 17.23 8.39 17.23 7.97"/><polygon class="cls-2" points="21.94 11.39 23.83 11.39 23.83 11.81 21.38 11.81 21.38 7.97 23.73 7.97 23.73 8.37 21.94 8.37 21.94 9.59 23.65 9.59 23.65 10 21.94 10 21.94 11.39"/><polygon class="cls-2" points="27.43 11.39 27.43 11.81 24.99 11.81 24.99 7.97 25.55 7.97 25.55 11.39 27.43 11.39"/><polygon points="10.9 4.79 9.34 3.97 7.79 4.78 8.09 3.05 6.83 1.82 8.57 1.57 9.35 0 10.12 1.58 11.86 1.83 10.6 3.06 10.9 4.79"/><polygon points="18.73 4.79 17.17 3.97 15.62 4.78 15.92 3.05 14.66 1.82 16.4 1.57 17.18 0 17.95 1.58 19.69 1.83 18.43 3.06 18.73 4.79"/><polygon points="26.55 4.79 25 3.97 23.44 4.78 23.74 3.05 22.49 1.82 24.23 1.57 25.01 0 25.78 1.58 27.52 1.83 26.26 3.06 26.55 4.79"/><line class="cls-3" x1="9.35" y1="3.97" x2="9.35" y2="6.15"/><line class="cls-3" x1="17.17" y1="3.97" x2="17.17" y2="6.15"/><line class="cls-3" x1="25" y1="3.97" x2="25" y2="6.15"/><path class="cls-2" d="M11,8V9.58H8.93V8H8.35v3.84h.58V10H11v1.81h.57V8Z"/><path class="cls-2" d="M14.77,7.9a1.93,1.93,0,0,0-2,2,1.87,1.87,0,0,0,2,2,1.92,1.92,0,0,0,2-2A1.85,1.85,0,0,0,14.77,7.9Zm0,3.57a1.43,1.43,0,0,1-1.39-1.55,1.44,1.44,0,0,1,1.4-1.61,1.42,1.42,0,0,1,1.39,1.55A1.44,1.44,0,0,1,14.74,11.47Z"/><path class="cls-2" d="M17.23,8v.42h1.34v3.42h.55V8.39h1.34V8Z"/><path class="cls-2" d="M21.94,11.39V10h1.71V9.59H21.94V8.37h1.79V8H21.38v3.84h2.45v-.42Z"/><path class="cls-2" d="M25.54,11.39V8H25v3.84h2.44v-.42Z"/></g></g></svg>