<svg xmlns="http://www.w3.org/2000/svg" viewBox="0 0 43.55 38.73"><defs><style>.cls-1{fill:#fff;}.cls-2{fill:#231f20;}.cls-3{fill:none;stroke:#231f20;stroke-miterlimit:10;}</style></defs><title>Asset 26</title><g id="Layer_2" data-name="Layer 2"><g id="Layer_1-2" data-name="Layer 1"><path class="cls-1" d="M7.73,27.68l-1.64-2a1.69,1.69,0,0,0,.19-.38v0a2.25,2.25,0,0,1,1.46,2.37Z"/><path class="cls-2" d="M32.06,3.43h0L31.47,3l-.22-.15L31,3.21l-.58.87v0l-.9,1.35h0L29,6.34l-.36.55.95-.79,1.53-1.28h0l1.36-1.13Zm-3.6,20.14-2.37,2-3.6,3h0l-5.71,4.78,1.3.86L19.52,33l0,0,7.53-6.3h0l1.39-2.12.89-1.36.56-.85Zm3.6-20.14h0L31.47,3l-.22-.15L31,3.21l-.58.87v0l-.9,1.35h0L29,6.34l-.36.55.95-.79,1.53-1.28h0l1.36-1.13Zm-3.6,20.14-2.37,2-3.6,3h0l-5.71,4.78,1.3.86L19.52,33l0,0,7.53-6.3h0l1.39-2.12.89-1.36.56-.85ZM41.72,15.8l0-.05a2.13,2.13,0,0,1-.44-.07l0-.08,0-.07L41,15.1,41,15l-.39-.95-.18-.42,0-.06-.74.62-.16.13-.1.09,0,0-.15.12-.53.44-.5.42-1.93,1.62h0l-2.37,2-1.51,1.26h0L30,22.29l-.06.05h0l-1.46,1.23-2.37,2-3.6,3h0l-5.71,4.78-1.21,1-.19.16-.52-.64-.88-1h0v0l-.71-.85-.64-.77L12,30.43,11.62,30l-.09-.11L11,29.27l-.42-.5-.06-.07L10,28,8.09,25.78l-.81-1,0-.05h0l.3-.26,2.1-1.75,0,0L12,20.79h0l6.73-5.63h0l1.77-1.48.53-.44,3.49-2.91,2.65-2.23.61-.51.81-.68.95-.79,1.53-1.28h0l1.36-1.13.2-.17,0,0,.15-.13,0,.06.41.49.22.27.17.21.26.3.36.43L35.93,7v0l.2.24.57.68s0,0,0,0,0,0,0,.05l.19.23.55.66v0a.29.29,0,0,1,0-.09,1.9,1.9,0,0,1-.07-.54,2.45,2.45,0,0,1,0-.27,1.29,1.29,0,0,1,0-.19,2.21,2.21,0,0,1-.79-1.11,1.31,1.31,0,0,1-.06-.27,1.68,1.68,0,0,1,0-.74,1.27,1.27,0,0,0,.23.12l-.18-.22s0,0,0,0a2.68,2.68,0,0,1,.18-.47l-.14-.35h0l-.43-.53-.12-.14h0a1.23,1.23,0,0,1-.25,0h0l-.3,0h-.06l-.05-.07L35,3.55h0L34.08,3h0l0,0-.07,0h0l-.33-.22-.38-.25a.5.5,0,0,1,0-.12,2.1,2.1,0,0,1,0-.79l0,0a0,0,0,0,1,0,0,1.38,1.38,0,0,1,.08-.27l-.47.19-.35.15-1.17.48-.61.26-.44.18-.78.33h0l-1.46.61L28,3.5,26.34,4.86l-.73.61L24.09,6.74h0L21.84,8.62l-.95.79h0l-.69.58-1.59,1.33h0l-.76.64-6,5h0L9.54,18.9h0L6.34,21.57l-.3.26,0,0-.31.26-.57.47.27.64.87,2.08h0v0a1.69,1.69,0,0,1-.19.38,0,0,0,0,1,0,0l1.68,2a2,2,0,0,1-.21.66L8,29.58a.92.92,0,0,1,.23-.09,1.72,1.72,0,0,1,.38-.08h0a1.67,1.67,0,0,1,.31,0h.18l.29.35.22.27.37.44.49.59.59.7,0,0h0a2.1,2.1,0,0,1-.72,1.48l.78.92a2.1,2.1,0,0,1,.74-.39,1.86,1.86,0,0,1,.81-.09l2,2.44A2.11,2.11,0,0,1,14,37.58l1,1.15,3.18-2.66h0l.2-.16,1-.83,4.83-4,8.16-6.81,3-2.56,1-.81,1.39-1.16h0l1.5-1.26a0,0,0,0,0,0,0l1.12-.93L41,17l.95-.8Zm-1.55-3.69A.86.86,0,0,1,40.3,12l0,0,.18-.15a1.82,1.82,0,0,1,.59-.33h0L41,11.17a2.41,2.41,0,0,1-.67.1h-.13a1.4,1.4,0,0,1-.41-.06l0-.08a.94.94,0,0,1-.28-.1h0l-.6-.66-.09,0h0l-.17-.07.46.55ZM28.46,23.57l-2.37,2-3.6,3h0l-5.71,4.78,1.3.86L19.52,33l0,0,7.53-6.3h0l1.39-2.12.89-1.36.56-.85Zm3.6-20.14h0L31.47,3l-.22-.15L31,3.21l-.58.87v0l-.9,1.35h0L29,6.34l-.36.55.95-.79,1.53-1.28h0l1.36-1.13Zm-3.6,20.14-2.37,2-3.6,3h0l-5.71,4.78,1.3.86L19.52,33l0,0,7.53-6.3h0l1.39-2.12.89-1.36.56-.85Zm3.6-20.14h0L31.47,3l-.22-.15L31,3.21l-.58.87v0l-.9,1.35h0L29,6.34l-.36.55.95-.79,1.53-1.28h0l1.36-1.13Z"/><path class="cls-1" d="M41,15l-.69.58-.21.17-.05,0-.11.09-.31.26-.28.24a8.16,8.16,0,0,0-1,.77h0a.47.47,0,0,0-.09.12L37,18.38l-1.73,1.45-.63.52-1.5,1.26-2.38,2h0c-1.81,1.51-3.5,2.94-3.67,3.07h0c-2.35,2-4.63,4-7,6a33.71,33.71,0,0,1-3.62,2.81c-.57.34-1.1,0-1.46-.48-1-1.19-1.89-2.4-2.84-3.6l-.6-.74c-.12-.15-.24-.31-.37-.46l-.6-.73-.14-.17-.26-.32-.6-.74-1-1.3v0c-.28-.35-.56-.71-.85-1.06h0l-.18-.22c-.26-.32-.53-.63-.79-.94a0,0,0,0,1,0,0c-.3-.33-.57-.64-.87-.95-.06-.07.09-.25.32-.45l.3-.27,0,0,.31-.25c.36-.29.7-.54.78-.6l3.11-2.52,2.82-2.28,2.45-2h0l2.39-1.94q2-1.63,4-3.28h0l.74-.6h0l.11-.09.15-.13,1.4-1.17.65-.53.92-.77h0l1-.87L28.7,4.83h0l1.52-1.28h0l.47-.4.63-.52c.13-.12,0-.29.2-.21a1.35,1.35,0,0,1,.53.36c.15.14.28.31.42.47a2.11,2.11,0,0,0,.19.23l.05.06.38.43.27.31.14.16h0c.21.25.43.49.64.73.6.68,1.21,1.35,1.82,2l.18.2c.17.2.35.39.53.59t0,0s0,0,0,.05l.17.18.54.59a.29.29,0,0,0,0,.09v0a2.34,2.34,0,0,0,.09.24,2.1,2.1,0,0,0,.77.92l.24.15.17.07h0l.09,0,.6.66h0l.84.92,0,0a.86.86,0,0,0-.13.14l-.06.08a1.51,1.51,0,0,0-.18.26s0,0,0,0l.07.18.4.95,0,.06.18.42Z"/><line class="cls-3" x1="8.42" y1="23.25" x2="28.04" y2="7.06"/><line class="cls-3" x1="10.89" y1="25.85" x2="30.52" y2="9.66"/><line class="cls-3" x1="13.36" y1="28.44" x2="32.99" y2="12.26"/><line class="cls-3" x1="15.84" y1="31.04" x2="30.54" y2="18.91"/><path class="cls-1" d="M3.75,18.81a2.17,2.17,0,0,1-.2.92l-1.25-3A2.2,2.2,0,0,1,3.75,18.81Z"/><path class="cls-2" d="M33.62,3.34,33.36,3l-.47.38-.07.06-.08.07-.05,0L29.63,6.06l3.85-1.6.05,0h0l.07,0,.08,0,.12,0,.45-.19Zm-7.53,18h0l-8.22,3.42h0l-.45.19h0L14.74,26h0L10.5,27.81l1,1.21,1.75-.72h0l.59-.25h0l8.27-3.46.19-.08h0l4-3.28Zm7.53-18L33.36,3l-.47.38-.07.06-.08.07-.05,0L29.63,6.06l3.85-1.6.05,0h0l.07,0,.08,0,.12,0,.45-.19Zm-7.53,18h0l-8.22,3.42h0l-.45.19h0L14.74,26h0L10.5,27.81l1,1.21,1.75-.72h0l.59-.25h0l8.27-3.46.19-.08h0l4-3.28Zm6.6-17.74,0-.06-.21-.24h0l-.37.16-1.6.66-.07,0h0l0,0h0l-2.44,2-.81.68,0,0-.59.49,2.48-1,.59-.24.09,0,3.85-1.6ZM17.84,24.75h0l-.45.19h0L14.74,26h0L10.5,27.81l1,1.21,1.75-.72h0l.59-.25h0l8.27-3.46,3.94-3.25ZM33.39,4.27,33.12,4l-.38-.43-.05,0,0-.06-.2.17L31.08,4.81h0L29.54,6.1l.09,0,3.85-1.6.05,0ZM26.33,21.21h0l-.23.1h0l-8.22,3.42h0l-4,3.29,8.27-3.46.19-.08h.07l.16-.07,1.85-.77.31-.13.32-.14.2-.08,4-3.29ZM33.39,4.27,33.12,4l-.38-.43-.05,0,0-.06-.2.17L31.08,4.81h0L29.54,6.1l.09,0,3.85-1.6.05,0ZM26.33,21.21h0l-.23.1h0l-8.22,3.42h0l-4,3.29,8.27-3.46.19-.08h.07l.16-.07,1.85-.77.22-.1.41-.17.2-.08,4-3.29ZM33.39,4.27,33.12,4l-.38-.43-.05,0,0-.06-.2.17L31.08,4.81h0L29.54,6.1l.09,0,3.85-1.6.05,0ZM26.33,21.21h0l-.23.1h0l-8.22,3.42h0l-4,3.29,8.27-3.46.19-.08h.07l.16-.07,1.85-.77.22-.1.41-.17.2-.08,4-3.29ZM33.39,4.27,33.12,4l-.38-.43-.05,0,0-.06-.2.17L31.08,4.81h0L29.54,6.1l.09,0,3.85-1.6.05,0ZM26.32,21.21l-.23.1h0l-8.22,3.42h0l-4,3.29,8.27-3.46.19-.08h.07l.16-.07,1.85-.77.22-.1.41-.17.2-.08,4-3.29-2.87,1.2Zm16.51-5.65v0a2.1,2.1,0,0,1-1,.23H41.7a2.13,2.13,0,0,1-.44-.07l0-.08,0-.07L41,15.1,41,15l-.39-.95-.18-.42,0-.06-.4-.95-.07-.18s0,0,0,0a1.51,1.51,0,0,1,.18-.26l.06-.08A.86.86,0,0,1,40.3,12l0,0,.18-.15a1.82,1.82,0,0,1,.59-.33h0L41,11.17l-.21-.51-.11-.25h0l0-.07-.1,0a2.09,2.09,0,0,1-.91.2h-.13a1.4,1.4,0,0,1-.41-.06l0-.08a.6.6,0,0,1-.19-.06l-.09,0h0l-.17-.07-.24-.15a2.1,2.1,0,0,1-.77-.92,2.34,2.34,0,0,1-.09-.24v0a.29.29,0,0,1,0-.09,1.9,1.9,0,0,1-.07-.54,2.45,2.45,0,0,1,0-.27,1.29,1.29,0,0,1,0-.19,1,1,0,0,1,.1-.33,1.08,1.08,0,0,1,.08-.19,1.07,1.07,0,0,0,.19.18l-.11-.26v0a2.17,2.17,0,0,1,.49-.56h0A2.23,2.23,0,0,1,39,6.24L38.6,5.4a2.32,2.32,0,0,1-1,.21,1,1,0,0,1-.25,0h0l-.3-.06H37l0-.08-.14-.33-.14-.35h0l-.43-.53-.12-.14L36,3.9l0-.07h0l-.41-.5-.13-.16a2.14,2.14,0,0,1,.25-.88l0,0a0,0,0,0,1,0,0,2.16,2.16,0,0,1,1.18-1L36.35,0,33.88,1l-.16.07-.35.15-.47.19-.35.15-1.17.48-.61.26-.44.18-.78.33h0l-1.46.61L28,3.5,24.91,4.77,0,15.16l.69,1.65a2.32,2.32,0,0,1,.84-.16,2.19,2.19,0,0,1,.77.14l1.25,3A2.3,2.3,0,0,1,2.4,20.92l.35.83a2.23,2.23,0,0,1,1.63,0h0l0,.1.27.64.87,2.08h0v0a1.69,1.69,0,0,1-.19.38,0,0,0,0,1,0,0,2.22,2.22,0,0,1-.93.81L4.92,27a2.22,2.22,0,0,1,.82-.16,2,2,0,0,1,.8.16l.31.74.49,1.18.43,1a2.16,2.16,0,0,1-1.15,1.15l.58,1.38,3.23-1.35.09,0,.51-.21h0l.24-.1.17-.07.1,0,.34-.15.09,0,.49-.2,5.66-2.36h0l.14-.06,3-1.24h0l4.13-1.72,2.38-1,.32-.13.37-.15.9-.38.69-.29h0l2.86-1.2.22-.09L34.71,21l3-1.27h0l5.77-2.41Zm-6.61,1.52-3.07,1.29L29.23,20h0l-2.87,1.2h0l-.23.1h0l-8.22,3.42h0l-.45.19h0L14.74,26h0L10.5,27.81,10,28l-.08,0-.31.13-.1,0L9,28.42l-.22.09-.31-.76L8,26.5H8v0l-.11-.25v0l-.15-.36h0l-.16-.39-.14-.34-.11-.28,0-.06-.4-1L6.51,23l0,0L6.1,22,6,21.83l-.13-.3-.27-.66L3.93,16.78l13.19-5.5,2.78-1.16.28-.12,1.52-.63h0l3-1.26.09,0,.9-.38h0l.73-.3,2.48-1,.59-.24.09,0,3.85-1.6.05,0h0l.07,0,.08,0,.12,0,.45-.19h0L34.56,4l.18-.08.67,1.6.73,1.76,0,.09.06.15,0,0L37,9.33a.61.61,0,0,1,0,.12l1.75,4.2.4.95,0,.05.18.43.24.58-2,.82h0l-1.43.59Zm-9.89,4.13h0l-.23.1h0l-8.22,3.42h0l-4,3.29,8.27-3.46.19-.08h.07l.16-.07,1.85-.77.22-.1.41-.17.2-.08,4-3.29ZM33.39,4.27,33.12,4l-.38-.43-.05,0,0-.06-.2.17L31.08,4.81h0L29.54,6.1l.09,0,3.85-1.6.05,0ZM26.33,21.21h0l-.23.1h0l-8.22,3.42h0l-4,3.29,8.27-3.46.19-.08h.07l.16-.07,1.85-.77.22-.1.41-.17.2-.08,4-3.29ZM33.39,4.27,33.12,4l-.38-.43-.05,0,0-.06-.2.17L31.08,4.81h0L29.54,6.1l.09,0,3.85-1.6.05,0ZM26.33,21.21h0l-.23.1h0l-8.22,3.42h0l-4,3.29,8.27-3.46.19-.08h.07l.16-.07,1.85-.77.22-.1.41-.17.2-.08,4-3.29ZM33.39,4.27,33.12,4l-.38-.43-.05,0,0-.06-.2.17L31.08,4.81h0L29.54,6.1l.09,0,3.85-1.6.05,0ZM26.33,21.21h0l-.23.1h0l-8.22,3.42h0l-4,3.29h0l-.19.16.22-.09c2.83-1.15,5.62-2.42,8.45-3.6h.06l.16-.07,1.85-.77.22-.1.09,0,.32-.14.2-.08,4-3.29ZM33.39,4.27,33.12,4l-.38-.43-.05,0,0-.06-.2.17L31.08,4.81h0L29.54,6.1l.09,0,3.85-1.6.05,0Zm-7.3,17h0l-8.22,3.42h0l-.45.19h0L14.74,26h0L10.5,27.81l1,1.21,1.75-.72h0l.59-.25h0l8.27-3.46.19-.08h0l4-3.28Zm7.53-18L33.36,3l-.47.38-.07.06-.08.07-.05,0L29.63,6.06l3.85-1.6.05,0h0l.07,0,.08,0,.12,0,.45-.19Zm-7.53,18h0l-8.22,3.42h0l-.45.19h0L14.74,26h0L10.5,27.81l1,1.21,1.75-.72h0l.59-.25h0l8.27-3.46.19-.08h0l4-3.28Zm7.53-18L33.36,3l-.47.38-.07.06-.08.07-.05,0L29.63,6.06l3.85-1.6.05,0h0l.07,0,.08,0,.12,0,.45-.19Z"/><path class="cls-1" d="M40.24,16.9c-.16.29-.58.37-.86.49l-2.3,1a4.4,4.4,0,0,0-1.28.54L32.18,20.4l-9.86,4.11c-2.83,1.18-5.62,2.45-8.45,3.6a31.81,31.81,0,0,1-4.3,1.61c-.64.16-1-.34-1.25-.88-.88-2.27-1.71-4.56-2.65-6.8S4,17.49,2.93,15.35c-.1-.26,1.89-.92,2.13-1l3.73-1.49L18,9.19c2-.78,3.92-1.55,5.87-2.34L24,6.78l4.83-2,3.95-1.65.75-.31c.16-.09.07-.29.25-.15a3.42,3.42,0,0,1,.8,1.43C36.35,8,38.2,11.91,40,15.81,40.17,16.12,40.43,16.56,40.24,16.9Z"/><line class="cls-3" x1="5.52" y1="15.7" x2="29.06" y2="6.07"/><line class="cls-3" x1="7.11" y1="18.92" x2="30.65" y2="9.28"/><line class="cls-3" x1="8.7" y1="22.13" x2="32.24" y2="12.49"/><line class="cls-3" x1="10.29" y1="25.35" x2="27.93" y2="18.12"/></g></g></svg>