<svg xmlns="http://www.w3.org/2000/svg" viewBox="0 0 47.6 48.16"><defs><style>.cls-1{fill:#fff;}.cls-1,.cls-2{stroke:#231f20;stroke-miterlimit:10;stroke-width:2px;}.cls-2{fill:none;}</style></defs><title>Asset 15</title><g id="Layer_2" data-name="Layer 2"><g id="Layer_1-2" data-name="Layer 1"><path class="cls-1" d="M9.65,33H27.42a6.19,6.19,0,0,1,6.19,6.19v7.95a0,0,0,0,1,0,0H3.45a0,0,0,0,1,0,0V39.21A6.19,6.19,0,0,1,9.65,33Z"/><path class="cls-2" d="M19.19,9A6.26,6.26,0,0,1,18,6.9V6.83a6.64,6.64,0,0,0,.1-.81h.07A6.23,6.23,0,0,0,19.19,9Z"/><path class="cls-1" d="M28.29,21.74a1.05,1.05,0,0,1-.35.55,19.52,19.52,0,0,1-3,2.28,14.09,14.09,0,0,1-6.16,2.3,12,12,0,0,1-6.55-1.3,16.74,16.74,0,0,1-2.14-1.4c-.33-.24-1.34-.72-1.34-1.21V11.08l0,0h3.39a5.12,5.12,0,0,0,1.28-.34,4.12,4.12,0,0,0,1-.47h0a3.22,3.22,0,0,0,.51-.28s.06,0,.1-.06a.71.71,0,0,0,.27-.21,4.4,4.4,0,0,0,.71-.5,6.93,6.93,0,0,0,.71-.72,5.41,5.41,0,0,0,.85-1.32s0,0,0,0h.52l.74,0a5.86,5.86,0,0,0,.41.74c.07,0,.1.07.1.11s0,0,0,0A8.25,8.25,0,0,0,25.7,10.6a10.65,10.65,0,0,0,1.49-.09l.17.17.12.12.05.06.56,7.86c.06.88.14,1.75.21,2.63A1.25,1.25,0,0,1,28.29,21.74Z"/><path class="cls-1" d="M27.29,11.57h0l-.28,0a10.65,10.65,0,0,1-1.49.09A8.25,8.25,0,0,1,19.33,9.1s0,0,0,0,0-.07-.1-.11a5.86,5.86,0,0,1-.41-.74A6.22,6.22,0,0,1,18.21,6a2.22,2.22,0,0,1,0-.44,1.68,1.68,0,0,1,0,.44,6.64,6.64,0,0,1-.1.81V6.9c0,.1-.07.2-.1.3s0,.07,0,.1a4.59,4.59,0,0,1-.38.91s0,0,0,0a5.41,5.41,0,0,1-.85,1.32,6.93,6.93,0,0,1-.71.72,4.4,4.4,0,0,1-.71.5A.71.71,0,0,1,15,11s-.07,0-.1.06a3.22,3.22,0,0,1-.51.28h0a4.12,4.12,0,0,1-1.05.47,5.12,5.12,0,0,1-1.28.34H8.55V23.82c0,.47.46.69.8.92l1.57,1.09a2.76,2.76,0,0,1,.61.52s0,0,0,.06l-.05.05a3,3,0,0,1-1.22.37,10.13,10.13,0,0,1-1.46.09,8.69,8.69,0,0,1-2.65-.41c-.13,0-.27-.1-.4-.13a14.07,14.07,0,0,1-4.51-7.9v0A9.42,9.42,0,0,1,1,16.08,13.21,13.21,0,0,1,3.34,8.63a17.63,17.63,0,0,1,12.9-7.49A17.58,17.58,0,0,1,18.55,1c.57,0,1.12,0,1.66.07s1.35.14,2,.27a18.26,18.26,0,0,1,2,.48A16.34,16.34,0,0,1,26,2.46a12,12,0,0,1,1.63.75,15.75,15.75,0,0,1,2.1,1.32,8.49,8.49,0,0,1,.88.67c.37.31.71.65,1.05,1a9.26,9.26,0,0,1,1.12,1.22,0,0,0,0,1,0,.06,13.33,13.33,0,0,1,2.3,7.42,13.28,13.28,0,0,1-2.71,7.93,3,3,0,0,1-.54.71,5,5,0,0,1-.54.58A8.88,8.88,0,0,1,28.15,26a10,10,0,0,1-2.24.38,4.18,4.18,0,0,1-2-.19,11.42,11.42,0,0,1,1.66-1,17.66,17.66,0,0,0,1.53-1.21,6.92,6.92,0,0,0,1-1.09L27.32,12v-.08Z"/><rect class="cls-1" x="14.42" y="28.06" width="7.48" height="4.95"/><path class="cls-2" d="M18,33.69s.56,12.37-4.2,13.47"/><path class="cls-2" d="M18.06,33.35s-.56,12.37,4.2,13.47"/><path class="cls-2" d="M12.68,19.91s6.25,4.85,9.39,0"/><path class="cls-1" d="M37.86,48.16v-21a.89.89,0,0,1,1.2-.83L46,29a.89.89,0,0,1,.1,1.61l-7.82,4.12"/></g></g></svg>