<svg xmlns="http://www.w3.org/2000/svg" viewBox="0 0 41.89 42.93"><defs><style>.cls-1,.cls-2{fill:#fff;}.cls-1,.cls-2,.cls-3{stroke:#231f20;stroke-miterlimit:10;}.cls-2{stroke-width:0.75px;}.cls-3{fill:none;stroke-width:2px;}</style></defs><title>Asset 25</title><g id="Layer_2" data-name="Layer 2"><g id="Layer_1-2" data-name="Layer 1"><polygon class="cls-1" points="0.91 10.31 14.03 13.98 18.56 12.54 27.05 9.51 40.98 13.98 41.38 42.24 28.54 38.05 14.21 42.24 0.51 38.11 0.91 10.31"/><line class="cls-2" x1="14.03" y1="40.93" x2="28.54" y2="36.68"/><line class="cls-2" x1="14.03" y1="36.38" x2="28.54" y2="32.13"/><line class="cls-2" x1="14.03" y1="31.83" x2="28.54" y2="27.58"/><line class="cls-2" x1="14.03" y1="27.29" x2="28.54" y2="23.03"/><line class="cls-2" x1="14.03" y1="22.74" x2="28.54" y2="18.49"/><line class="cls-2" x1="14.03" y1="18.19" x2="28.54" y2="13.94"/><line class="cls-2" x1="27.5" y1="13.94" x2="41.03" y2="17.88"/><line class="cls-2" x1="27.5" y1="18.64" x2="41.03" y2="22.58"/><line class="cls-2" x1="27.5" y1="23.35" x2="41.03" y2="27.29"/><line class="cls-2" x1="27.5" y1="28.05" x2="41.03" y2="31.99"/><line class="cls-2" x1="27.5" y1="32.76" x2="41.03" y2="36.7"/><line class="cls-2" x1="28.21" y1="36.52" x2="41.74" y2="40.46"/><line class="cls-2" x1="0.85" y1="14.21" x2="14.03" y2="18.64"/><line class="cls-2" x1="0.85" y1="18.67" x2="14.03" y2="23.1"/><line class="cls-2" x1="0.85" y1="23.12" x2="14.03" y2="27.56"/><line class="cls-2" x1="0.85" y1="27.58" x2="14.03" y2="32.01"/><line class="cls-2" x1="0.85" y1="32.04" x2="14.03" y2="36.47"/><line class="cls-2" x1="0.85" y1="36.5" x2="14.03" y2="40.93"/><line class="cls-3" x1="14.03" y1="13.63" x2="14.03" y2="42.62"/><line class="cls-3" x1="27.22" y1="9.56" x2="28.54" y2="38.05"/><path class="cls-1" d="M32.17,7.81c0,4-4.66,9.59-7.45,13.07,0,0-7.16-9-7.16-13.07a7.31,7.31,0,1,1,14.61,0Z"/><circle class="cls-1" cx="24.86" cy="7.81" r="3.1"/></g></g></svg>