<svg id="Layer_8" data-name="Layer 8" xmlns="http://www.w3.org/2000/svg" width="50" height="50" viewBox="0 0 50 50"><defs><style>.cls-1,.cls-3{fill:#fff;}.cls-1{opacity:0.01;}.cls-2,.cls-4{fill:#0090e0;}.cls-4{font-size:24.96px;font-family:Myriad Pro;}</style></defs><title>Cashback</title><rect class="cls-1" width="50" height="50"/><path class="cls-2" d="M25,48.72A21.49,21.49,0,0,1,6,37.61l-0.24-.42c-0.72-1.26-.19-1.77.26-2a1.44,1.44,0,0,1,.72-0.23A1.58,1.58,0,0,1,8,36a19,19,0,0,0,10.24,9,18.62,18.62,0,0,0,6.65,1.22A19.14,19.14,0,0,0,44,29.59l0-.31H41.11L45.31,23l4.2,6.23-2.32.16-0.06.16c-0.39,1-.74,1.93-1.09,2.88a33.76,33.76,0,0,1-2.42,5.61A21.35,21.35,0,0,1,25,48.72h0Z"/><path class="cls-3" d="M45.31,23.54L49,29l-0.91.06-0.76.05-0.34,0-0.13.32c-0.4,1-.75,2-1.09,2.89a33.57,33.57,0,0,1-2.39,5.56A21.08,21.08,0,0,1,25,48.45a21.22,21.22,0,0,1-18.75-11l-0.1-.18L6,37.05c-0.67-1.18-.11-1.51.16-1.66a1.17,1.17,0,0,1,.58-0.19,1.35,1.35,0,0,1,1,.9,19.3,19.3,0,0,0,10.39,9.15,18.9,18.9,0,0,0,6.75,1.24A19.41,19.41,0,0,0,44.22,29.63L44.3,29H41.62l2.87-4.26,0.81-1.21m0-1-4.72,7h3.09A18.94,18.94,0,0,1,24.9,45.94a18.38,18.38,0,0,1-6.55-1.21,18.7,18.7,0,0,1-10.1-8.89,1.83,1.83,0,0,0-1.49-1.19,1.69,1.69,0,0,0-.86.27c-1,.59-0.87,1.51-0.36,2.41l0.24,0.42A21.84,21.84,0,0,0,25,49,21.61,21.61,0,0,0,43.85,38.22c1.5-2.56,2.3-5.52,3.52-8.53L50,29.51l-4.69-7h0Z"/><path class="cls-2" d="M0.49,24.79l2.79-.19,0-.21C5,15.36,10,9.33,18.11,6.47A20.82,20.82,0,0,1,25,5.29,21.9,21.9,0,0,1,44,16.54a2.56,2.56,0,0,1,.48,1.73,1.22,1.22,0,0,1-.66.69,1.36,1.36,0,0,1-.64.19c-0.55,0-.95-0.52-1.39-1.3A18.83,18.83,0,0,0,28.14,8.12a18.38,18.38,0,0,0-3.21-.28A19.26,19.26,0,0,0,6.06,24.28l0,0.29L8.89,24.8,4.67,31Z"/><path class="cls-3" d="M25,5.57h0a21.62,21.62,0,0,1,18.76,11.1,2.39,2.39,0,0,1,.45,1.52,1,1,0,0,1-.52.53,1.1,1.1,0,0,1-.51.15,1.77,1.77,0,0,1-1.15-1.16A19.09,19.09,0,0,0,28.19,7.85a18.67,18.67,0,0,0-3.26-.29A19.54,19.54,0,0,0,5.79,24.24l-0.07.57,0.58,0L7,24.92,8.4,25,6.69,27.56l-2,3L2.59,27.42,1,25l0.58,0,1.53-.11,0.43,0,0.08-.42C5.28,15.39,10.05,9.6,18.2,6.73A20.54,20.54,0,0,1,25,5.57M25,5a21.11,21.11,0,0,0-7,1.19c-8.51,3-13.3,9.19-15,18.13L0,24.55l4.67,7,4.71-7-3-.24a18.9,18.9,0,0,1,18.6-16.2,18.07,18.07,0,0,1,3.16.28A18.52,18.52,0,0,1,41.59,18a2.18,2.18,0,0,0,1.63,1.44A1.62,1.62,0,0,0,44,19.2c1.29-.7.85-1.77,0.29-2.79A22,22,0,0,0,25,5h0Z"/><path class="cls-2" d="M25,15.83A11.19,11.19,0,1,1,13.85,27,11.2,11.2,0,0,1,25,15.83m0-1.61A12.8,12.8,0,1,0,37.84,27,12.8,12.8,0,0,0,25,14.22h0Z"/><text class="cls-4" transform="translate(18.72 35.96)">₹</text><text/></svg>