<svg id="Layer_8" data-name="Layer 8" xmlns="http://www.w3.org/2000/svg" width="50" height="50" viewBox="0 0 50 50"><defs><style>.cls-1{fill:#fff;opacity:0.01;}.cls-2{fill:#0090e0;}</style></defs><title>Guide</title><rect class="cls-1" width="50" height="50"/><path class="cls-2" d="M12.49,24.54c0-2.1,0-4.21,0-6.31a0.81,0.81,0,0,0-.59-0.89C8.17,15.77,4.45,14.17.72,12.58A0.93,0.93,0,0,1,0,11.7a0.94,0.94,0,0,1,.72-0.82l5-2.12,7.13-3a0.85,0.85,0,0,1,1.33.85c0,0.15,0,.31,0,0.46q0,8.75,0,17.49V25.2A4.36,4.36,0,0,1,18.32,30c0,0.51,0,1,0,1.62l5.29-2.77a13.86,13.86,0,0,1-2.78-4.87,1.18,1.18,0,0,0-.43-0.51,5,5,0,0,1-2-3.06,2.48,2.48,0,0,1,1.4-3.1A0.45,0.45,0,0,0,20.06,17c0.09-.5.15-1,0.21-1.51-1.35-.42-1.93-1.3-1.52-2.41,1.43-4,4.09-6.7,8.4-7.56A9.7,9.7,0,0,1,35.06,7a1.32,1.32,0,0,0,.65.18,4.71,4.71,0,0,1,4.2,2.65,10.17,10.17,0,0,1,.86,3,8,8,0,0,1-.67,4.34C41.41,18,41.79,18.72,41.6,20a4.41,4.41,0,0,1-1.54,3,5,5,0,0,0-1.34,2c-0.65,1.34-1.45,2.62-2.2,4l0.39,0.21c1.37,0.72,2.75,1.41,4.1,2.16A25.13,25.13,0,0,1,47.44,36a8.25,8.25,0,0,1,2.48,5.13c0.1,1.83.09,3.67,0,5.5A2.5,2.5,0,0,1,47.38,49c-0.55,0-1.1,0-1.65,0l-37,0c-1,0-1.26-.21-1.26-1.27q0-4.92,0-9.85c0-2.84,0-5.67,0-8.51a4.15,4.15,0,0,1,3.59-4.05,13.7,13.7,0,0,1,1.38-.08V24.54ZM48.3,41.66A7.1,7.1,0,0,0,46,36.9a25,25,0,0,0-6.12-4.38c-1.68-.92-1-0.88-2.75-0.06-1.22.58-2.42,1.19-3.72,1.83a2.34,2.34,0,0,0,.35.17,5.5,5.5,0,0,1,4,3.62,14,14,0,0,1,.53,1.71,0.72,0.72,0,0,1-.6,1c-2.33.35-4.6,0.28-6.59-1.18-0.41-.3-0.76-0.67-1.16-1-0.18.2-.41,0.46-0.65,0.7a6.15,6.15,0,0,1-3.94,1.62,17.87,17.87,0,0,1-2.88-.08,0.74,0.74,0,0,1-.75-1,6.9,6.9,0,0,1,2.12-4.11,11.41,11.41,0,0,1,2.14-1.17,4.57,4.57,0,0,1,.65-0.21L25.88,34c-1.32-.65-2.64-1.29-4-1.95a0.93,0.93,0,0,0-1,0c-1,.58-2,1.09-2.94,1.71a2.62,2.62,0,0,0-1.4,2.45c0.11,2.6,0,5.21.06,7.82,0,0.95,0,1.89,0,2.84a0.42,0.42,0,0,0,.49.49H47c1.11,0,1.42-.36,1.34-1.47C48.3,44.47,48.34,43.06,48.3,41.66ZM21.71,17.59a1,1,0,0,1-.91,1.09A0.83,0.83,0,0,0,20,19.81a3.08,3.08,0,0,0,1.51,2.37,1.81,1.81,0,0,1,.85,1.11,10.81,10.81,0,0,0,3.17,5.06c3,2.64,6.86,2.33,9.64-.77a11.35,11.35,0,0,0,2.37-4.23,1.89,1.89,0,0,1,.88-1.16A3.19,3.19,0,0,0,40,19.65a0.79,0.79,0,0,0-.56-0.91,1.37,1.37,0,0,1-.89-2.17,6.92,6.92,0,0,0,.15-5.51,3.3,3.3,0,0,0-3.38-2.21,1.54,1.54,0,0,1-.92-0.26A7.63,7.63,0,0,0,28.24,7c-4,.49-6.46,2.81-7.84,6.4a1.85,1.85,0,0,0-.05.37c0.76,0.17,1.88-.19,1.82,1.16C22,15.81,21.81,16.7,21.71,17.59ZM9.22,35.06c0,0.31-.05.51-0.05,0.71,0,3.62,0,7.25,0,10.87a0.57,0.57,0,0,0,.69.71c1.51,0,3,0,4.53,0,0.35,0,.6,0,0.6-0.48,0-3.57,0-7.13,0-10.7a1.92,1.92,0,0,0-.05-0.3C13,35.81,11,36.26,9.22,35.06Zm0-3.33a2.51,2.51,0,0,0,2.34,2.47,18.82,18.82,0,0,0,2.76,0,2.5,2.5,0,0,0,2.36-2.45c0-.79,0-1.58,0-2.37a2.56,2.56,0,0,0-2.51-2.5c-0.8,0-1.61,0-2.41,0a2.57,2.57,0,0,0-2.53,2.48c0,0.4,0,.81,0,1.22S9.16,31.35,9.17,31.73ZM12.45,7.66l-9.33,4V11.8l9.34,4V7.66ZM24,31.21c1.81,0.89,3.62,1.77,5.42,2.67a1.1,1.1,0,0,0,1.1,0c1.82-.91,3.65-1.8,5.47-2.7l0.55-.31a8.91,8.91,0,0,0-1.32-.74,1.07,1.07,0,0,0-.72.24A8,8,0,0,1,26.6,31a7.71,7.71,0,0,1-.78-0.41c-1.09-.64-1.27-0.62-2.33.31C23.67,31,23.83,31.12,24,31.21ZM29,36c-2.8-.49-4.84.77-5.38,3.22C26.43,39.72,29,38.14,29,36Zm1.93,0c-0.11,2.1,2.85,3.88,5.31,3.2C36.23,37.07,33.39,35.36,30.95,36Z"/><path class="cls-2" d="M36.54,14.9a0.91,0.91,0,0,0-.17-1.42c-0.52-.55-1-1.14-1.48-1.72a0.84,0.84,0,0,0-1.28-.24,13.23,13.23,0,0,1-6.51,2.15c-0.7.08-1.41,0.1-2.11,0.16a0.9,0.9,0,0,0-1,1,1,1,0,0,0,1,.65,23.12,23.12,0,0,0,6.7-1.12c0.77-.28,1.5-0.65,2.28-1l1.26,1.31A1,1,0,0,0,36.54,14.9Z"/><path class="cls-2" d="M44.1,44a8.46,8.46,0,0,0,0,.87,0.79,0.79,0,0,0,.81.76,0.77,0.77,0,0,0,.83-0.73c0-.27,0-0.54.06-0.81s0-.54,0-0.81A0.84,0.84,0,0,0,45,42.43a0.85,0.85,0,0,0-.86.91C44.11,43.57,44.11,43.8,44.1,44Z"/><path class="cls-2" d="M31.6,44a8.18,8.18,0,0,0,.08,1,0.81,0.81,0,0,0,1.6,0,8.6,8.6,0,0,0,.08-1c0-.29,0-0.57-0.05-0.86a0.82,0.82,0,0,0-1.64,0C31.62,43.46,31.62,43.75,31.6,44Z"/><path class="cls-2" d="M19.11,44l0.07,0.86a0.74,0.74,0,0,0,.77.77,0.77,0.77,0,0,0,.85-0.71A7.62,7.62,0,0,0,20.86,44a8,8,0,0,0-.07-0.92,0.81,0.81,0,0,0-1.61.05C19.15,43.45,19.14,43.74,19.11,44Z"/><path class="cls-2" d="M40,44c0,0.29,0,.58,0,0.86a0.77,0.77,0,0,0,.85.76,0.74,0.74,0,0,0,.78-0.77c0-.29,0-0.57,0-0.86s0-.54,0-0.81A0.82,0.82,0,0,0,40,43.16,7.63,7.63,0,0,0,40,44Z"/><path class="cls-2" d="M23.3,44c0,0.29,0,.58,0,0.86a0.74,0.74,0,0,0,.78.77A0.77,0.77,0,0,0,25,44.89c0-.29,0-0.57,0-0.86a7.53,7.53,0,0,0,0-.86,0.82,0.82,0,0,0-1.63.05C23.31,43.48,23.31,43.75,23.3,44Z"/><path class="cls-2" d="M35.8,44c0,0.29,0,.57,0,0.86a0.75,0.75,0,0,0,.78.77,0.76,0.76,0,0,0,.84-0.71,7.62,7.62,0,0,0,0-.92,7.53,7.53,0,0,0,0-.86,0.82,0.82,0,0,0-1.63.05C35.81,43.48,35.81,43.75,35.8,44Z"/><path class="cls-2" d="M27.45,44a7.6,7.6,0,0,0,0,.92,0.76,0.76,0,0,0,.84.71,0.75,0.75,0,0,0,.78-0.77c0-.29,0-0.57,0-0.86s0-.54,0-0.81a0.82,0.82,0,0,0-1.63-.05A7.54,7.54,0,0,0,27.45,44Z"/></svg>