<svg id="Layer_8" data-name="Layer 8" xmlns="http://www.w3.org/2000/svg" width="50" height="50" viewBox="0 0 50 50"><defs><style>.cls-1{fill:#fff;opacity:0.01;}.cls-2{fill:#0090e0;}</style></defs><title>Map</title><rect class="cls-1" width="50" height="50"/><path class="cls-2" d="M50,25.2q0,8.46,0,16.91a1.61,1.61,0,0,1-1.24,1.75l-14.14,5a2.85,2.85,0,0,1-2,0L16.88,43.09a1.49,1.49,0,0,0-1,0L2.18,47.17A1.56,1.56,0,0,1,0,45.57q0-6.94,0-13.88T0,18c0-2.12,0-4.23,0-6.35A1.57,1.57,0,0,1,1.29,9.9Q8.35,7.79,15.41,5.67a3.12,3.12,0,0,1,2.07.07q7.86,2.88,15.73,5.73a1.14,1.14,0,0,0,.82,0L47.78,6.65A1.57,1.57,0,0,1,50,8.22q0,8.49,0,17h0ZM48.42,42.32V8.09l-0.25.08q-6.78,2.37-13.56,4.74a2.88,2.88,0,0,1-2,0L16.85,7.17a1.37,1.37,0,0,0-.91,0L2.06,11.31c-0.5.15-.5,0.15-0.5,0.66q0,8.44,0,16.88,0,8.16,0,16.32c0,0.17,0,.35,0,0.55l0.38-.11,13.58-4.07a2.8,2.8,0,0,1,1.83.06L33.2,47.37a1.15,1.15,0,0,0,.82,0l9.25-3.24Z"/><path class="cls-2" d="M4.69,40.79l3.62-1.06c2.58-.75,5.16-1.49,7.73-2.26a0.81,0.81,0,0,1,1.14.78,0.79,0.79,0,0,1-.64.71l-4.86,1.42L5.27,42.26a1.57,1.57,0,0,1-2.14-1.58q0-7,0-14,0-6,0-12a1.65,1.65,0,0,1,1.42-1.9L15.78,9.45a2,2,0,0,1,1.28,0l16.26,5.9a0.91,0.91,0,0,0,.56,0l10.82-3.67a1.57,1.57,0,0,1,2.16,1.54q0,13.13,0,26.26a1.56,1.56,0,0,1-1.15,1.6L34,45.13a0.79,0.79,0,1,1-.48-1.49L41,41.08c1.33-.45,2.66-0.91,4-1.35a0.36,0.36,0,0,0,.3-0.41q0-9.43,0-18.85,0-3.44,0-6.88c0-.12,0-0.25,0-0.41L43,14l-8.69,3a2,2,0,0,1-1.4,0L16.71,11a1.13,1.13,0,0,0-.66,0L4.93,14.25a0.3,0.3,0,0,0-.24.35q0,5.38,0,10.76,0,7.39,0,14.79C4.69,40.34,4.69,40.54,4.69,40.79Z"/><path class="cls-2" d="M10.3,18.52a0.9,0.9,0,0,1,1.08-1.13,0.81,0.81,0,0,0,1-.61,0.7,0.7,0,0,1,.77-0.46c0.75,0,1.5.06,2.25,0.05A1.43,1.43,0,0,0,16,16.2c0.46-.23.89-0.5,1.35-0.73a1.49,1.49,0,0,1,1.24,0,5,5,0,0,1,2,1.31,1.57,1.57,0,0,1-.23,2.42,1.42,1.42,0,0,0-.68,1.33,0.87,0.87,0,0,1-1,1.09l-0.52.07a4.12,4.12,0,0,1,0,.71A2.21,2.21,0,0,1,17,24a1.14,1.14,0,0,0-.93,1,1.4,1.4,0,0,1-.22.54,4.15,4.15,0,0,1,.8.53,0.72,0.72,0,0,1,0,.89,1.14,1.14,0,0,0,1,.43,1.86,1.86,0,0,1,2,1.94,9.28,9.28,0,0,1-.31,2.25,2.23,2.23,0,0,1-.65,1.08,3,3,0,0,0-1.09,1.81,3.36,3.36,0,0,1-.23.71,1.32,1.32,0,0,1-.28.48,3.58,3.58,0,0,1-2.17,1.12A0.79,0.79,0,0,1,14,35.87c0.08-.77.17-1.53,0.23-2.3a2.43,2.43,0,0,0-.08-0.79,2.66,2.66,0,0,0-.95-1.48,2.34,2.34,0,0,1-.4-2.7l0.6-1c-0.38-.15-0.72-0.31-1.07-0.42A3.14,3.14,0,0,1,10.73,26a1.61,1.61,0,0,0-.64-0.45,1.64,1.64,0,0,1-1.16-1.7,7.47,7.47,0,0,1,0-.91,0.7,0.7,0,0,0-.39-0.71,0.76,0.76,0,0,0-.89-0.08,1.49,1.49,0,0,1-1.88-.52,1.55,1.55,0,0,1,.16-2,6.48,6.48,0,0,1,1-.85,2.39,2.39,0,0,1,.94-0.35,7.43,7.43,0,0,1,1.25,0C9.48,18.46,9.89,18.49,10.3,18.52ZM11.94,25a6.51,6.51,0,0,1,2.6-.36c0-.08,0-0.14-0.07-0.2a0.81,0.81,0,0,1,.47-1.28c0.31-.14.63-0.27,0.94-0.43a5.69,5.69,0,0,0,.61-0.36c0.27-.18.22-0.36,0-0.53L16.32,22a0.83,0.83,0,0,1-1-.05,0.86,0.86,0,0,1-.21-1,4.15,4.15,0,0,1,1.28-2.06,0.74,0.74,0,0,1,1.07,0,3.68,3.68,0,0,1,.48.65,3,3,0,0,1,.18.37,3.59,3.59,0,0,1,1.4-2c-0.78-.83-1.33-1.28-2.45-0.45l-0.08,0a2.08,2.08,0,0,1-1.74.49c-0.36,0-.73,0-1.09,0s-0.58-.06-0.66.39a1.32,1.32,0,0,1-.53.52,0.48,0.48,0,0,1-.21.07,2.54,2.54,0,0,1-.29.71,5.09,5.09,0,0,1-.86.76,0.92,0.92,0,0,1-1.11.05A2.66,2.66,0,0,0,8.67,20a0.81,0.81,0,0,1-.25,0,1.3,1.3,0,0,0-1.23.64,1.63,1.63,0,0,1,1.38-.12,4.88,4.88,0,0,1,1,.53,2,2,0,0,1,1,1.9,5.19,5.19,0,0,0,0,.91,0.33,0.33,0,0,0,.15.25A2.27,2.27,0,0,1,11.94,25Zm3.23,2.79A1.75,1.75,0,0,0,15,28l-0.72,1.13a0.85,0.85,0,0,0,.22,1.26,2.32,2.32,0,0,1,.87,1.22c0.08,0.28.23,0.54,0.29,0.82a6.1,6.1,0,0,1,.12,1.13,10.11,10.11,0,0,1-.09,1.06l0.1,0c0.11-.34.24-0.67,0.32-1a3.23,3.23,0,0,1,1-1.7A2.52,2.52,0,0,0,18,30.33a7.52,7.52,0,0,0,0-.93c0-.43,0-0.48-0.46-0.46A2.07,2.07,0,0,1,16,28.46C15.77,28.24,15.48,28.05,15.17,27.84Z"/><path class="cls-2" d="M29.7,28.55A3.06,3.06,0,0,0,28,31.74a1.5,1.5,0,0,1-.66,1.71,0.7,0.7,0,0,0-.17.14,1.89,1.89,0,0,1-1.78.48A0.38,0.38,0,0,1,25.15,34a4.26,4.26,0,0,1-1.63-1.75,4.57,4.57,0,0,1-.34-1.95c0-.23-0.07-0.28-0.3-0.31a12.54,12.54,0,0,1-1.28-.26,0.78,0.78,0,0,1-.22-0.11A2.18,2.18,0,0,1,21,26.57a0.81,0.81,0,0,0,.29-0.76,1.58,1.58,0,0,1,.41-1.21,1.44,1.44,0,0,1-.48-1.69,1.37,1.37,0,0,1,1.31-1.1,3.77,3.77,0,0,0,.64-0.13,0.26,0.26,0,0,0,.16-0.12,3.6,3.6,0,0,1,1.22-1.35A1.46,1.46,0,0,1,25.88,20c0.53,0.12,1.06.21,1.59,0.31,0.22,0,.28-0.08.34-0.29a2,2,0,0,1,1.5-1.61l0.64-.15a0.84,0.84,0,0,1,1.19.86A6.39,6.39,0,0,1,32,18.73c0.73-.2,1.47-0.38,2.21-0.51a2.08,2.08,0,0,1,.78.18,0.47,0.47,0,0,1,.11.06,7,7,0,0,0,1.54.88,5.63,5.63,0,0,0,1.74,0,8.82,8.82,0,0,1,2.47.32,1.54,1.54,0,0,1,1.09,2,1.87,1.87,0,0,1-1.09,1.39,0.32,0.32,0,0,0-.13.16,1.28,1.28,0,0,1-2.1.19,0.9,0.9,0,0,0-.18-0.15L37.49,25a1,1,0,0,1-.85.63,3.49,3.49,0,0,1-1.36,2.26,0.4,0.4,0,0,0-.14.46,3.3,3.3,0,0,1,.1.8,0.84,0.84,0,0,1-.86.85h0a1.25,1.25,0,0,1-1.65-1.11c-0.38.32-.71,0.61-1.06,0.88a0.78,0.78,0,0,1-1.27-.21l-0.62-1Zm-0.16-8.43-0.1,0a2.67,2.67,0,0,0-.14.36c0,0.2-.06.41-0.11,0.61a0.88,0.88,0,0,1-1,.78,7.4,7.4,0,0,1-2.53-.31,0.4,0.4,0,0,0-.32,0,1.53,1.53,0,0,0-.61.8,0.84,0.84,0,0,1-.72.72l-1.33.32c0.32,0.31.61,0.58,0.88,0.86a0.77,0.77,0,0,1-.32,1.34l-0.36.12c0,0.25,0,.46,0,0.66a1.73,1.73,0,0,1-.64,1.14,0.52,0.52,0,0,0,.23.85c0.32,0.06.66,0,1,.08a1.07,1.07,0,0,1,.59.23,1.81,1.81,0,0,1,.69,1.59,1.85,1.85,0,0,0,0,.31,2,2,0,0,0,.81,1.76c0.14,0.1.28,0.27,0.46,0.12a0.58,0.58,0,0,0,.39-0.6,3.8,3.8,0,0,1,.3-2.28,4.16,4.16,0,0,1,1.42-1.89,1.75,1.75,0,0,0,.71-0.86,1.4,1.4,0,0,1,1.73-.52,1.17,1.17,0,0,1,.34.46,2.15,2.15,0,0,1,.08.46c0.06,0.26.12,0.53,0.18,0.79h0.1c0.07-.1.14-0.2,0.22-0.29a10,10,0,0,1,.89-1,0.82,0.82,0,0,1,1.13.09,3,3,0,0,1,.22.32c0.19-.18.37-0.37,0.57-0.54a2.08,2.08,0,0,0,.79-1.56,0.9,0.9,0,0,1,.86-1,0.64,0.64,0,0,0,.37-0.27,5.35,5.35,0,0,0,.45-1,1.55,1.55,0,0,1,1.72-1.13,9,9,0,0,1,1.06.28,2.76,2.76,0,0,1,.51-0.3,0.52,0.52,0,0,0,.34-0.56c-0.52-.07-1-0.18-1.53-0.2-0.74,0-1.48,0-2.22,0a2.59,2.59,0,0,1-1-.27c-0.44-.21-0.83-0.51-1.26-0.75A0.86,0.86,0,0,0,34,19.83a7.21,7.21,0,0,0-2.61.9,1.45,1.45,0,0,0-.44.37,0.8,0.8,0,0,1-.86.29,0.75,0.75,0,0,1-.55-0.71C29.54,20.49,29.54,20.31,29.54,20.13Z"/><path class="cls-2" d="M41.45,35.66c0.28-.31.57-0.61,0.83-0.92a0.81,0.81,0,0,1,.95-0.35,0.8,0.8,0,0,1,.52.84,0.62,0.62,0,0,0,0,.09,1.92,1.92,0,0,1-1,2,1.12,1.12,0,0,1-1.46-.11,1.22,1.22,0,0,1-.16-1.1l-0.2.25a1.63,1.63,0,0,1-2,.48,0.85,0.85,0,0,1-.17-0.09,0.61,0.61,0,0,0-.95.06,1.39,1.39,0,0,1-1.35.29,2,2,0,0,1-1.73-1.69c-0.06-.35-0.18-0.68-0.26-1a1.6,1.6,0,0,1,.84-1.78,10,10,0,0,1,1.63-.78,5.22,5.22,0,0,1,3,0,1.8,1.8,0,0,1,.74.63,9.3,9.3,0,0,1,.6.95A2,2,0,0,1,41.45,35.66ZM35.93,34c0.11,0.42.2,0.83,0.32,1.22a0.48,0.48,0,0,0,.75.17,1.62,1.62,0,0,1,2-.27l0.61,0.32c0.12-.18.21-0.35,0.32-0.49a0.48,0.48,0,0,0,0-.66c-0.2-.26-0.35-0.56-0.53-0.84a0.38,0.38,0,0,0-.19-0.19,6.53,6.53,0,0,0-1.71,0A8,8,0,0,0,35.93,34Z"/><path class="cls-2" d="M40.25,25.82a1.92,1.92,0,0,1,0,.29,3.45,3.45,0,0,1-2.34,2.26A0.79,0.79,0,0,1,37.08,28l-0.45-.75A0.8,0.8,0,0,1,37,26a2,2,0,0,0,1.07-1c0.14-.2.26-0.41,0.4-0.59a0.74,0.74,0,0,1,1.21,0A2.92,2.92,0,0,1,40.25,25.82Z"/><path class="cls-2" d="M23,18.69c0.06-.26.13-0.68,0.26-1.09A0.69,0.69,0,0,1,24,17.13c0.65,0.09,1.3.19,1.94,0.32a0.75,0.75,0,0,1,.55,1,6,6,0,0,1-.37.92,0.77,0.77,0,0,1-.78.4c-0.51,0-1,0-1.52,0A0.87,0.87,0,0,1,23,18.69Z"/><path class="cls-2" d="M38.12,30.74H37.56a1.16,1.16,0,0,1-.86-0.3c-0.2-.18-0.41-0.35-0.6-0.54a0.72,0.72,0,0,1-.17-0.83,0.74,0.74,0,0,1,.69-0.5,13.6,13.6,0,0,1,1.4,0,2.2,2.2,0,0,1,1.56,1A0.75,0.75,0,0,1,39,30.74c-0.28,0-.56,0-0.84,0h0Z"/><path class="cls-2" d="M29.42,30.78a5.12,5.12,0,0,1,.62,0,0.75,0.75,0,0,1,.57,1,4.07,4.07,0,0,1-1.07,1.66,0.8,0.8,0,0,1-.86.2A0.76,0.76,0,0,1,28.18,33a10.94,10.94,0,0,1,0-1.37,0.83,0.83,0,0,1,.94-0.83h0.34Z"/><path class="cls-2" d="M20.31,38.55c0,0.27,0,.54,0,0.81a0.77,0.77,0,0,1-.71.77,0.75,0.75,0,0,1-.83-0.67,13.62,13.62,0,0,1,0-1.78,0.74,0.74,0,0,1,.8-0.67,0.77,0.77,0,0,1,.73.78C20.32,38.05,20.31,38.3,20.31,38.55Z"/><path class="cls-2" d="M22.66,40.13c0-.26,0-0.52,0-0.78a0.77,0.77,0,0,1,.75-0.76,0.75,0.75,0,0,1,.8.72c0,0.56,0,1.12,0,1.68a0.77,0.77,0,0,1-.8.72,0.78,0.78,0,0,1-.75-0.8c0-.26,0-0.52,0-0.78h0Z"/><path class="cls-2" d="M28.12,41.51c0,0.26,0,.52,0,0.78a0.78,0.78,0,0,1-.74.78,0.77,0.77,0,0,1-.81-0.71,15.84,15.84,0,0,1,0-1.72,0.78,0.78,0,0,1,1.55.08c0,0.26,0,.52,0,0.78h0Z"/><path class="cls-2" d="M30.47,42.87c0-.26,0-0.52,0-0.78a0.76,0.76,0,0,1,.71-0.76,0.7,0.7,0,0,1,.81.61,12.93,12.93,0,0,1,0,1.87,0.74,0.74,0,0,1-.8.64,0.77,0.77,0,0,1-.73-0.76c0-.27,0-0.54,0-0.81h0Z"/></svg>