<svg id="Layer_8" data-name="Layer 8" xmlns="http://www.w3.org/2000/svg" width="50" height="50" viewBox="0 0 50 50"><defs><style>.cls-1,.cls-3{fill:#fff;}.cls-1{opacity:0.01;}.cls-2{fill:#0090e0;}</style></defs><title>Meal</title><rect class="cls-1" width="50" height="50"/><path class="cls-2" d="M18,44c0-2.5,0-4.67,0-6.84a1.48,1.48,0,0,0-.43-0.85c-3.35-3.64-3.91-10.92-1.14-15,1.58-2.34,3.68-2.35,5.28,0,2.78,4,2.22,11.38-1.08,15a2.41,2.41,0,0,0-.44,1.53c0,3.12.17,6.24,0.25,9.35,0,0.56,0,1.12,0,1.7-11-1.42-20-12.32-19.93-24a24.52,24.52,0,0,1,48.42-5.21c2.64,11.53-3.94,24-15.14,28a29,29,0,0,1,.06-4,2.55,2.55,0,0,1,1.3-1.18,20.17,20.17,0,0,0,7.21-28A20.34,20.34,0,0,0,4.86,22.21,20.2,20.2,0,0,0,16,43.1C16.51,43.35,17,43.55,18,44ZM17.36,24c-0.94,2.91-1.66,5.85,0,8.75V24Z"/><path class="cls-2" d="M29,23.76a13.76,13.76,0,0,0,.18-1.54c0-2.83,0-5.66,0-8.49a4.64,4.64,0,0,1,.63-1.52,4.85,4.85,0,0,1,.53,1.46c0.05,2.95,0,5.89,0,8.84a7.06,7.06,0,0,0,.22,1.21l0.51,0a9,9,0,0,0,.3-1.59c0-2.89,0-5.78.05-8.66a3.65,3.65,0,0,1,.66-1.32,4.23,4.23,0,0,1,.49,1.31c0,2.95,0,5.89,0,8.84a8.35,8.35,0,0,0,.26,1.45l0.59,0a14,14,0,0,0,.17-1.53c0-2.83,0-5.66,0-8.49a3.21,3.21,0,0,1,.74-1.23,2.67,2.67,0,0,1,.81,1.09c-0.12,3.74-.24,7.48-0.57,11.21a4.94,4.94,0,0,1-1.43,3.07C31.92,29,32,30.38,32,31.88c0,5.37,0,10.74,0,16.43-2.92,1.14-6.39,1.21-10,.91v-4.3h7.85c0-5.2,0-10.1,0-15A1.34,1.34,0,0,0,29.54,29c-2.31-1.92-2.81-4.58-3-7.32-0.15-2.53-.11-5.08,0-7.62a3.51,3.51,0,0,1,.92-1.37A3.81,3.81,0,0,1,28.1,14c0.06,2.71,0,5.43,0,8.15,0,0.52.09,1,.14,1.57Z"/><path class="cls-3" d="M25,2.41A22.59,22.59,0,1,1,2.29,25,22.68,22.68,0,0,1,25,2.41m0-2.29A24.87,24.87,0,1,0,50,25,24.94,24.94,0,0,0,25,.13h0Z"/></svg>