<svg id="Layer_8" data-name="Layer 8" xmlns="http://www.w3.org/2000/svg" width="50" height="50" viewBox="0 0 50 50"><defs><style>.cls-1,.cls-3{fill:#fff;}.cls-1{opacity:0.01;}.cls-2{fill:#0090e0;}</style></defs><title>photos</title><rect class="cls-1" width="50" height="50"/><path class="cls-2" d="M25,49.07H5.47C1.73,49.07,0,47.35,0,43.66Q0,32.48,0,21.3C0,17.79,1.8,16,5.34,16c2.21,0,4.42,0,6.64,0a1,1,0,0,0,1.16-.85,4.46,4.46,0,0,1,4.49-3.41q7.35-.09,14.7,0a4.59,4.59,0,0,1,4.53,3.38,3.91,3.91,0,0,0,.58.84,3.33,3.33,0,0,0,.42-1c0.09-2,.21-2.09,2.2-2.1,1.43,0,2.86,0,4.29,0,1.23,0,1.8.5,1.7,1.68a1.62,1.62,0,0,0,1.23,2,4.06,4.06,0,0,1,2.7,4q0.05,12,0,24A4.51,4.51,0,0,1,45.27,49c-4.16.07-8.33,0-12.49,0H25ZM14.57,17.61c-3.25,0-6.32,0-9.39,0-2.44,0-3.59,1.16-3.59,3.53q0,11.37,0,22.75c0,2.44,1.17,3.58,3.67,3.58H44.69c2.5,0,3.7-1.14,3.71-3.57q0-11.37,0-22.75c0-2.37-1.18-3.53-3.6-3.55-2.65,0-5.29,0-7.94,0-0.46,0-.91-0.05-1.37-0.08,0-.58,0-1-0.09-1.43a3,3,0,0,0-3.07-2.74q-7.35,0-14.71,0a3,3,0,0,0-3,3C14.56,16.72,14.57,17.05,14.57,17.61ZM39.5,14.43v1.41h5l-0.07-1.41h-5Z"/><path class="cls-2" d="M12,32.48a13,13,0,1,1,12.95,12.8A12.91,12.91,0,0,1,12,32.48Zm13,10.17A10.19,10.19,0,1,0,14.61,32.37,10.27,10.27,0,0,0,24.94,42.66Z"/><path class="cls-2" d="M7.93,20.32c0.26,0,.52,0,0.78,0,0.8,0.06,2.2,0,2.29.25a9.46,9.46,0,0,1,.21,3.24,1.06,1.06,0,0,1-.81.55c-1.68.05-3.37,0-5.06,0a0.54,0.54,0,0,1-.26,0c-1.32-.81-0.36-2.07-0.57-3.1a1.26,1.26,0,0,1,.83-0.9A17.28,17.28,0,0,1,7.93,20.32Z"/><path class="cls-2" d="M25,39.75a7.28,7.28,0,1,1,0-14.56A7.28,7.28,0,1,1,25,39.75Z"/><ellipse class="cls-3" cx="28.1" cy="30.3" rx="1.71" ry="1.68"/></svg>