<svg id="Layer_8" data-name="Layer 8" xmlns="http://www.w3.org/2000/svg" width="50" height="50" viewBox="0 0 50 50"><defs><style>.cls-1{fill:#fff;opacity:0.01;}.cls-2{fill:#0090e0;}</style></defs><title>transport</title><rect class="cls-1" width="50" height="50"/><path class="cls-2" d="M7.35,24.92L9,22.5l0.78-1.65c0.73-1.72,1.36-3.49,2.21-5.15a5.14,5.14,0,0,1,4.74-2.84c0.8,0,1.6,0,2.32,0a1.79,1.79,0,0,0,.34-0.37c1.31-3.34,1.31-3.34,4.93-3.34,0.4,0,.81,0,1.2,0,2.8-.28,5.35-0.17,5.41,3.74,4.22-.5,6.17,1.88,7.38,5.27,0.36,1,.78,2,1.18,3l0,0L40,22.27l0.52,1c0.51,0.4,1,.83,1.53,1.18,1.62,1.06,3.35,2,4.86,3.17A7.54,7.54,0,0,1,50,34.31a30.3,30.3,0,0,1-.45,5.78C48.76,43,46.26,45,44.95,47.73c-1,2.06-3.9,1.32-5.95.91-2.31-.45-2.7-2.51-2.8-4.64H14.34c-1,4.45-2,5.18-6.47,4.88a3.83,3.83,0,0,1-3.8-3.67A4.49,4.49,0,0,0,3,43.43a13,13,0,0,1-1.85-2.27C-1.5,34.93.49,29.06,6.32,25.64ZM25.11,41.38H41.56c5.71,0,5.9-.19,5.93-5.93a9,9,0,0,0-9-8.91c-8.56,0-17.13.21-25.68-.1-3.69-.13-6.06,1.64-8.37,3.86a5.21,5.21,0,0,0-1.42,3,31.92,31.92,0,0,0,.11,5.4c0.12,1.92,1.07,2.76,3.13,2.73C12.53,41.31,18.82,41.38,25.11,41.38Zm-14-17.45h27c-1.15-2.54-2.08-5-3.36-7.19A3.61,3.61,0,0,0,32,15.42c-4.94-.13-9.88-0.16-14.82,0A4.06,4.06,0,0,0,14.29,17,65.93,65.93,0,0,0,11.08,23.93Zm27.84,20c-0.06,2.31.17,2.43,2.83,2.42,1.71,0,2.28-.7,1.86-2.42H38.92Zm-32.25,0c0,2.34.33,2.54,3.08,2.42,1.68-.07,2-0.91,1.63-2.42H6.67ZM22.11,12.66h6.27C27.12,11.25,23.18,11.3,22.11,12.66Z"/><path class="cls-2" d="M9.78,20.85L9,22.5a2.25,2.25,0,0,0-.76-0.91,19.17,19.17,0,0,0-2.72.09,2.8,2.8,0,0,1-.2,1.1,10.1,10.1,0,0,1-1.26,1.28c-0.4-.45-1.16-0.93-1.14-1.36,0.06-1.21-.85-2.82.9-3.53,1.94-.79,4.58,0,5.43,1.55A1,1,0,0,0,9.78,20.85Z"/><path class="cls-2" d="M39.51,21.14l0,0c0.74-2.06,2.33-2.23,4.23-2.11a2.81,2.81,0,0,1,2.38,4.38A1.49,1.49,0,0,1,45,24a1.54,1.54,0,0,1-1.06-.72,5.1,5.1,0,0,1-.36-1.47Z"/><path class="cls-2" d="M40.51,23.31l-0.52-1Z"/><path class="cls-2" d="M7.35,24.92l-1,.73Z"/><path class="cls-2" d="M25.14,34A44.22,44.22,0,0,1,20.56,34,4.29,4.29,0,0,1,19,32.83c0.52-.47,1-1.34,1.57-1.36,3.12-.13,6.25-0.12,9.38,0,0.5,0,1,.82,1.47,1.25-0.49.42-.95,1.16-1.47,1.21a47,47,0,0,1-4.78.06v0Z"/><path class="cls-2" d="M39.33,37.22c-1.22-1.11-2.81-1.89-2.83-2.72,0-1.64,1.72-1.79,3-1.77s3.08,0.19,2.86,1.91C42.27,35.51,40.64,36.17,39.33,37.22Z"/><path class="cls-2" d="M10.88,37.22C9.63,36.14,8,35.39,8,34.56c-0.09-1.64,1.66-1.82,3-1.82S14,33,13.88,34.61C13.81,35.45,12.17,36.16,10.88,37.22Z"/><path class="cls-2" d="M25.21,38.94a9.69,9.69,0,0,1-2.37,0,4.38,4.38,0,0,1-1.37-1.12c0.47-.44.91-1.19,1.42-1.25a20.82,20.82,0,0,1,4.56,0,3.91,3.91,0,0,1,1.45,1.21,5.47,5.47,0,0,1-1.52,1.18,7.62,7.62,0,0,1-2.17,0h0Z"/></svg>