<svg id="Illustration" xmlns="http://www.w3.org/2000/svg" width="50" height="34.62" viewBox="0 0 50 34.62"><defs><style>.cls-1{fill:#cff5f9;}.cls-2{fill:#ace5e8;}.cls-3{fill:#45ce9d;}.cls-4,.cls-6,.cls-7{fill:#abef52;}.cls-47,.cls-5{fill:#308787;}.cls-5{opacity:0.63;}.cls-16,.cls-35,.cls-6{opacity:0.31;}.cls-7{opacity:0.36;}.cls-8{fill:#31317c;}.cls-9{fill:#212154;}.cls-10{fill:#ffbf9f;}.cls-11{fill:#39143f;}.cls-12{fill:#f78b31;}.cls-13{fill:#f9d730;}.cls-14{fill:#ed8772;}.cls-15{fill:#2e76cc;}.cls-16,.cls-17{fill:#225991;}.cls-18,.cls-19{fill:#3d89d3;}.cls-19{opacity:0.54;}.cls-20,.cls-21{fill:#52a0e2;}.cls-21{opacity:0.72;}.cls-22{fill:#214766;}.cls-23{fill:#fff;}.cls-24{fill:#3a3a99;}.cls-25{fill:#19193f;}.cls-26{fill:#272766;}.cls-27{fill:#5353ad;}.cls-28{fill:#202056;}.cls-29{fill:#5757bc;}.cls-30{fill:#7474ce;}.cls-31{fill:#72f2f2;}.cls-32{fill:#316891;}.cls-33{opacity:0.29;}.cls-34{fill:#2d4b63;}.cls-36{opacity:0.47;}.cls-37{fill:#f47231;}.cls-38{fill:#ff9f57;}.cls-39{opacity:0.58;}.cls-40{fill:#aa3f2b;}.cls-41{fill:#d64c27;}.cls-42{opacity:0.5;}.cls-43{opacity:0.34;}.cls-44{fill:#f7f7f7;}.cls-45{fill:#d8d8d8;}.cls-46{fill:#f7c331;}</style></defs><title>1766 [Converted]</title><path class="cls-1" d="M4.65,11.46a16.67,16.67,0,0,1,4.16,1.18,20.71,20.71,0,0,0,3.39,1.07A6,6,0,0,0,17.82,12c1.53-1.67,2-4.1,1.19-6.86a4.19,4.19,0,0,1,.48-4A3.23,3.23,0,0,1,19.78.86C12.67-1.47,2.3,2.58,4.19,7.88A7.87,7.87,0,0,1,4.65,11.46Z" transform="translate(0 -0.19)"/><path class="cls-1" d="M35.39,32.41a5.69,5.69,0,0,1-.21,1.26,5.59,5.59,0,0,1-.39,1l-0.82,0-1.43.06-0.54,0H30.07a145.12,145.12,0,0,1-15.86-.51c-0.9-.1-1.84-0.2-2.78-0.33L11,33.91l-0.41-.06H10.57l-0.31-.05L9.9,33.72h0l-0.34-.06-0.35-.07h0L8.81,33.5l-0.36-.08h0c-1-.89-1.94-1.82-2.83-2.79A39.65,39.65,0,0,1,3,27.54L2.67,27A30.62,30.62,0,0,1,.15,22.94,13.56,13.56,0,0,1,.46,21.5l0.08-.27v0C0.6,21,.65,20.86.71,20.69l0.05-.16,0.12-.34L1,20l0.09-.22c1.25-3.05,3.17-5.29,3.57-8.08a16.71,16.71,0,0,1,4.11,1.18,20.93,20.93,0,0,0,3.43,1.08A6.26,6.26,0,0,0,18,12.14c1.59-1.73,2-4.24,1.24-7.07a4,4,0,0,1,.43-3.75A2.87,2.87,0,0,1,20,.95a9.63,9.63,0,0,1,3.13,1.78C27.3,6.31,29.23,9,31.71,10.13c-0.37.22-.76,0.43-1.15,0.63-1.46.77-3,1.56-3.66,3.55-1.3,3.78.87,6,4.16,9.48l0.64,0.67C32.68,25.51,35.6,28.89,35.39,32.41Z" transform="translate(0 -0.19)"/><path class="cls-1" d="M50,22.55c0,0.12,0,.24,0,0.36s0,0.17,0,.25c0,0.4,0,.8-0.06,1.18V24.5c0,0.07,0,.13,0,0.2l0,0.2,0,0.13q0,0.2-.05.4c0,0.14,0,.28-0.07.42l0,0.21v0.06l-0.05.24v0l-0.06.27h0l-0.06.23q-0.08.29-.17,0.56l-0.08.22v0l-0.09.24v0l-0.1.23L49,28.37l0,0.08-0.11.22-0.13.24-0.13.23-0.14.23q-0.14.22-.3,0.44a8.19,8.19,0,0,1-1.44,1.49l-0.11.09-0.34.25,0,0L45.71,32l-0.13.08-0.14.08-0.28.16L45,32.39l-0.15.08-0.46.22-0.16.07-0.33.14L43.58,33,43,33.23h0l-0.35.12-0.19.06-0.38.11h0l-0.36.1-0.24.06-0.42.1-0.21,0L40.22,34,40,34l-0.23,0-0.23,0-1,.16-0.25,0-0.51.07-0.49.06-0.84.09-0.56.05-0.28,0-0.58,0a5.77,5.77,0,0,0,.57-2.26c0.18-3.6-2.76-7-3.76-8.08l-0.64-.67C28,20.27,25.87,18,27.12,14.39c0.65-1.91,2.13-2.68,3.55-3.42,0.44-.23.88-0.46,1.3-0.73a8.43,8.43,0,0,0,4.89.37,10.6,10.6,0,0,1,6.87,1.32A12.17,12.17,0,0,1,50,22.55Z" transform="translate(0 -0.19)"/><path class="cls-1" d="M8,33.29l-0.26-.07-0.26-.08L6.93,33a10.68,10.68,0,0,1-5.3-3.53A8,8,0,0,1,0,23.75l0-.2,0-.2a32.08,32.08,0,0,0,2.39,3.81L3.13,28c0.63,0.82,1.3,1.63,2,2.42h0C6,31.43,7,32.39,8,33.29H8Z" transform="translate(0 -0.19)"/><path class="cls-2" d="M8,33.29H8l-0.26-.07-0.26-.08L6.93,33a10.68,10.68,0,0,1-5.3-3.53A8,8,0,0,1,0,23.75l0-.2,0-.2c0-.14,0-0.27.06-0.41h0l0-.26,0-.16,0.05-.25,0-.17,0-.22,0.1-.38,0.08-.27v0C0.6,21,.65,20.86.71,20.69l0.05-.16,0.12-.34L1,20l0.09-.22c1.22,0.76,2.23,2.23,2,5a13.24,13.24,0,0,0,0,2.73c0,0.17.05,0.34,0.09,0.5a3.12,3.12,0,0,0,2,2.42h0C6,31.43,7,32.39,8,33.29Z" transform="translate(0 -0.19)"/><path class="cls-2" d="M35.39,32.41a5.69,5.69,0,0,1-.21,1.26,5.59,5.59,0,0,1-.39,1l-0.82,0-1.43.06-0.54,0H30.07a145.12,145.12,0,0,1-15.86-.51c-0.9-.1-1.84-0.2-2.78-0.33L11,33.91l-0.41-.06H10.57l-0.31-.05L9.9,33.72h0l-0.34-.06-0.35-.07h0L8.81,33.5l-0.36-.08h0c-1-.89-1.94-1.82-2.83-2.79,2,0.64,5.36.66,10.66,0.83C23.37,31.68,30.18,33,35.39,32.41Z" transform="translate(0 -0.19)"/><path class="cls-2" d="M50,22.55c0,0.12,0,.24,0,0.36s0,0.17,0,.25c0,0.4,0,.8-0.06,1.18V24.5c0,0.07,0,.13,0,0.2l0,0.2,0,0.13q0,0.2-.05.4c0,0.14,0,.28-0.07.42l0,0.21v0.06l-0.05.24v0l-0.06.27h0l-0.06.23q-0.08.29-.17,0.56l-0.08.22v0l-0.09.24v0l-0.1.23L49,28.37l0,0.08-0.11.22-0.13.24-0.13.23-0.14.23q-0.14.22-.3,0.44a8,8,0,0,1-1.44,1.49l-0.11.09-0.34.25,0,0L45.71,32l-0.13.08-0.14.08-0.28.16L45,32.39l-0.15.08-0.46.22-0.16.07-0.33.14L43.58,33,43,33.23h0l-0.35.12-0.19.06-0.38.11h0l-0.36.1-0.24.06-0.42.1-0.21,0L40.22,34,40,34l-0.23,0-0.23,0-1,.16-0.25,0-0.51.07-0.49.06-0.84.09-0.56.05-0.28,0-0.58,0a5.77,5.77,0,0,0,.57-2.26c3-.37,5.51-1.41,7.17-3.71,4.52-6.28,3.94-7.36,0-12.07-1.35-1.61-.69-3.36.92-4.68A12.17,12.17,0,0,1,50,22.55Z" transform="translate(0 -0.19)"/><path class="cls-3" d="M43.64,28.36c-0.72.38-.38,1.12-0.33,1.62a0.71,0.71,0,0,1,0,.2,1.79,1.79,0,0,1-1.12.75H33.51V30.35s-0.21-2.56,1.54-2.69,1-1.69,2.12-2.85c0.66-.68,1.07-1,1.41-1.29a3.15,3.15,0,0,0,.64-0.81c0.5-.89.5-1.45,1.74-1.06a1.1,1.1,0,0,0,.42.05,1.19,1.19,0,0,0,.41-0.11c0.69-.33,1.16-1.17,2-0.54a2.12,2.12,0,0,1,.77,2.81c-0.39,1.08.77,2,.89,3.16S44.47,27.92,43.64,28.36Z" transform="translate(0 -0.19)"/><path class="cls-4" d="M42.8,23.4a4.93,4.93,0,0,0,.46-0.85S43.09,22.88,42.8,23.4Z" transform="translate(0 -0.19)"/><path class="cls-4" d="M42.36,27a5.06,5.06,0,0,0-2.33.35h0a26.71,26.71,0,0,0,2.77-4,19.32,19.32,0,0,1-2.56,3.06c-2.53,2.55-4.68,4.31-4.68,4.31h1a15.43,15.43,0,0,0,1.8-1.64h0a17.53,17.53,0,0,1,2.37-1.75c0.78-.38,3.24,0,3.24,0A4.22,4.22,0,0,0,42.36,27Z" transform="translate(0 -0.19)"/><path class="cls-5" d="M43.31,30.18a1.79,1.79,0,0,1-1.12.75H33.51V30.35s-0.21-2.56,1.54-2.69,1-1.69,2.12-2.85c0.66-.68,1.07-1,1.41-1.29l0.06,0.34s2,0,1.12,1.68S37.32,29,39.32,29s3-.14,2.93.9c0,0.43.47,0.34,1.06,0.08A0.71,0.71,0,0,1,43.31,30.18Z" transform="translate(0 -0.19)"/><path class="cls-6" d="M43.64,28.36c-0.72.38-.38,1.12-0.33,1.62a0.71,0.71,0,0,1,0,.2,1.79,1.79,0,0,1-1.12.75h-1.7A1.8,1.8,0,0,1,41,30.76c1.13-.17,1.75-0.6,1.62-1.77s0.58-1.1,1.82-1.5-0.12-1.79-.84-2.78S44.24,23.07,44,22c-0.19-.79-1.51-0.58-2.19-0.41,0.69-.33,1.16-1.17,2-0.54a2.12,2.12,0,0,1,.77,2.81c-0.39,1.08.77,2,.89,3.16S44.47,27.92,43.64,28.36Z" transform="translate(0 -0.19)"/><path class="cls-3" d="M12.05,31.11H9.14a9.59,9.59,0,0,1-2.57-1.46,0.61,0.61,0,0,1-.22-0.52c0.19-.81,1.46-0.36,1-1.19s-2-1.25-1.93-1.85S8,25.94,7.29,24.4s-2.18-1.64-1.64-2.56a1.59,1.59,0,0,1,2.76-.13c0.63,1.14,1,2.08,1.65,1.58l0.13-.12c0.71-.73.46-1.34,1.42-0.93S12.05,31.11,12.05,31.11Z" transform="translate(0 -0.19)"/><path class="cls-4" d="M11,31.05a13.16,13.16,0,0,0-1.2-4.82,5,5,0,0,1,0-1.06,3,3,0,0,1,.56-1.7,3.63,3.63,0,0,0-.66,1,3.43,3.43,0,0,0-.24,1.1,8.66,8.66,0,0,0-2-2.64A16.76,16.76,0,0,1,9.8,27.08c0.12,0.37.21,0.75,0.29,1.11a5.37,5.37,0,0,0-1.66-1.46c-1.29-.7-1.75-0.41-1.75-0.41a3,3,0,0,1,2.14,1A11.33,11.33,0,0,1,10.24,29a16.46,16.46,0,0,1,.19,2.06Z" transform="translate(0 -0.19)"/><path class="cls-5" d="M12.05,31.11H9.14a9.59,9.59,0,0,1-2.57-1.46c0-.33.23-0.56,1.22,0.11,1.74,1.18,2,.08,1.5-1.2s0.72-1,1.12-2.49c0.32-1.21-.52-1.92-0.36-2.8l0.13-.12c0.71-.73.46-1.34,1.42-0.93S12.05,31.11,12.05,31.11Z" transform="translate(0 -0.19)"/><path class="cls-7" d="M6.41,21.65a0.69,0.69,0,0,0,0,1.06C7,23.33,7.68,25.2,8,24.6a3.82,3.82,0,0,0-.26-2.81A1.46,1.46,0,0,0,6.41,21.65Z" transform="translate(0 -0.19)"/><path class="cls-7" d="M6.41,26.25a1.56,1.56,0,0,1,1.41.21c0.6,0.5.21,1.41-.34,0.83S6.41,26.25,6.41,26.25Z" transform="translate(0 -0.19)"/><path class="cls-8" d="M20.32,22.43v8.68h-9.5V22.43A1.39,1.39,0,0,1,12.2,21h6.73A1.39,1.39,0,0,1,20.32,22.43Z" transform="translate(0 -0.19)"/><path class="cls-9" d="M20.32,30a2.66,2.66,0,0,1-.77.89l-0.23.17h-8.5V30.68a2.43,2.43,0,0,0,2.42-1.36c0.85-1.79.16-6.54-.57-8.27H16a8,8,0,0,1,2.59,1.66,8.16,8.16,0,0,1,1.69,2.92A5.77,5.77,0,0,1,20.32,30Z" transform="translate(0 -0.19)"/><path class="cls-10" d="M24.11,14.89a2.9,2.9,0,0,1-.87,2.3,1.37,1.37,0,0,1-.77.35V18a1.39,1.39,0,0,0-.26.33,9.68,9.68,0,0,1-.83,1.37,6.89,6.89,0,0,1-1.7-1.91,0.13,0.13,0,0,0-.09-0.11s0.14-.69.21-1.27h0a3,3,0,0,0,0-.83,3.56,3.56,0,0,1-.25-1.89A2.93,2.93,0,0,1,23.3,11.5C25.3,12.13,24.12,13.95,24.11,14.89Z" transform="translate(0 -0.19)"/><path class="cls-11" d="M19.82,16.2a2.48,2.48,0,0,1-.27-0.46c-0.11-.25-1.38-2.62-0.55-3.84A1.58,1.58,0,0,1,20.77,11a11.23,11.23,0,0,0,1.52-.37c0.42-.17,2.13-1.45,3-0.44A2.19,2.19,0,0,1,25,13a0.68,0.68,0,0,1-.55.26,0.84,0.84,0,0,0-.6-0.57,8.45,8.45,0,0,1-1.39-.06,1.34,1.34,0,0,0-1.35,0c-0.35.35-.25,1.56-0.37,1.74a0.35,0.35,0,0,1-.58-0.21c-0.06-.33-0.36.27-0.4,0.66s0.27,0.73.17,1A1.68,1.68,0,0,0,19.82,16.2Z" transform="translate(0 -0.19)"/><circle class="cls-12" cx="20.32" cy="13.76" r="1.08"/><path class="cls-13" d="M21.08,13.95a1.08,1.08,0,1,1-.49-0.9A1.08,1.08,0,0,1,21.08,13.95Z" transform="translate(0 -0.19)"/><path class="cls-13" d="M22.83,10.38l-0.61.35-0.35.08a2.09,2.09,0,0,0-1,1A2.92,2.92,0,0,0,20.59,13,1.08,1.08,0,0,0,20,12.87s0.2-1.75,1.17-2.28A1.94,1.94,0,0,1,22.83,10.38Z" transform="translate(0 -0.19)"/><path class="cls-14" d="M22.47,17.53V18a1.39,1.39,0,0,0-.26.33,4.11,4.11,0,0,1-1-.27,3,3,0,0,1-1.41-1.65h0L19.85,16a11.82,11.82,0,0,0,.89,1A3.38,3.38,0,0,0,22.47,17.53Z" transform="translate(0 -0.19)"/><path class="cls-15" d="M32.3,28L29,27.83s-1.14-.85-1.74-1.22-1.48-1.05-1.54-1.1h0s0.06,1.06.06,1.5v3.91H15.16V28.75a6.5,6.5,0,0,1-2.42-.31,1.62,1.62,0,0,1-1.09-1.08c-0.37-1.56,1.51-7.75,3.48-8.84l0.22-.1a11.83,11.83,0,0,1,3.74-.48,1.31,1.31,0,0,1,.48-0.22,0.13,0.13,0,0,1,.09.11,6.89,6.89,0,0,0,1.7,1.91c0.19-.09.8-1.48,1.09-1.7a0.11,0.11,0,0,1,.07,0c0.25,0,2.33.37,2.78,0.89s3.07,4.3,3.55,5c0.16,0.22.6,0.76,1.11,1.36C31,26.44,32.3,28,32.3,28Z" transform="translate(0 -0.19)"/><path class="cls-16" d="M17.74,24.23s0.58,2.24,3.78,3.05,4.5,0.4,2,1.28-4.95,1.09-6-.59S17.74,24.23,17.74,24.23Z" transform="translate(0 -0.19)"/><path class="cls-17" d="M25.76,30v1H15.16V28.75a6.5,6.5,0,0,1-2.42-.31,15.94,15.94,0,0,1,1.46-5.29,25,25,0,0,1,3.88-3.43S16.42,25,16.82,25.51,20,26.74,20,26.74l2.2,2.58s-4.8-.41-5.26.25,4.63,1.06,6.44,1a4.16,4.16,0,0,0,2.33-.56Z" transform="translate(0 -0.19)"/><path class="cls-17" d="M25.71,25.51a18.05,18.05,0,0,1-.6-2.7,19.19,19.19,0,0,1-.16-2,9.4,9.4,0,0,0,0,3.11A2.79,2.79,0,0,0,25.71,25.51Z" transform="translate(0 -0.19)"/><path class="cls-18" d="M22.81,28a1.58,1.58,0,0,1-.17.8,2.64,2.64,0,0,1-.25.36,0.94,0.94,0,0,1-.19.18l-7-.56S12,29,11.65,27.37a11.31,11.31,0,0,1,.91-4.72,11.37,11.37,0,0,1,1.2-2.6A6.14,6.14,0,0,1,14.54,19a2.59,2.59,0,0,1,.59-0.48h0A2.64,2.64,0,0,1,17.07,18c3,0.42-1.6,8-1.6,8a13.39,13.39,0,0,1,3,.31c1.79,0.47,4.32,1.43,4.32,1.43A2,2,0,0,1,22.81,28Z" transform="translate(0 -0.19)"/><path class="cls-19" d="M18.52,20.79a4.47,4.47,0,0,0-.44,2,4.1,4.1,0,0,0,1.3,2.28A7.38,7.38,0,0,0,23,27.22a2.17,2.17,0,0,0,1,0,1,1,0,0,0,.72-0.61,1.3,1.3,0,0,0-.08-0.86,6.47,6.47,0,0,0-1-1.63c-0.74-1-1.56-1.87-2.37-2.76L19.7,19.62C18.95,18.8,18.69,20.33,18.52,20.79Z" transform="translate(0 -0.19)"/><path class="cls-18" d="M18.63,18a2.28,2.28,0,0,1,1.23-.51c0.27,0.17,1.71,1.77,1.53,2a9.5,9.5,0,0,1-.92.77Z" transform="translate(0 -0.19)"/><polygon class="cls-17" points="21.4 19.27 21.52 19.83 20.88 19.73 21.4 19.27"/><path class="cls-18" d="M21.4,19.46s0.89-1.78,1.19-1.6a2.34,2.34,0,0,1,.58.64L22,19.73Z" transform="translate(0 -0.19)"/><polygon class="cls-17" points="21.95 19.54 21.52 19.83 21.4 19.27 21.95 19.54"/><path class="cls-16" d="M21.52,20.54s1.12,1.5,2.16,2.79a10,10,0,0,1,1.13,1.53A15.78,15.78,0,0,0,23.54,22,3.42,3.42,0,0,0,21.52,20.54Z" transform="translate(0 -0.19)"/><path class="cls-20" d="M19.62,17.52a0.85,0.85,0,0,0,.15.36c0.15,0.22.3,0.43,0.46,0.64s0.65,0.86.75,0.62c0.22-.5-0.72-1.25-1-1.54a0.56,0.56,0,0,0-.16-0.12C19.67,17.42,19.62,17.45,19.62,17.52Z" transform="translate(0 -0.19)"/><path class="cls-15" d="M22.69,28.68l0,0.1a2.64,2.64,0,0,1-.25.36,0.94,0.94,0,0,1-.19.18l-5-.39-2.08-.17H14.92c-0.74,0-2.95-.05-3.27-1.4a11.31,11.31,0,0,1,.91-4.72,11.37,11.37,0,0,1,1.2-2.6A6.14,6.14,0,0,1,14.54,19s-3.14,6.13-1.8,7.75,5,1.56,7.09,1.61a7,7,0,0,0,3-.39A1.7,1.7,0,0,1,22.69,28.68Z" transform="translate(0 -0.19)"/><path class="cls-21" d="M14.67,26.65a4.36,4.36,0,0,1,1-.17,10.43,10.43,0,0,1,2.55.13c2.05,0.36,4.4,1,3.49,1.36s-6.81-.37-7.22-0.76S14.35,26.75,14.67,26.65Z" transform="translate(0 -0.19)"/><path class="cls-21" d="M17.08,19a0.7,0.7,0,0,1,0,.28l-0.55,2a6.93,6.93,0,0,1-1.08,2.57,6.2,6.2,0,0,1-2.09,1.54,0.36,0.36,0,0,1-.4,0,0.35,0.35,0,0,1,0-.33,20.12,20.12,0,0,1,1.35-3.87c0.43-1,1.1-2.9,2.51-2.55a0.45,0.45,0,0,1,.32.21A0.29,0.29,0,0,1,17.08,19Z" transform="translate(0 -0.19)"/><path class="cls-17" d="M32.3,28L29,27.83s-1.14-.85-1.74-1.22-1.48-1.05-1.54-1.1h0A20,20,0,0,1,25,23.44a5.47,5.47,0,0,1,0-1.79s0.83,3.7,2.8,4.25A2.26,2.26,0,0,0,30,25.22C31,26.44,32.3,28,32.3,28Z" transform="translate(0 -0.19)"/><path class="cls-19" d="M25.71,20s-0.61,1,.93,3.32,2.81,1.9,2.43,1.24S25.71,20,25.71,20Z" transform="translate(0 -0.19)"/><path class="cls-10" d="M14.92,28.76h0Z" transform="translate(0 -0.19)"/><path class="cls-17" d="M22.69,28.68l0,0.1a2.64,2.64,0,0,1-.25.36,0.94,0.94,0,0,1-.19.18l-5-.39a19.56,19.56,0,0,0,5-.13A1.53,1.53,0,0,1,22.69,28.68Z" transform="translate(0 -0.19)"/><path class="cls-12" d="M23.56,16.61H23.43V16.49a1.49,1.49,0,0,0,1.12-.32,4.59,4.59,0,0,0-.37-2l0.11,0a4.65,4.65,0,0,1,.37,2.06A1.33,1.33,0,0,1,23.56,16.61Z" transform="translate(0 -0.19)"/><ellipse class="cls-22" cx="22.96" cy="16.35" rx="0.6" ry="0.34"/><path class="cls-23" d="M20.46,13.34l-0.06,0a1.07,1.07,0,0,0-.8-0.17c-0.56.09-.68,1-0.07,0.68Z" transform="translate(0 -0.19)"/><rect class="cls-24" x="19.01" y="29.99" width="22.37" height="0.75"/><polygon class="cls-25" points="19.02 29.99 19.02 29.57 28.06 28.75 27.11 29.99 19.02 29.99"/><polygon class="cls-25" points="27.11 29.99 31.78 23.47 32.16 23.67 27.58 29.99 27.11 29.99"/><polygon class="cls-26" points="40.42 23.67 36.38 29.37 35.94 29.99 27.58 29.99 30.78 25.57 30.78 25.57 30.79 25.57 32.16 23.67 40.42 23.67"/><polygon class="cls-27" points="40.42 23.67 40.17 23.46 31.78 23.47 32.16 23.67 40.42 23.67"/><polygon class="cls-25" points="30.79 25.57 30.78 25.57 30.78 25.57 30.79 25.57"/><path class="cls-28" d="M36.38,29.56l-0.44.62H27.58l3.21-4.42c-0.08.14-2.19,3.8,0.9,3.8h4.7Z" transform="translate(0 -0.19)"/><path class="cls-8" d="M31.84,25.47a0.91,0.91,0,0,0-.27.41c-0.26.7-.53,1.81,0.23,2.3L32,28.27c1.38,0.58,6.09-1.89,6.64-3,0.33-.63-2.75-0.4-3-0.38-0.77.06-1.54,0.15-2.31,0.25-0.36,0-.73.06-1.09,0.13A0.86,0.86,0,0,0,31.84,25.47Z" transform="translate(0 -0.19)"/><path class="cls-8" d="M37.81,26.75s-2.2,1.89-3.45,2.06-2.47.17-1.93,0.29a7.05,7.05,0,0,0,3.39-.27A4.69,4.69,0,0,0,37.81,26.75Z" transform="translate(0 -0.19)"/><path class="cls-29" d="M40.22,30.65c0.56,0.19-11.62.1-11.47-.08s7.7-.29,9.28-0.31A3.94,3.94,0,0,1,40.22,30.65Z" transform="translate(0 -0.19)"/><path class="cls-10" d="M27.12,29.41a2.85,2.85,0,0,0-1.35-.67c-0.4,0-.5.59-1.26,0.52l-0.21,0h0a7.71,7.71,0,0,0-1.91-.1,2.64,2.64,0,0,0,.25-0.36,1.58,1.58,0,0,0,.17-0.8h0l0.35,0a17.07,17.07,0,0,0,1.74-.28,2.5,2.5,0,0,1,2.29,1,1.19,1.19,0,0,0,.29.65C27.62,29.48,27.3,29.6,27.12,29.41Z" transform="translate(0 -0.19)"/><path class="cls-14" d="M24.3,29.23a7.71,7.71,0,0,0-1.91-.1,2.64,2.64,0,0,0,.25-0.36,1.58,1.58,0,0,0,.17-0.8h0l0.35,0a0.84,0.84,0,0,0,.36.84A6.5,6.5,0,0,0,24.3,29.23Z" transform="translate(0 -0.19)"/><rect class="cls-30" x="4.19" y="30.74" width="39.45" height="1.78"/><circle class="cls-26" cx="12.71" cy="7.19" r="5.68"/><path class="cls-31" d="M17.4,7.38a4.69,4.69,0,0,1-5.86,4.54l-0.37-.11a4.69,4.69,0,0,1-1.82-1.16L9.13,10.4A4.62,4.62,0,0,1,8.82,10a4.69,4.69,0,0,1,3.9-7.29,4.77,4.77,0,0,1,.92.09,4.65,4.65,0,0,1,1.16.39,4.55,4.55,0,0,1,.46.26l0.28,0.2A4.67,4.67,0,0,1,17.4,7.38Z" transform="translate(0 -0.19)"/><circle class="cls-32" cx="8.77" cy="7.17" r="0.29"/><circle class="cls-32" cx="16.57" cy="7.17" r="0.29"/><circle class="cls-32" cx="12.74" cy="3.19" r="0.29"/><circle class="cls-32" cx="12.74" cy="10.98" r="0.29"/><rect class="cls-32" x="10.69" y="3.63" width="0.12" height="0.52" transform="translate(-0.35 6.42) rotate(-33.68)"/><rect class="cls-32" x="9.36" y="5.02" width="0.12" height="0.44" transform="translate(0.89 11.64) rotate(-66.8)"/><rect class="cls-32" x="14.53" y="3.88" width="0.45" height="0.12" transform="translate(2.29 12.56) rotate(-50.19)"/><rect class="cls-32" x="15.77" y="5.32" width="0.55" height="0.12" transform="translate(-0.5 8.73) rotate(-30.62)"/><rect class="cls-32" x="16.03" y="8.93" width="0.12" height="0.42" transform="translate(0.62 19.1) rotate(-62.85)"/><rect class="cls-32" x="14.84" y="10.39" width="0.12" height="0.52" transform="matrix(0.84, -0.54, 0.54, 0.84, -3.39, 9.49)"/><rect class="cls-32" x="10.52" y="10.63" width="0.46" height="0.12" transform="translate(-4.32 12.21) rotate(-51.34)"/><rect class="cls-32" x="9.19" y="9.08" width="0.45" height="0.12" transform="translate(-3.01 4.74) rotate(-25.44)"/><path class="cls-32" d="M13.17,7.36a0.43,0.43,0,0,0-.31-0.41v-3H12.63v3a0.43,0.43,0,1,0,.33.78l1,0.93,0.16-.17-1-.93A0.42,0.42,0,0,0,13.17,7.36Z" transform="translate(0 -0.19)"/><g class="cls-33"><path class="cls-34" d="M14.39,10.07A4.69,4.69,0,0,1,10.1,3.49,4.69,4.69,0,1,0,17,9.27,4.67,4.67,0,0,1,14.39,10.07Z" transform="translate(0 -0.19)"/></g><g class="cls-35"><path class="cls-23" d="M14.79,3.17L8.82,10a4.68,4.68,0,0,1-.56-1.15l5.37-6.06A4.65,4.65,0,0,1,14.79,3.17Z" transform="translate(0 -0.19)"/><path class="cls-23" d="M15.53,3.63l-6.17,7L9.13,10.4l6.11-7Z" transform="translate(0 -0.19)"/><path class="cls-23" d="M17.07,5.65l-5.53,6.27-0.37-.11,5.7-6.59A4.72,4.72,0,0,1,17.07,5.65Z" transform="translate(0 -0.19)"/></g><path class="cls-13" d="M40.76,10.32l-0.51-.11a2.76,2.76,0,0,0-.17-0.4l0.28-.44a0.2,0.2,0,0,0,0-.25l-0.8-.8a0.2,0.2,0,0,0-.25,0l-0.44.28a3,3,0,0,0-.4-0.16l-0.11-.51a0.2,0.2,0,0,0-.19-0.16H37a0.2,0.2,0,0,0-.19.16l-0.11.51a3,3,0,0,0-.4.16L35.89,8.3a0.2,0.2,0,0,0-.25,0l-0.8.8a0.2,0.2,0,0,0,0,.25L35.1,9.81a2.76,2.76,0,0,0-.16.4l-0.51.11a0.2,0.2,0,0,0-.16.19v1.13a0.2,0.2,0,0,0,.16.19l0.31,0.07,0.2,0a2.7,2.7,0,0,0,.16.4l0,0-0.26.41a0.2,0.2,0,0,0,0,.25l0.8,0.8a0.2,0.2,0,0,0,.25,0l0.44-.28a2.81,2.81,0,0,0,.4.16l0.11,0.51a0.2,0.2,0,0,0,.19.16h1.13a0.19,0.19,0,0,0,.16-0.08,0.18,0.18,0,0,0,0-.07l0.11-.51a2.81,2.81,0,0,0,.4-0.16l0.44,0.28a0.2,0.2,0,0,0,.25,0l0.8-.8a0.2,0.2,0,0,0,0-.25l-0.28-.44a2.71,2.71,0,0,0,.17-0.4l0.51-.11a0.2,0.2,0,0,0,.16-0.19V10.51A0.2,0.2,0,0,0,40.76,10.32Zm-2.42,1.26h0l-0.06.07-0.06.05h0l-0.06,0a0.88,0.88,0,0,1-.22.1h0l-0.2,0a0.9,0.9,0,0,1-.9-0.89,0.92,0.92,0,0,1,0-.2l0-.09,0-.09h0a0.9,0.9,0,0,1,.81-0.52h0a1,1,0,0,1,.75.49A0.89,0.89,0,0,1,38.34,11.58Z" transform="translate(0 -0.19)"/><g class="cls-36"><path class="cls-23" d="M34.62,10.49c0-.08.06-0.16,0.09-0.23l-0.28.06a0.2,0.2,0,0,0-.16.19v0.05Z" transform="translate(0 -0.19)"/><path class="cls-23" d="M35.57,8.58L36,8.86a3,3,0,0,1,.4-0.16l0-.17-0.12.05L35.89,8.3a0.2,0.2,0,0,0-.25,0l-0.23.23A0.19,0.19,0,0,1,35.57,8.58Z" transform="translate(0 -0.19)"/><path class="cls-23" d="M38.14,14l-0.08.39h0.1a0.2,0.2,0,0,0,.19-0.16l0.07-.34Z" transform="translate(0 -0.19)"/><path class="cls-23" d="M40.76,10.32l-0.51-.11a2.76,2.76,0,0,0-.17-0.4l0.28-.44a0.2,0.2,0,0,0,0-.25l-0.8-.8a0.2,0.2,0,0,0-.25,0l-0.44.28a3,3,0,0,0-.4-0.16l-0.11-.51a0.2,0.2,0,0,0-.19-0.16H37a0.2,0.2,0,0,0-.19.16l0,0.12h1a0.2,0.2,0,0,1,.19.16L38.14,8.7a3,3,0,0,1,.4.16L39,8.58a0.2,0.2,0,0,1,.25,0L40,9.4a0.2,0.2,0,0,1,0,.25l-0.28.44a2.76,2.76,0,0,1,.17.4l0.51,0.11a0.2,0.2,0,0,1,.16.19v1.07l0.16,0a0.2,0.2,0,0,0,.16-0.19V10.51A0.2,0.2,0,0,0,40.76,10.32Z" transform="translate(0 -0.19)"/><path class="cls-23" d="M40.09,12.34l0.08-.17-0.23,0a2.71,2.71,0,0,1-.17.4l0.28,0.44a0.2,0.2,0,0,1,0,.25l-0.56.56a0.2,0.2,0,0,0,.08,0l0.8-.8a0.2,0.2,0,0,0,0-.25Z" transform="translate(0 -0.19)"/></g><path class="cls-37" d="M37.59,9.41a1.66,1.66,0,1,0,1.69,1.66A1.67,1.67,0,0,0,37.59,9.41ZM37.87,12a1,1,0,0,1-.28,0,1,1,0,0,1-.92-0.58,1,1,0,0,1-.09-0.4,1,1,0,0,1,1-1h0.12a1,1,0,0,1,.75.49,1,1,0,0,1,.13.49A1,1,0,0,1,37.87,12Z" transform="translate(0 -0.19)"/><path class="cls-12" d="M37.67,9.48H37.45l-0.19,0h0l-0.08,0h0l-0.08,0h0L37,9.66l-0.08,0h0l-0.08.06-0.07.05-0.1.09L36.58,10,36.5,10l-0.06.07-0.06.08-0.05.09A1.5,1.5,0,0,0,39,11.76l0-.05,0.08-.16,0-.11,0-.07,0-.1v-0.2s0-.05,0-0.08A1.5,1.5,0,0,0,37.67,9.48ZM38.56,11a0.89,0.89,0,0,1-.22.59h0l-0.06.07-0.06.05h0l-0.06,0a0.88,0.88,0,0,1-.22.1h0l-0.2,0a0.9,0.9,0,0,1-.9-0.89,0.92,0.92,0,0,1,0-.2,0.65,0.65,0,0,1,0-.09l0-.09h0a0.9,0.9,0,0,1,.81-0.52h0a0.9,0.9,0,0,1,.75.49A0.89,0.89,0,0,1,38.56,11Z" transform="translate(0 -0.19)"/><path class="cls-38" d="M38.34,11.58a0.89,0.89,0,1,1-1.49-1l0,0.09,0,0.09a0.92,0.92,0,0,0,0,.2,0.9,0.9,0,0,0,.9.89l0.2,0h0a0.88,0.88,0,0,0,.22-0.1l0.06,0h0l0.06-.05Z" transform="translate(0 -0.19)"/><path class="cls-38" d="M37.53,9.7a1.5,1.5,0,0,1,1.33,2.21,1.5,1.5,0,1,0-2.52-1.62A1.5,1.5,0,0,1,37.53,9.7Z" transform="translate(0 -0.19)"/><g class="cls-33"><path class="cls-12" d="M34.27,10.66a3.4,3.4,0,0,0,.47,1.24l-0.31-.07a0.2,0.2,0,0,1-.16-0.19v-1Z" transform="translate(0 -0.19)"/><path class="cls-12" d="M38.32,14.32a0.19,0.19,0,0,1-.16.08H37a0.2,0.2,0,0,1-.19-0.16l-0.11-.51a2.81,2.81,0,0,1-.4-0.16l-0.44.28a0.2,0.2,0,0,1-.25,0l-0.8-.8a0.2,0.2,0,0,1,0-.25l0.26-.41a4.73,4.73,0,0,0,1.08.92A9.89,9.89,0,0,0,38.32,14.32Z" transform="translate(0 -0.19)"/></g><path class="cls-12" d="M34.17,12.45l-0.32-.07a1.74,1.74,0,0,0-.1-0.25l0.18-.28a0.12,0.12,0,0,0,0-.16l-0.5-.5a0.13,0.13,0,0,0-.16,0L33,11.36l-0.25-.1-0.07-.32a0.12,0.12,0,0,0-.12-0.1H31.81a0.13,0.13,0,0,0-.12.1l-0.07.32-0.25.1-0.28-.18a0.12,0.12,0,0,0-.16,0l-0.5.5a0.12,0.12,0,0,0,0,.16l0.18,0.28a1.74,1.74,0,0,0-.1.25l-0.32.07a0.13,0.13,0,0,0-.1.12v0.71a0.13,0.13,0,0,0,.1.12l0.19,0,0.13,0a1.7,1.7,0,0,0,.1.25v0L30.42,14a0.12,0.12,0,0,0,0,.16l0.5,0.5a0.13,0.13,0,0,0,.16,0l0.28-.18,0.25,0.1,0.07,0.32a0.13,0.13,0,0,0,.12.1h0.71a0.12,0.12,0,0,0,.1-0.05l0,0,0.07-.32L33,14.5l0.28,0.18a0.13,0.13,0,0,0,.16,0l0.5-.5a0.12,0.12,0,0,0,0-.16l-0.18-.28a1.71,1.71,0,0,0,.1-0.25l0.32-.07a0.13,0.13,0,0,0,.1-0.12V12.57A0.13,0.13,0,0,0,34.17,12.45Zm-1.53.79h0l0,0,0,0h0l0,0-0.14.06H32.21a0.57,0.57,0,0,1-.57-0.56,0.58,0.58,0,0,1,0-.12l0-.06,0-.06h0a0.56,0.56,0,0,1,.51-0.33h0a0.64,0.64,0,0,1,.47.31A0.56,0.56,0,0,1,32.64,13.24Z" transform="translate(0 -0.19)"/><g class="cls-39"><path class="cls-13" d="M30.29,12.56l0.06-.15-0.18,0a0.13,0.13,0,0,0-.1.12v0Z" transform="translate(0 -0.19)"/><path class="cls-13" d="M30.89,11.35l0.28,0.18,0.25-.1,0-.11-0.07,0-0.28-.18a0.12,0.12,0,0,0-.16,0l-0.15.15A0.12,0.12,0,0,1,30.89,11.35Z" transform="translate(0 -0.19)"/><path class="cls-13" d="M32.52,14.78L32.46,15h0.06a0.12,0.12,0,0,0,.12-0.1l0-.22Z" transform="translate(0 -0.19)"/><path class="cls-13" d="M34.17,12.45l-0.32-.07a1.74,1.74,0,0,0-.1-0.25l0.18-.28a0.12,0.12,0,0,0,0-.16l-0.5-.5a0.13,0.13,0,0,0-.16,0L33,11.36l-0.25-.1-0.07-.32a0.12,0.12,0,0,0-.12-0.1H31.81a0.13,0.13,0,0,0-.12.1l0,0.08h0.65a0.13,0.13,0,0,1,.12.1l0.07,0.32,0.25,0.1L33,11.35a0.13,0.13,0,0,1,.16,0l0.5,0.5a0.12,0.12,0,0,1,0,.16l-0.18.28a1.74,1.74,0,0,1,.1.25L34,12.63a0.13,0.13,0,0,1,.1.12v0.68l0.1,0a0.13,0.13,0,0,0,.1-0.12V12.57A0.13,0.13,0,0,0,34.17,12.45Z" transform="translate(0 -0.19)"/><path class="cls-13" d="M33.74,13.73l0-.1-0.14,0a1.71,1.71,0,0,1-.1.25l0.18,0.28a0.12,0.12,0,0,1,0,.16l-0.35.36,0.05,0,0.5-.5a0.12,0.12,0,0,0,0-.16Z" transform="translate(0 -0.19)"/></g><path class="cls-40" d="M32.17,11.88a1,1,0,1,0,1.06,1A1.06,1.06,0,0,0,32.17,11.88Zm0.18,1.65-0.18,0a0.63,0.63,0,0,1-.58-0.37,0.61,0.61,0,0,1-.06-0.25,0.63,0.63,0,0,1,.63-0.62h0.08a0.64,0.64,0,0,1,.47.31,0.62,0.62,0,0,1,.08.31A0.63,0.63,0,0,1,32.35,13.53Z" transform="translate(0 -0.19)"/><path class="cls-41" d="M32.21,11.92H32.08L32,12h0l0,0h0l-0.05,0h0l-0.05,0-0.05,0h0l-0.05,0,0,0-0.06.06,0,0,0,0.05,0,0,0,0.05,0,0.06a0.95,0.95,0,0,0,1.65.93l0,0,0-.1,0-.07V12.92s0,0,0,0A1,1,0,0,0,32.21,11.92Zm0.56,0.95a0.56,0.56,0,0,1-.14.37h0l0,0,0,0h0l0,0-0.14.06H32.21a0.57,0.57,0,0,1-.57-0.56,0.58,0.58,0,0,1,0-.12l0-.06,0-.06h0a0.56,0.56,0,0,1,.51-0.33h0a0.57,0.57,0,0,1,.47.31A0.56,0.56,0,0,1,32.78,12.87Z" transform="translate(0 -0.19)"/><g class="cls-42"><path class="cls-38" d="M32.64,13.24a0.56,0.56,0,1,1-.94-0.61l0,0.06,0,0.06a0.58,0.58,0,0,0,0,.12,0.57,0.57,0,0,0,.57.56h0.15l0.14-.06,0,0h0l0,0Z" transform="translate(0 -0.19)"/><path class="cls-38" d="M32.13,12.06A0.95,0.95,0,0,1,33,13.45a0.95,0.95,0,1,0-1.59-1A1,1,0,0,1,32.13,12.06Z" transform="translate(0 -0.19)"/></g><g class="cls-43"><path class="cls-41" d="M30.07,12.66a2.14,2.14,0,0,0,.29.78l-0.19,0a0.13,0.13,0,0,1-.1-0.12V12.66Z" transform="translate(0 -0.19)"/><path class="cls-41" d="M32.63,15a0.12,0.12,0,0,1-.1.05H31.81a0.13,0.13,0,0,1-.12-0.1l-0.07-.32-0.25-.1-0.28.18a0.13,0.13,0,0,1-.16,0l-0.5-.5a0.12,0.12,0,0,1,0-.16l0.17-.26a3,3,0,0,0,.68.58A6.23,6.23,0,0,0,32.63,15Z" transform="translate(0 -0.19)"/></g><path class="cls-13" d="M31.34,16.19h-1.6a1.44,1.44,0,0,0-1.44,1.44v0.64a1.44,1.44,0,0,0,1.44,1.44h0.32a0.16,0.16,0,0,1,.16.16v0.57l0.69-.69a0.16,0.16,0,0,1,.11,0h0.32a1.44,1.44,0,0,0,1.44-1.44V17.63A1.44,1.44,0,0,0,31.34,16.19Zm-1.92,2.08a0.32,0.32,0,1,1,.32-0.32A0.32,0.32,0,0,1,29.42,18.27Zm1.12,0a0.32,0.32,0,1,1,.32-0.32A0.32,0.32,0,0,1,30.54,18.27Zm1.12,0A0.32,0.32,0,1,1,32,17.95,0.32,0.32,0,0,1,31.66,18.27Z" transform="translate(0 -0.19)"/><path class="cls-23" d="M30.54,17.63a0.32,0.32,0,1,0,.32.32A0.32,0.32,0,0,0,30.54,17.63Z" transform="translate(0 -0.19)"/><path class="cls-23" d="M31.66,17.63a0.32,0.32,0,1,0,.32.32A0.32,0.32,0,0,0,31.66,17.63Z" transform="translate(0 -0.19)"/><path class="cls-23" d="M29.42,17.63a0.32,0.32,0,1,0,.32.32A0.32,0.32,0,0,0,29.42,17.63Z" transform="translate(0 -0.19)"/><path class="cls-3" d="M28.87,6.26H27a1.67,1.67,0,0,0-1.67,1.67V8.68A1.67,1.67,0,0,0,27,10.35h0.37a0.19,0.19,0,0,1,.19.19V11.2l0.8-.8a0.18,0.18,0,0,1,.13-0.06h0.37a1.67,1.67,0,0,0,1.67-1.67V7.94A1.67,1.67,0,0,0,28.87,6.26ZM26.64,8.68A0.37,0.37,0,1,1,27,8.31,0.37,0.37,0,0,1,26.64,8.68Zm1.3,0a0.37,0.37,0,1,1,.37-0.37A0.37,0.37,0,0,1,27.94,8.68Zm1.3,0a0.37,0.37,0,1,1,.37-0.37A0.37,0.37,0,0,1,29.24,8.68Z" transform="translate(0 -0.19)"/><path class="cls-23" d="M27.94,7.94a0.37,0.37,0,1,0,.37.37A0.37,0.37,0,0,0,27.94,7.94Z" transform="translate(0 -0.19)"/><path class="cls-23" d="M29.24,7.94a0.37,0.37,0,1,0,.37.37A0.37,0.37,0,0,0,29.24,7.94Z" transform="translate(0 -0.19)"/><path class="cls-23" d="M26.64,7.94a0.37,0.37,0,1,0,.37.37A0.37,0.37,0,0,0,26.64,7.94Z" transform="translate(0 -0.19)"/><path class="cls-26" d="M34.4,17.65H32.62a1.6,1.6,0,0,0-1.6,1.6V20a1.6,1.6,0,0,0,1.6,1.6H33a0.18,0.18,0,0,1,.18.18v0.64l0.76-.76A0.18,0.18,0,0,1,34,21.57H34.4A1.6,1.6,0,0,0,36,20V19.25A1.6,1.6,0,0,0,34.4,17.65ZM32.26,20a0.36,0.36,0,1,1,.36-0.36A0.36,0.36,0,0,1,32.26,20Zm1.25,0a0.36,0.36,0,1,1,.36-0.36A0.36,0.36,0,0,1,33.51,20Zm1.25,0a0.36,0.36,0,1,1,.36-0.36A0.36,0.36,0,0,1,34.75,20Z" transform="translate(0 -0.19)"/><path class="cls-23" d="M33.51,19.25a0.36,0.36,0,1,0,.36.36A0.36,0.36,0,0,0,33.51,19.25Z" transform="translate(0 -0.19)"/><path class="cls-23" d="M34.75,19.25a0.36,0.36,0,1,0,.36.36A0.36,0.36,0,0,0,34.75,19.25Z" transform="translate(0 -0.19)"/><path class="cls-23" d="M32.26,19.25a0.36,0.36,0,1,0,.36.36A0.36,0.36,0,0,0,32.26,19.25Z" transform="translate(0 -0.19)"/><path class="cls-13" d="M40.56,17.61v1.21a0.52,0.52,0,0,1-.52.52H37.26a0.52,0.52,0,0,1-.52-0.52V17.6a0.53,0.53,0,0,1,.19-0.4h0l1.8,1.32,1.55-1.37A0.52,0.52,0,0,1,40.56,17.61Z" transform="translate(0 -0.19)"/><polygon class="cls-37" points="40.28 16.96 38.73 18.33 36.94 17.01 36.93 17.01 38.66 15.69 40.28 16.96"/><polygon class="cls-44" points="39.7 15.99 39.7 17.48 38.73 18.33 37.49 17.42 37.49 15.99 39.7 15.99"/><path class="cls-45" d="M39.69,17.52v0.15l-1,.86-1.24-.92V16.95a2.43,2.43,0,0,0,1,.95A1.48,1.48,0,0,0,39.69,17.52Z" transform="translate(0 -0.19)"/><path class="cls-46" d="M40.4,19.19a0.52,0.52,0,0,1-.37.15H37.26a0.52,0.52,0,0,1-.3-0.09l1.77-.71Z" transform="translate(0 -0.19)"/><path class="cls-15" d="M6.23,16.41a0.52,0.52,0,0,0-.1-0.34,0.4,0.4,0,0,0-.32-0.12,0.51,0.51,0,0,0-.48.62H4.69A1.21,1.21,0,0,1,5,15.69a1.15,1.15,0,0,1,.81-0.3,1.06,1.06,0,0,1,.77.26,0.92,0.92,0,0,1,.27.69,1.34,1.34,0,0,1-.2.68,2.77,2.77,0,0,1-.51.63,4,4,0,0,1-.65.49H7v0.53H4.67V18.2Q6.23,17.12,6.23,16.41Z" transform="translate(0 -0.19)"/><path class="cls-15" d="M7.28,18.06V17.52l1.55-2.09H9.52V17.5H9.95v0.56H9.52v0.65H8.87V18.06H7.28Zm1.65-1.87-1,1.31h1V16.19Z" transform="translate(0 -0.19)"/><path class="cls-15" d="M11.92,14.36l-1.25,5.18H10l1.25-5.18h0.63Z" transform="translate(0 -0.19)"/><path class="cls-47" d="M14.09,15.92L12.9,18.71H12.23L13.43,16h-1.5V15.44h2.16v0.48Z" transform="translate(0 -0.19)"/></svg>